%TF.GenerationSoftware,KiCad,Pcbnew,9.0.6*%
%TF.CreationDate,2026-01-19T19:45:04-05:00*%
%TF.ProjectId,ClearLogicAnalyzer,436c6561-724c-46f6-9769-63416e616c79,1*%
%TF.SameCoordinates,Original*%
%TF.FileFunction,Soldermask,Bot*%
%TF.FilePolarity,Negative*%
%FSLAX46Y46*%
G04 Gerber Fmt 4.6, Leading zero omitted, Abs format (unit mm)*
G04 Created by KiCad (PCBNEW 9.0.6) date 2026-01-19 19:45:04*
%MOMM*%
%LPD*%
G01*
G04 APERTURE LIST*
G04 Aperture macros list*
%AMRoundRect*
0 Rectangle with rounded corners*
0 $1 Rounding radius*
0 $2 $3 $4 $5 $6 $7 $8 $9 X,Y pos of 4 corners*
0 Add a 4 corners polygon primitive as box body*
4,1,4,$2,$3,$4,$5,$6,$7,$8,$9,$2,$3,0*
0 Add four circle primitives for the rounded corners*
1,1,$1+$1,$2,$3*
1,1,$1+$1,$4,$5*
1,1,$1+$1,$6,$7*
1,1,$1+$1,$8,$9*
0 Add four rect primitives between the rounded corners*
20,1,$1+$1,$2,$3,$4,$5,0*
20,1,$1+$1,$4,$5,$6,$7,0*
20,1,$1+$1,$6,$7,$8,$9,0*
20,1,$1+$1,$8,$9,$2,$3,0*%
%AMFreePoly0*
4,1,37,0.603843,0.796157,0.639018,0.796157,0.711114,0.766294,0.766294,0.711114,0.796157,0.639018,0.796157,0.603843,0.800000,0.600000,0.800000,-0.600000,0.796157,-0.603843,0.796157,-0.639018,0.766294,-0.711114,0.711114,-0.766294,0.639018,-0.796157,0.603843,-0.796157,0.600000,-0.800000,0.000000,-0.800000,0.000000,-0.796148,-0.078414,-0.796148,-0.232228,-0.765552,-0.377117,-0.705537,
-0.507515,-0.618408,-0.618408,-0.507515,-0.705537,-0.377117,-0.765552,-0.232228,-0.796148,-0.078414,-0.796148,0.078414,-0.765552,0.232228,-0.705537,0.377117,-0.618408,0.507515,-0.507515,0.618408,-0.377117,0.705537,-0.232228,0.765552,-0.078414,0.796148,0.000000,0.796148,0.000000,0.800000,0.600000,0.800000,0.603843,0.796157,0.603843,0.796157,$1*%
%AMFreePoly1*
4,1,37,0.000000,0.796148,0.078414,0.796148,0.232228,0.765552,0.377117,0.705537,0.507515,0.618408,0.618408,0.507515,0.705537,0.377117,0.765552,0.232228,0.796148,0.078414,0.796148,-0.078414,0.765552,-0.232228,0.705537,-0.377117,0.618408,-0.507515,0.507515,-0.618408,0.377117,-0.705537,0.232228,-0.765552,0.078414,-0.796148,0.000000,-0.796148,0.000000,-0.800000,-0.600000,-0.800000,
-0.603843,-0.796157,-0.639018,-0.796157,-0.711114,-0.766294,-0.766294,-0.711114,-0.796157,-0.639018,-0.796157,-0.603843,-0.800000,-0.600000,-0.800000,0.600000,-0.796157,0.603843,-0.796157,0.639018,-0.766294,0.711114,-0.711114,0.766294,-0.639018,0.796157,-0.603843,0.796157,-0.600000,0.800000,0.000000,0.800000,0.000000,0.796148,0.000000,0.796148,$1*%
G04 Aperture macros list end*
%ADD10R,1.700000X1.700000*%
%ADD11C,1.700000*%
%ADD12RoundRect,0.200000X-0.600000X-0.600000X0.600000X-0.600000X0.600000X0.600000X-0.600000X0.600000X0*%
%ADD13C,1.600000*%
%ADD14FreePoly0,0.000000*%
%ADD15FreePoly1,0.000000*%
%ADD16C,0.800000*%
%ADD17C,6.400000*%
G04 APERTURE END LIST*
D10*
%TO.C,J1*%
X80264000Y-67310000D03*
D11*
X80264000Y-69850000D03*
X80264000Y-72390000D03*
X80264000Y-74930000D03*
X80264000Y-77470000D03*
X80264000Y-80010000D03*
X80264000Y-82550000D03*
X80264000Y-85090000D03*
X80264000Y-87630000D03*
%TD*%
D10*
%TO.C,J7*%
X157480000Y-63500000D03*
D11*
X160020000Y-63500000D03*
%TD*%
D10*
%TO.C,J4*%
X176377600Y-113030000D03*
D11*
X176377600Y-110490000D03*
X176377600Y-107950001D03*
X176377600Y-105410000D03*
X176377600Y-102870000D03*
X176377600Y-100330000D03*
X176377600Y-97790000D03*
X176377600Y-95249999D03*
%TD*%
D10*
%TO.C,J16*%
X151130000Y-116840000D03*
D11*
X153670000Y-116840000D03*
%TD*%
D10*
%TO.C,J9*%
X151130000Y-63500000D03*
D11*
X153670000Y-63500000D03*
%TD*%
D10*
%TO.C,J2*%
X80264000Y-113030000D03*
D11*
X80264000Y-110490000D03*
X80264000Y-107950001D03*
X80264000Y-105410000D03*
X80264000Y-102870000D03*
X80264000Y-100330000D03*
X80264000Y-97790000D03*
X80264000Y-95249999D03*
X80264000Y-92710000D03*
%TD*%
D10*
%TO.C,J13*%
X100330000Y-68580000D03*
D11*
X100330000Y-71120000D03*
%TD*%
D12*
%TO.C,A1*%
X119380000Y-66040000D03*
D13*
X119380000Y-68580000D03*
D14*
X119380000Y-71120000D03*
D13*
X119380000Y-73660000D03*
X119380000Y-76200000D03*
X119380000Y-78740000D03*
X119380000Y-81280000D03*
D14*
X119380000Y-83820000D03*
D13*
X119380000Y-86360000D03*
X119380000Y-88900000D03*
X119380000Y-91440000D03*
X119380000Y-93980000D03*
D14*
X119380000Y-96520000D03*
D13*
X119380000Y-99060000D03*
X119380000Y-101600000D03*
X119380000Y-104140000D03*
X119380000Y-106680000D03*
D14*
X119380000Y-109220000D03*
D13*
X119380000Y-111760000D03*
X119380000Y-114300000D03*
X137160000Y-114300000D03*
X137160000Y-111760000D03*
D15*
X137160000Y-109220000D03*
D13*
X137160000Y-106680000D03*
X137160000Y-104140000D03*
X137160000Y-101600000D03*
X137160000Y-99060000D03*
D15*
X137160000Y-96520000D03*
D13*
X137160000Y-93980000D03*
X137160000Y-91440000D03*
X137160000Y-88900000D03*
X137160000Y-86360000D03*
D15*
X137160000Y-83820000D03*
D13*
X137160000Y-81280000D03*
X137160000Y-78740000D03*
X137160000Y-76200000D03*
X137160000Y-73660000D03*
D15*
X137160000Y-71120000D03*
D13*
X137160000Y-68580000D03*
X137160000Y-66040000D03*
%TD*%
D10*
%TO.C,J8*%
X157480000Y-116840000D03*
D11*
X160020000Y-116840000D03*
%TD*%
D10*
%TO.C,J3*%
X176377600Y-77470000D03*
D11*
X176377600Y-80010000D03*
X176377600Y-82550000D03*
X176377600Y-85090000D03*
%TD*%
D16*
%TO.C,H4*%
X165240000Y-116840000D03*
X165942944Y-115142944D03*
X165942944Y-118537056D03*
X167640000Y-114440000D03*
D17*
X167640000Y-116840000D03*
D16*
X167640000Y-119240000D03*
X169337056Y-115142944D03*
X169337056Y-118537056D03*
X170040000Y-116840000D03*
%TD*%
D10*
%TO.C,J10*%
X111760000Y-67310000D03*
D11*
X114300000Y-67310000D03*
%TD*%
D10*
%TO.C,J15*%
X102870000Y-116840000D03*
D11*
X105410000Y-116840000D03*
%TD*%
D10*
%TO.C,J6*%
X96520000Y-116840000D03*
D11*
X99060000Y-116840000D03*
%TD*%
D10*
%TO.C,J5*%
X96520000Y-63500000D03*
D11*
X99060000Y-63500000D03*
%TD*%
D10*
%TO.C,J14*%
X102870000Y-63500000D03*
D11*
X105410000Y-63500000D03*
%TD*%
D16*
%TO.C,H3*%
X86500000Y-116840000D03*
X87202944Y-115142944D03*
X87202944Y-118537056D03*
X88900000Y-114440000D03*
D17*
X88900000Y-116840000D03*
D16*
X88900000Y-119240000D03*
X90597056Y-115142944D03*
X90597056Y-118537056D03*
X91300000Y-116840000D03*
%TD*%
D10*
%TO.C,J12*%
X96520000Y-68580000D03*
D11*
X96520000Y-71120000D03*
%TD*%
D16*
%TO.C,H1*%
X86500000Y-63500000D03*
X87202944Y-61802944D03*
X87202944Y-65197056D03*
X88900000Y-61100000D03*
D17*
X88900000Y-63500000D03*
D16*
X88900000Y-65900000D03*
X90597056Y-61802944D03*
X90597056Y-65197056D03*
X91300000Y-63500000D03*
%TD*%
D10*
%TO.C,J11*%
X111760000Y-71120000D03*
D11*
X114300000Y-71120000D03*
%TD*%
D16*
%TO.C,H2*%
X165240000Y-63500000D03*
X165942944Y-61802944D03*
X165942944Y-65197056D03*
X167640000Y-61100000D03*
D17*
X167640000Y-63500000D03*
D16*
X167640000Y-65900000D03*
X169337056Y-61802944D03*
X169337056Y-65197056D03*
X170040000Y-63500000D03*
%TD*%
M02*
