M48
; DRILL file {KiCad 9.0.6} date 2026-01-19T19:45:06-0500
; FORMAT={-:-/ absolute / inch / decimal}
; #@! TF.CreationDate,2026-01-19T19:45:06-05:00
; #@! TF.GenerationSoftware,Kicad,Pcbnew,9.0.6
; #@! TF.FileFunction,Plated,1,2,PTH
FMAT,2
INCH
; #@! TA.AperFunction,Plated,PTH,ViaDrill
T1C0.0118
; #@! TA.AperFunction,Plated,PTH,ViaDrill
T2C0.0197
; #@! TA.AperFunction,Plated,PTH,ComponentDrill
T3C0.0197
; #@! TA.AperFunction,Plated,PTH,ComponentDrill
T4C0.0394
; #@! TA.AperFunction,Plated,PTH,ComponentDrill
T5C0.1260
%
G90
G05
T1
X3.12Y-3.598
X3.12Y-3.7
X3.12Y-3.8
X3.12Y-3.9
X3.12Y-4.0
X3.12Y-4.1
X3.12Y-4.2
X3.12Y-4.3
X3.124Y-2.8
X3.124Y-2.9
X3.124Y-3.0
X3.124Y-3.1
X3.124Y-3.2
X3.124Y-3.3
X3.124Y-3.4
X3.124Y-3.502
X3.206Y-3.598
X3.206Y-3.7
X3.206Y-3.8
X3.206Y-3.9
X3.206Y-4.0
X3.206Y-4.1
X3.206Y-4.2
X3.206Y-4.3
X3.216Y-2.8
X3.216Y-2.9
X3.216Y-3.0
X3.216Y-3.1
X3.216Y-3.2
X3.216Y-3.3
X3.216Y-3.4
X3.216Y-3.502
X3.23Y-4.414
X3.244Y-2.694
X3.31Y-3.598
X3.31Y-3.7
X3.31Y-3.8
X3.31Y-3.9
X3.31Y-4.0
X3.31Y-4.1
X3.31Y-4.2
X3.31Y-4.3
X3.31Y-4.4
X3.32Y-2.704
X3.32Y-2.9
X3.32Y-3.0
X3.32Y-3.1
X3.32Y-3.2
X3.32Y-3.3
X3.32Y-3.4
X3.32Y-3.502
X3.394Y-3.6
X3.394Y-4.0
X3.396Y-3.802
X3.396Y-4.2
X3.396Y-4.302
X3.396Y-4.398
X3.398Y-3.7
X3.398Y-4.1
X3.4Y-3.9
X3.41Y-2.704
X3.41Y-3.3
X3.43Y-3.4
X3.44Y-3.2
X3.44Y-3.49
X3.45Y-3.0
X3.45Y-3.1
X3.466Y-2.804
X3.48Y-2.916
X3.49Y-3.296
X3.524Y-4.102
X3.525Y-3.715
X3.526Y-4.002
X3.528Y-4.3
X3.535Y-3.81
X3.54Y-4.385
X3.544Y-3.398
X3.55Y-3.486
X3.554Y-3.914
X3.562Y-4.198
X3.564Y-3.18
X3.566Y-3.098
X3.572Y-3.604
X3.576Y-3.242
X3.58Y-2.99
X3.612Y-3.708
X3.615Y-3.796
X3.64Y-3.9
X3.64Y-4.06
X3.642Y-2.912
X3.642Y-3.322
X3.645Y-4.115
X3.655Y-4.28
X3.66Y-3.098
X3.665Y-3.396
X3.672Y-3.48
X3.695Y-4.035
X3.698Y-3.184
X3.71Y-3.892
X3.71Y-4.38
X3.715Y-3.04
X3.725Y-4.14
X3.726Y-2.752
X3.73Y-4.3
X3.735Y-3.835
X3.74Y-2.968
X3.74Y-3.335
X3.75Y-4.005
X3.754Y-3.24
X3.755Y-3.16
X3.762Y-3.4
X3.78Y-4.165
X3.796Y-4.42
X3.8Y-3.982
X3.81Y-3.135
X3.81Y-3.265
X3.816Y-3.564
X3.82Y-3.06
X3.822Y-4.204
X3.83Y-3.335
X3.832Y-2.998
X3.832Y-3.928
X3.85Y-3.65
X3.856Y-4.494
X3.862Y-3.792
X3.872Y-3.724
X3.874Y-2.852
X3.882Y-3.848
X3.888Y-3.016
X3.888Y-3.914
X3.99Y-2.846
X3.99Y-2.964
X3.99Y-3.102
X3.99Y-3.196
X3.99Y-3.286
X3.99Y-3.746
X3.99Y-3.812
X3.99Y-3.99
X3.99Y-4.212
X3.992Y-3.884
X3.992Y-4.09
X4.05Y-2.65
X4.112Y-3.012
X4.112Y-3.91
X4.152Y-2.882
X4.158Y-3.846
X4.162Y-3.706
X4.164Y-3.778
X4.172Y-3.924
X4.176Y-3.075
X4.18Y-3.334
X4.18Y-4.268
X4.182Y-3.65
X4.182Y-4.454
X4.184Y-3.002
X4.19Y-3.16
X4.19Y-4.005
X4.19Y-4.19
X4.206Y-3.558
X4.208Y-3.29
X4.24Y-4.035
X4.242Y-3.186
X4.25Y-4.165
X4.252Y-3.414
X4.256Y-2.65
X4.262Y-4.57
X4.264Y-3.266
X4.268Y-4.354
X4.286Y-3.366
X4.3Y-3.21
X4.3Y-3.8
X4.3Y-4.06
X4.305Y-4.14
X4.31Y-2.94
X4.315Y-3.88
X4.325Y-3.505
X4.325Y-4.325
X4.335Y-3.94
X4.342Y-3.102
X4.36Y-4.085
X4.365Y-4.245
X4.366Y-4.668
X4.375Y-4.455
X4.376Y-3.26
X4.382Y-3.444
X4.384Y-3.344
X4.385Y-2.965
X4.43Y-3.93
X4.44Y-3.03
X4.445Y-3.752
X4.448Y-3.652
X4.46Y-4.536
X4.462Y-3.172
X4.462Y-3.53
X4.464Y-3.856
X4.475Y-4.155
X4.482Y-4.442
X4.5Y-4.045
X4.506Y-4.34
X4.515Y-4.235
X4.518Y-3.26
X4.532Y-3.45
X4.544Y-2.694
X4.544Y-3.094
X4.546Y-2.858
X4.55Y-2.972
X4.552Y-4.69
X4.554Y-3.346
X4.654Y-2.652
X4.654Y-2.95
X4.654Y-3.05
X4.654Y-3.15
X4.654Y-3.45
X4.654Y-3.55
X4.654Y-3.65
X4.654Y-3.95
X4.654Y-4.05
X4.654Y-4.15
X4.654Y-4.45
X4.654Y-4.566
X4.718Y-2.402
X4.834Y-2.562
X4.872Y-4.69
X4.884Y-2.82
X4.884Y-3.0
X4.902Y-3.166
X4.91Y-3.95
X4.912Y-3.388
X4.912Y-4.122
X4.912Y-4.268
X4.916Y-3.808
X4.918Y-3.574
X4.94Y-4.51
X5.03Y-2.404
X5.032Y-2.652
X5.046Y-2.894
X5.048Y-3.29
X5.06Y-4.026
X5.066Y-3.684
X5.07Y-4.38
X5.184Y-4.508
X5.206Y-2.976
X5.21Y-4.262
X5.212Y-3.13
X5.212Y-3.964
X5.214Y-3.574
X5.214Y-3.814
X5.216Y-4.112
X5.22Y-2.786
X5.22Y-3.376
X5.23Y-2.566
X5.254Y-4.686
X5.354Y-2.408
X5.446Y-3.15
X5.446Y-3.45
X5.446Y-3.55
X5.446Y-3.65
X5.446Y-4.05
X5.446Y-4.15
X5.446Y-4.45
X5.458Y-4.574
X5.484Y-2.61
X5.508Y-2.928
X5.578Y-3.24
X5.584Y-4.148
X5.586Y-4.232
X5.592Y-3.362
X5.608Y-3.06
X5.625Y-4.045
X5.628Y-2.836
X5.628Y-4.69
X5.632Y-3.662
X5.636Y-3.452
X5.64Y-3.948
X5.642Y-4.362
X5.676Y-3.252
X5.676Y-4.526
X5.684Y-3.54
X5.69Y-3.846
X5.695Y-4.405
X5.705Y-3.16
X5.725Y-4.14
X5.752Y-4.242
X5.758Y-3.79
X5.76Y-3.346
X5.76Y-4.085
X5.78Y-3.232
X5.802Y-4.618
X5.81Y-3.475
X5.818Y-4.364
X5.82Y-4.28
X5.83Y-4.452
X5.855Y-4.06
X5.855Y-4.165
X5.886Y-3.292
X5.896Y-3.236
X5.91Y-2.928
X5.91Y-3.065
X5.91Y-4.035
X5.91Y-4.19
X5.916Y-3.73
X5.916Y-3.938
X5.918Y-3.35
X5.918Y-4.27
X5.93Y-3.175
X5.946Y-4.48
X5.954Y-3.67
X5.976Y-3.462
X5.976Y-3.532
X5.976Y-3.614
X5.982Y-4.294
X5.984Y-3.392
X6.016Y-4.408
X6.08Y-4.33
X6.106Y-4.174
X6.112Y-3.138
X6.112Y-3.288
X6.112Y-3.402
X6.112Y-3.546
X6.112Y-3.658
X6.15Y-4.275
X6.21Y-3.726
X6.212Y-3.65
X6.212Y-4.292
X6.214Y-3.452
X6.214Y-3.51
X6.216Y-3.392
X6.216Y-3.58
X6.27Y-4.29
X6.276Y-3.082
X6.278Y-3.196
X6.282Y-3.974
X6.29Y-3.382
X6.29Y-4.06
X6.305Y-4.225
X6.306Y-3.258
X6.312Y-3.32
X6.345Y-4.085
X6.355Y-4.195
X6.36Y-4.385
X6.39Y-3.115
X6.404Y-3.2
X6.408Y-4.11
X6.408Y-4.164
X6.418Y-3.388
X6.425Y-4.3
X6.43Y-3.832
X6.43Y-3.92
X6.43Y-4.0
X6.442Y-3.306
X6.48Y-4.225
X6.516Y-4.046
X6.52Y-4.168
X6.524Y-3.736
X6.545Y-3.106
X6.548Y-4.394
X6.552Y-3.816
X6.56Y-3.198
X6.56Y-3.39
X6.57Y-3.3
X6.57Y-4.304
X6.6Y-3.898
X6.6Y-3.998
X6.608Y-4.106
X6.622Y-4.216
X6.68Y-3.3
X6.696Y-3.204
X6.7Y-3.4
X6.702Y-3.696
X6.704Y-3.1
X6.704Y-3.8
X6.704Y-3.9
X6.704Y-4.0
X6.704Y-4.1
X6.704Y-4.2
X6.704Y-4.3
X6.704Y-4.394
X6.792Y-3.696
X6.794Y-3.2
X6.794Y-3.3
X6.794Y-3.402
X6.794Y-3.8
X6.794Y-3.9
X6.794Y-4.0
X6.794Y-4.1
X6.794Y-4.2
X6.794Y-4.3
X6.794Y-4.394
X6.856Y-4.408
X6.896Y-3.696
X6.898Y-3.8
X6.898Y-3.9
X6.898Y-4.0
X6.898Y-4.1
X6.898Y-4.2
X6.898Y-4.3
X6.98Y-3.2
X6.98Y-3.3
X6.98Y-3.402
X6.98Y-3.696
X6.98Y-3.8
X6.98Y-3.9
X6.98Y-4.0
X6.98Y-4.1
X6.98Y-4.2
X6.98Y-4.3
T2
X3.5832Y-2.75
X3.8842Y-3.415
X3.8842Y-3.495
X3.8842Y-4.315
X3.8842Y-4.395
X3.9658Y-3.415
X3.9658Y-3.495
X3.9658Y-4.315
X3.9658Y-4.395
X4.0342Y-3.415
X4.0342Y-3.495
X4.0342Y-4.315
X4.0342Y-4.395
X4.1158Y-3.415
X4.1158Y-3.495
X4.1158Y-4.315
X4.1158Y-4.395
X5.5633Y-3.0
X5.65Y-2.998
X5.746Y-2.998
X5.75Y-2.8918
X5.9842Y-2.905
X5.9842Y-2.985
X5.9842Y-3.805
X5.9842Y-3.885
X6.0658Y-2.905
X6.0658Y-2.985
X6.0658Y-3.805
X6.0658Y-3.885
X6.1342Y-2.905
X6.1342Y-2.985
X6.1342Y-3.805
X6.1342Y-3.885
X6.2158Y-2.905
X6.2158Y-2.985
X6.2158Y-3.805
X6.2158Y-3.885
T3
X3.4055Y-2.5
X3.4055Y-4.6
X3.4332Y-2.4332
X3.4332Y-2.5668
X3.4332Y-4.5332
X3.4332Y-4.6668
X3.5Y-2.4055
X3.5Y-2.5945
X3.5Y-4.5055
X3.5Y-4.6945
X3.5668Y-2.4332
X3.5668Y-2.5668
X3.5668Y-4.5332
X3.5668Y-4.6668
X3.5945Y-2.5
X3.5945Y-4.6
X6.5055Y-2.5
X6.5055Y-4.6
X6.5332Y-2.4332
X6.5332Y-2.5668
X6.5332Y-4.5332
X6.5332Y-4.6668
X6.6Y-2.4055
X6.6Y-2.5945
X6.6Y-4.5055
X6.6Y-4.6945
X6.6668Y-2.4332
X6.6668Y-2.5668
X6.6668Y-4.5332
X6.6668Y-4.6668
X6.6945Y-2.5
X6.6945Y-4.6
T4
X3.16Y-2.65
X3.16Y-2.75
X3.16Y-2.85
X3.16Y-2.95
X3.16Y-3.05
X3.16Y-3.15
X3.16Y-3.25
X3.16Y-3.35
X3.16Y-3.45
X3.16Y-3.65
X3.16Y-3.75
X3.16Y-3.85
X3.16Y-3.95
X3.16Y-4.05
X3.16Y-4.15
X3.16Y-4.25
X3.16Y-4.35
X3.16Y-4.45
X3.8Y-2.5
X3.8Y-2.7
X3.8Y-2.8
X3.8Y-4.6
X3.9Y-2.5
X3.9Y-4.6
X3.95Y-2.7
X3.95Y-2.8
X4.05Y-2.5
X4.05Y-4.6
X4.15Y-2.5
X4.15Y-4.6
X4.4Y-2.65
X4.4Y-2.8
X4.5Y-2.65
X4.5Y-2.8
X4.7Y-2.6
X4.7Y-2.7
X4.7Y-2.8
X4.7Y-2.9
X4.7Y-3.0
X4.7Y-3.1
X4.7Y-3.2
X4.7Y-3.3
X4.7Y-3.4
X4.7Y-3.5
X4.7Y-3.6
X4.7Y-3.7
X4.7Y-3.8
X4.7Y-3.9
X4.7Y-4.0
X4.7Y-4.1
X4.7Y-4.2
X4.7Y-4.3
X4.7Y-4.4
X4.7Y-4.5
X5.4Y-2.6
X5.4Y-2.7
X5.4Y-2.8
X5.4Y-2.9
X5.4Y-3.0
X5.4Y-3.1
X5.4Y-3.2
X5.4Y-3.3
X5.4Y-3.4
X5.4Y-3.5
X5.4Y-3.6
X5.4Y-3.7
X5.4Y-3.8
X5.4Y-3.9
X5.4Y-4.0
X5.4Y-4.1
X5.4Y-4.2
X5.4Y-4.3
X5.4Y-4.4
X5.4Y-4.5
X5.95Y-2.5
X5.95Y-4.6
X6.05Y-2.5
X6.05Y-4.6
X6.2Y-2.5
X6.2Y-4.6
X6.3Y-2.5
X6.3Y-4.6
X6.944Y-3.05
X6.944Y-3.15
X6.944Y-3.25
X6.944Y-3.35
X6.944Y-3.75
X6.944Y-3.85
X6.944Y-3.95
X6.944Y-4.05
X6.944Y-4.15
X6.944Y-4.25
X6.944Y-4.35
X6.944Y-4.45
T5
X3.5Y-2.5
X3.5Y-4.6
X6.6Y-2.5
X6.6Y-4.6
M30
