%TF.GenerationSoftware,KiCad,Pcbnew,9.0.6*%
%TF.CreationDate,2026-01-19T19:45:04-05:00*%
%TF.ProjectId,ClearLogicAnalyzer,436c6561-724c-46f6-9769-63416e616c79,1*%
%TF.SameCoordinates,Original*%
%TF.FileFunction,Legend,Bot*%
%TF.FilePolarity,Positive*%
%FSLAX46Y46*%
G04 Gerber Fmt 4.6, Leading zero omitted, Abs format (unit mm)*
G04 Created by KiCad (PCBNEW 9.0.6) date 2026-01-19 19:45:04*
%MOMM*%
%LPD*%
G01*
G04 APERTURE LIST*
%ADD10C,0.100000*%
%ADD11C,0.300000*%
%ADD12C,0.500000*%
%ADD13C,0.350000*%
G04 APERTURE END LIST*
D10*
X89916000Y-66802000D02*
X106934000Y-66802000D01*
X106934000Y-76454000D01*
X89916000Y-76454000D01*
X89916000Y-66802000D01*
X109474000Y-65278000D02*
X116586000Y-65278000D01*
X116586000Y-74676000D01*
X109474000Y-74676000D01*
X109474000Y-65278000D01*
D11*
X169713346Y-79474528D02*
X169641918Y-79403100D01*
X169641918Y-79403100D02*
X169427632Y-79331671D01*
X169427632Y-79331671D02*
X169284775Y-79331671D01*
X169284775Y-79331671D02*
X169070489Y-79403100D01*
X169070489Y-79403100D02*
X168927632Y-79545957D01*
X168927632Y-79545957D02*
X168856203Y-79688814D01*
X168856203Y-79688814D02*
X168784775Y-79974528D01*
X168784775Y-79974528D02*
X168784775Y-80188814D01*
X168784775Y-80188814D02*
X168856203Y-80474528D01*
X168856203Y-80474528D02*
X168927632Y-80617385D01*
X168927632Y-80617385D02*
X169070489Y-80760242D01*
X169070489Y-80760242D02*
X169284775Y-80831671D01*
X169284775Y-80831671D02*
X169427632Y-80831671D01*
X169427632Y-80831671D02*
X169641918Y-80760242D01*
X169641918Y-80760242D02*
X169713346Y-80688814D01*
X170356203Y-79331671D02*
X170356203Y-80831671D01*
X170356203Y-80117385D02*
X171213346Y-80117385D01*
X171213346Y-79331671D02*
X171213346Y-80831671D01*
X171856204Y-80688814D02*
X171927632Y-80760242D01*
X171927632Y-80760242D02*
X172070490Y-80831671D01*
X172070490Y-80831671D02*
X172427632Y-80831671D01*
X172427632Y-80831671D02*
X172570490Y-80760242D01*
X172570490Y-80760242D02*
X172641918Y-80688814D01*
X172641918Y-80688814D02*
X172713347Y-80545957D01*
X172713347Y-80545957D02*
X172713347Y-80403100D01*
X172713347Y-80403100D02*
X172641918Y-80188814D01*
X172641918Y-80188814D02*
X171784775Y-79331671D01*
X171784775Y-79331671D02*
X172713347Y-79331671D01*
X173999061Y-80331671D02*
X173999061Y-79331671D01*
X173641918Y-80903100D02*
X173284775Y-79831671D01*
X173284775Y-79831671D02*
X174213346Y-79831671D01*
D10*
X143070874Y-74288868D02*
X142594684Y-74288868D01*
X142594684Y-74288868D02*
X142594684Y-75288868D01*
X143547065Y-74288868D02*
X143451827Y-74336488D01*
X143451827Y-74336488D02*
X143404208Y-74384107D01*
X143404208Y-74384107D02*
X143356589Y-74479345D01*
X143356589Y-74479345D02*
X143356589Y-74765059D01*
X143356589Y-74765059D02*
X143404208Y-74860297D01*
X143404208Y-74860297D02*
X143451827Y-74907916D01*
X143451827Y-74907916D02*
X143547065Y-74955535D01*
X143547065Y-74955535D02*
X143689922Y-74955535D01*
X143689922Y-74955535D02*
X143785160Y-74907916D01*
X143785160Y-74907916D02*
X143832779Y-74860297D01*
X143832779Y-74860297D02*
X143880398Y-74765059D01*
X143880398Y-74765059D02*
X143880398Y-74479345D01*
X143880398Y-74479345D02*
X143832779Y-74384107D01*
X143832779Y-74384107D02*
X143785160Y-74336488D01*
X143785160Y-74336488D02*
X143689922Y-74288868D01*
X143689922Y-74288868D02*
X143547065Y-74288868D01*
X144213732Y-74955535D02*
X144404208Y-74288868D01*
X144404208Y-74288868D02*
X144594684Y-74765059D01*
X144594684Y-74765059D02*
X144785160Y-74288868D01*
X144785160Y-74288868D02*
X144975636Y-74955535D01*
X145356589Y-74669821D02*
X146118494Y-74669821D01*
X146594684Y-74955535D02*
X146594684Y-74288868D01*
X146594684Y-74860297D02*
X146642303Y-74907916D01*
X146642303Y-74907916D02*
X146737541Y-74955535D01*
X146737541Y-74955535D02*
X146880398Y-74955535D01*
X146880398Y-74955535D02*
X146975636Y-74907916D01*
X146975636Y-74907916D02*
X147023255Y-74812678D01*
X147023255Y-74812678D02*
X147023255Y-74288868D01*
X147642303Y-74288868D02*
X147547065Y-74336488D01*
X147547065Y-74336488D02*
X147499446Y-74384107D01*
X147499446Y-74384107D02*
X147451827Y-74479345D01*
X147451827Y-74479345D02*
X147451827Y-74765059D01*
X147451827Y-74765059D02*
X147499446Y-74860297D01*
X147499446Y-74860297D02*
X147547065Y-74907916D01*
X147547065Y-74907916D02*
X147642303Y-74955535D01*
X147642303Y-74955535D02*
X147785160Y-74955535D01*
X147785160Y-74955535D02*
X147880398Y-74907916D01*
X147880398Y-74907916D02*
X147928017Y-74860297D01*
X147928017Y-74860297D02*
X147975636Y-74765059D01*
X147975636Y-74765059D02*
X147975636Y-74479345D01*
X147975636Y-74479345D02*
X147928017Y-74384107D01*
X147928017Y-74384107D02*
X147880398Y-74336488D01*
X147880398Y-74336488D02*
X147785160Y-74288868D01*
X147785160Y-74288868D02*
X147642303Y-74288868D01*
X148404208Y-74288868D02*
X148404208Y-74955535D01*
X148404208Y-75288868D02*
X148356589Y-75241249D01*
X148356589Y-75241249D02*
X148404208Y-75193630D01*
X148404208Y-75193630D02*
X148451827Y-75241249D01*
X148451827Y-75241249D02*
X148404208Y-75288868D01*
X148404208Y-75288868D02*
X148404208Y-75193630D01*
X148832779Y-74336488D02*
X148928017Y-74288868D01*
X148928017Y-74288868D02*
X149118493Y-74288868D01*
X149118493Y-74288868D02*
X149213731Y-74336488D01*
X149213731Y-74336488D02*
X149261350Y-74431726D01*
X149261350Y-74431726D02*
X149261350Y-74479345D01*
X149261350Y-74479345D02*
X149213731Y-74574583D01*
X149213731Y-74574583D02*
X149118493Y-74622202D01*
X149118493Y-74622202D02*
X148975636Y-74622202D01*
X148975636Y-74622202D02*
X148880398Y-74669821D01*
X148880398Y-74669821D02*
X148832779Y-74765059D01*
X148832779Y-74765059D02*
X148832779Y-74812678D01*
X148832779Y-74812678D02*
X148880398Y-74907916D01*
X148880398Y-74907916D02*
X148975636Y-74955535D01*
X148975636Y-74955535D02*
X149118493Y-74955535D01*
X149118493Y-74955535D02*
X149213731Y-74907916D01*
X150070874Y-74336488D02*
X149975636Y-74288868D01*
X149975636Y-74288868D02*
X149785160Y-74288868D01*
X149785160Y-74288868D02*
X149689922Y-74336488D01*
X149689922Y-74336488D02*
X149642303Y-74431726D01*
X149642303Y-74431726D02*
X149642303Y-74812678D01*
X149642303Y-74812678D02*
X149689922Y-74907916D01*
X149689922Y-74907916D02*
X149785160Y-74955535D01*
X149785160Y-74955535D02*
X149975636Y-74955535D01*
X149975636Y-74955535D02*
X150070874Y-74907916D01*
X150070874Y-74907916D02*
X150118493Y-74812678D01*
X150118493Y-74812678D02*
X150118493Y-74717440D01*
X150118493Y-74717440D02*
X149642303Y-74622202D01*
X150594684Y-74336488D02*
X150594684Y-74288868D01*
X150594684Y-74288868D02*
X150547065Y-74193630D01*
X150547065Y-74193630D02*
X150499446Y-74146011D01*
X152213731Y-74336488D02*
X152118493Y-74288868D01*
X152118493Y-74288868D02*
X151928017Y-74288868D01*
X151928017Y-74288868D02*
X151832779Y-74336488D01*
X151832779Y-74336488D02*
X151785160Y-74384107D01*
X151785160Y-74384107D02*
X151737541Y-74479345D01*
X151737541Y-74479345D02*
X151737541Y-74765059D01*
X151737541Y-74765059D02*
X151785160Y-74860297D01*
X151785160Y-74860297D02*
X151832779Y-74907916D01*
X151832779Y-74907916D02*
X151928017Y-74955535D01*
X151928017Y-74955535D02*
X152118493Y-74955535D01*
X152118493Y-74955535D02*
X152213731Y-74907916D01*
X152785160Y-74288868D02*
X152689922Y-74336488D01*
X152689922Y-74336488D02*
X152642303Y-74431726D01*
X152642303Y-74431726D02*
X152642303Y-75288868D01*
X153547065Y-74336488D02*
X153451827Y-74288868D01*
X153451827Y-74288868D02*
X153261351Y-74288868D01*
X153261351Y-74288868D02*
X153166113Y-74336488D01*
X153166113Y-74336488D02*
X153118494Y-74431726D01*
X153118494Y-74431726D02*
X153118494Y-74812678D01*
X153118494Y-74812678D02*
X153166113Y-74907916D01*
X153166113Y-74907916D02*
X153261351Y-74955535D01*
X153261351Y-74955535D02*
X153451827Y-74955535D01*
X153451827Y-74955535D02*
X153547065Y-74907916D01*
X153547065Y-74907916D02*
X153594684Y-74812678D01*
X153594684Y-74812678D02*
X153594684Y-74717440D01*
X153594684Y-74717440D02*
X153118494Y-74622202D01*
X154451827Y-74288868D02*
X154451827Y-74812678D01*
X154451827Y-74812678D02*
X154404208Y-74907916D01*
X154404208Y-74907916D02*
X154308970Y-74955535D01*
X154308970Y-74955535D02*
X154118494Y-74955535D01*
X154118494Y-74955535D02*
X154023256Y-74907916D01*
X154451827Y-74336488D02*
X154356589Y-74288868D01*
X154356589Y-74288868D02*
X154118494Y-74288868D01*
X154118494Y-74288868D02*
X154023256Y-74336488D01*
X154023256Y-74336488D02*
X153975637Y-74431726D01*
X153975637Y-74431726D02*
X153975637Y-74526964D01*
X153975637Y-74526964D02*
X154023256Y-74622202D01*
X154023256Y-74622202D02*
X154118494Y-74669821D01*
X154118494Y-74669821D02*
X154356589Y-74669821D01*
X154356589Y-74669821D02*
X154451827Y-74717440D01*
X154928018Y-74955535D02*
X154928018Y-74288868D01*
X154928018Y-74860297D02*
X154975637Y-74907916D01*
X154975637Y-74907916D02*
X155070875Y-74955535D01*
X155070875Y-74955535D02*
X155213732Y-74955535D01*
X155213732Y-74955535D02*
X155308970Y-74907916D01*
X155308970Y-74907916D02*
X155356589Y-74812678D01*
X155356589Y-74812678D02*
X155356589Y-74288868D01*
X155832780Y-74669821D02*
X156594685Y-74669821D01*
X157451827Y-74336488D02*
X157356589Y-74288868D01*
X157356589Y-74288868D02*
X157166113Y-74288868D01*
X157166113Y-74288868D02*
X157070875Y-74336488D01*
X157070875Y-74336488D02*
X157023256Y-74431726D01*
X157023256Y-74431726D02*
X157023256Y-74812678D01*
X157023256Y-74812678D02*
X157070875Y-74907916D01*
X157070875Y-74907916D02*
X157166113Y-74955535D01*
X157166113Y-74955535D02*
X157356589Y-74955535D01*
X157356589Y-74955535D02*
X157451827Y-74907916D01*
X157451827Y-74907916D02*
X157499446Y-74812678D01*
X157499446Y-74812678D02*
X157499446Y-74717440D01*
X157499446Y-74717440D02*
X157023256Y-74622202D01*
X158356589Y-74288868D02*
X158356589Y-75288868D01*
X158356589Y-74336488D02*
X158261351Y-74288868D01*
X158261351Y-74288868D02*
X158070875Y-74288868D01*
X158070875Y-74288868D02*
X157975637Y-74336488D01*
X157975637Y-74336488D02*
X157928018Y-74384107D01*
X157928018Y-74384107D02*
X157880399Y-74479345D01*
X157880399Y-74479345D02*
X157880399Y-74765059D01*
X157880399Y-74765059D02*
X157928018Y-74860297D01*
X157928018Y-74860297D02*
X157975637Y-74907916D01*
X157975637Y-74907916D02*
X158070875Y-74955535D01*
X158070875Y-74955535D02*
X158261351Y-74955535D01*
X158261351Y-74955535D02*
X158356589Y-74907916D01*
X159261351Y-74955535D02*
X159261351Y-74146011D01*
X159261351Y-74146011D02*
X159213732Y-74050773D01*
X159213732Y-74050773D02*
X159166113Y-74003154D01*
X159166113Y-74003154D02*
X159070875Y-73955535D01*
X159070875Y-73955535D02*
X158928018Y-73955535D01*
X158928018Y-73955535D02*
X158832780Y-74003154D01*
X159261351Y-74336488D02*
X159166113Y-74288868D01*
X159166113Y-74288868D02*
X158975637Y-74288868D01*
X158975637Y-74288868D02*
X158880399Y-74336488D01*
X158880399Y-74336488D02*
X158832780Y-74384107D01*
X158832780Y-74384107D02*
X158785161Y-74479345D01*
X158785161Y-74479345D02*
X158785161Y-74765059D01*
X158785161Y-74765059D02*
X158832780Y-74860297D01*
X158832780Y-74860297D02*
X158880399Y-74907916D01*
X158880399Y-74907916D02*
X158975637Y-74955535D01*
X158975637Y-74955535D02*
X159166113Y-74955535D01*
X159166113Y-74955535D02*
X159261351Y-74907916D01*
X160118494Y-74336488D02*
X160023256Y-74288868D01*
X160023256Y-74288868D02*
X159832780Y-74288868D01*
X159832780Y-74288868D02*
X159737542Y-74336488D01*
X159737542Y-74336488D02*
X159689923Y-74431726D01*
X159689923Y-74431726D02*
X159689923Y-74812678D01*
X159689923Y-74812678D02*
X159737542Y-74907916D01*
X159737542Y-74907916D02*
X159832780Y-74955535D01*
X159832780Y-74955535D02*
X160023256Y-74955535D01*
X160023256Y-74955535D02*
X160118494Y-74907916D01*
X160118494Y-74907916D02*
X160166113Y-74812678D01*
X160166113Y-74812678D02*
X160166113Y-74717440D01*
X160166113Y-74717440D02*
X159689923Y-74622202D01*
X161785161Y-74288868D02*
X161785161Y-75288868D01*
X161785161Y-74336488D02*
X161689923Y-74288868D01*
X161689923Y-74288868D02*
X161499447Y-74288868D01*
X161499447Y-74288868D02*
X161404209Y-74336488D01*
X161404209Y-74336488D02*
X161356590Y-74384107D01*
X161356590Y-74384107D02*
X161308971Y-74479345D01*
X161308971Y-74479345D02*
X161308971Y-74765059D01*
X161308971Y-74765059D02*
X161356590Y-74860297D01*
X161356590Y-74860297D02*
X161404209Y-74907916D01*
X161404209Y-74907916D02*
X161499447Y-74955535D01*
X161499447Y-74955535D02*
X161689923Y-74955535D01*
X161689923Y-74955535D02*
X161785161Y-74907916D01*
X162642304Y-74336488D02*
X162547066Y-74288868D01*
X162547066Y-74288868D02*
X162356590Y-74288868D01*
X162356590Y-74288868D02*
X162261352Y-74336488D01*
X162261352Y-74336488D02*
X162213733Y-74431726D01*
X162213733Y-74431726D02*
X162213733Y-74812678D01*
X162213733Y-74812678D02*
X162261352Y-74907916D01*
X162261352Y-74907916D02*
X162356590Y-74955535D01*
X162356590Y-74955535D02*
X162547066Y-74955535D01*
X162547066Y-74955535D02*
X162642304Y-74907916D01*
X162642304Y-74907916D02*
X162689923Y-74812678D01*
X162689923Y-74812678D02*
X162689923Y-74717440D01*
X162689923Y-74717440D02*
X162213733Y-74622202D01*
X163070876Y-74336488D02*
X163166114Y-74288868D01*
X163166114Y-74288868D02*
X163356590Y-74288868D01*
X163356590Y-74288868D02*
X163451828Y-74336488D01*
X163451828Y-74336488D02*
X163499447Y-74431726D01*
X163499447Y-74431726D02*
X163499447Y-74479345D01*
X163499447Y-74479345D02*
X163451828Y-74574583D01*
X163451828Y-74574583D02*
X163356590Y-74622202D01*
X163356590Y-74622202D02*
X163213733Y-74622202D01*
X163213733Y-74622202D02*
X163118495Y-74669821D01*
X163118495Y-74669821D02*
X163070876Y-74765059D01*
X163070876Y-74765059D02*
X163070876Y-74812678D01*
X163070876Y-74812678D02*
X163118495Y-74907916D01*
X163118495Y-74907916D02*
X163213733Y-74955535D01*
X163213733Y-74955535D02*
X163356590Y-74955535D01*
X163356590Y-74955535D02*
X163451828Y-74907916D01*
X163928019Y-74288868D02*
X163928019Y-74955535D01*
X163928019Y-75288868D02*
X163880400Y-75241249D01*
X163880400Y-75241249D02*
X163928019Y-75193630D01*
X163928019Y-75193630D02*
X163975638Y-75241249D01*
X163975638Y-75241249D02*
X163928019Y-75288868D01*
X163928019Y-75288868D02*
X163928019Y-75193630D01*
X164832780Y-74955535D02*
X164832780Y-74146011D01*
X164832780Y-74146011D02*
X164785161Y-74050773D01*
X164785161Y-74050773D02*
X164737542Y-74003154D01*
X164737542Y-74003154D02*
X164642304Y-73955535D01*
X164642304Y-73955535D02*
X164499447Y-73955535D01*
X164499447Y-73955535D02*
X164404209Y-74003154D01*
X164832780Y-74336488D02*
X164737542Y-74288868D01*
X164737542Y-74288868D02*
X164547066Y-74288868D01*
X164547066Y-74288868D02*
X164451828Y-74336488D01*
X164451828Y-74336488D02*
X164404209Y-74384107D01*
X164404209Y-74384107D02*
X164356590Y-74479345D01*
X164356590Y-74479345D02*
X164356590Y-74765059D01*
X164356590Y-74765059D02*
X164404209Y-74860297D01*
X164404209Y-74860297D02*
X164451828Y-74907916D01*
X164451828Y-74907916D02*
X164547066Y-74955535D01*
X164547066Y-74955535D02*
X164737542Y-74955535D01*
X164737542Y-74955535D02*
X164832780Y-74907916D01*
X165308971Y-74955535D02*
X165308971Y-74288868D01*
X165308971Y-74860297D02*
X165356590Y-74907916D01*
X165356590Y-74907916D02*
X165451828Y-74955535D01*
X165451828Y-74955535D02*
X165594685Y-74955535D01*
X165594685Y-74955535D02*
X165689923Y-74907916D01*
X165689923Y-74907916D02*
X165737542Y-74812678D01*
X165737542Y-74812678D02*
X165737542Y-74288868D01*
X143118493Y-72678924D02*
X142547065Y-72678924D01*
X142832779Y-72678924D02*
X142832779Y-73678924D01*
X142832779Y-73678924D02*
X142737541Y-73536067D01*
X142737541Y-73536067D02*
X142642303Y-73440829D01*
X142642303Y-73440829D02*
X142547065Y-73393210D01*
X143737541Y-73678924D02*
X143832779Y-73678924D01*
X143832779Y-73678924D02*
X143928017Y-73631305D01*
X143928017Y-73631305D02*
X143975636Y-73583686D01*
X143975636Y-73583686D02*
X144023255Y-73488448D01*
X144023255Y-73488448D02*
X144070874Y-73297972D01*
X144070874Y-73297972D02*
X144070874Y-73059877D01*
X144070874Y-73059877D02*
X144023255Y-72869401D01*
X144023255Y-72869401D02*
X143975636Y-72774163D01*
X143975636Y-72774163D02*
X143928017Y-72726544D01*
X143928017Y-72726544D02*
X143832779Y-72678924D01*
X143832779Y-72678924D02*
X143737541Y-72678924D01*
X143737541Y-72678924D02*
X143642303Y-72726544D01*
X143642303Y-72726544D02*
X143594684Y-72774163D01*
X143594684Y-72774163D02*
X143547065Y-72869401D01*
X143547065Y-72869401D02*
X143499446Y-73059877D01*
X143499446Y-73059877D02*
X143499446Y-73297972D01*
X143499446Y-73297972D02*
X143547065Y-73488448D01*
X143547065Y-73488448D02*
X143594684Y-73583686D01*
X143594684Y-73583686D02*
X143642303Y-73631305D01*
X143642303Y-73631305D02*
X143737541Y-73678924D01*
X144689922Y-73678924D02*
X144785160Y-73678924D01*
X144785160Y-73678924D02*
X144880398Y-73631305D01*
X144880398Y-73631305D02*
X144928017Y-73583686D01*
X144928017Y-73583686D02*
X144975636Y-73488448D01*
X144975636Y-73488448D02*
X145023255Y-73297972D01*
X145023255Y-73297972D02*
X145023255Y-73059877D01*
X145023255Y-73059877D02*
X144975636Y-72869401D01*
X144975636Y-72869401D02*
X144928017Y-72774163D01*
X144928017Y-72774163D02*
X144880398Y-72726544D01*
X144880398Y-72726544D02*
X144785160Y-72678924D01*
X144785160Y-72678924D02*
X144689922Y-72678924D01*
X144689922Y-72678924D02*
X144594684Y-72726544D01*
X144594684Y-72726544D02*
X144547065Y-72774163D01*
X144547065Y-72774163D02*
X144499446Y-72869401D01*
X144499446Y-72869401D02*
X144451827Y-73059877D01*
X144451827Y-73059877D02*
X144451827Y-73297972D01*
X144451827Y-73297972D02*
X144499446Y-73488448D01*
X144499446Y-73488448D02*
X144547065Y-73583686D01*
X144547065Y-73583686D02*
X144594684Y-73631305D01*
X144594684Y-73631305D02*
X144689922Y-73678924D01*
X146213732Y-72678924D02*
X146213732Y-73678924D01*
X146213732Y-73678924D02*
X146547065Y-72964639D01*
X146547065Y-72964639D02*
X146880398Y-73678924D01*
X146880398Y-73678924D02*
X146880398Y-72678924D01*
X147356589Y-72678924D02*
X147356589Y-73678924D01*
X147356589Y-73202734D02*
X147928017Y-73202734D01*
X147928017Y-72678924D02*
X147928017Y-73678924D01*
X148308970Y-73345591D02*
X148832779Y-73345591D01*
X148832779Y-73345591D02*
X148308970Y-72678924D01*
X148308970Y-72678924D02*
X148832779Y-72678924D01*
X149213732Y-73059877D02*
X149975637Y-73059877D01*
X149594684Y-72678924D02*
X149594684Y-73440829D01*
X151166113Y-72726544D02*
X151261351Y-72678924D01*
X151261351Y-72678924D02*
X151451827Y-72678924D01*
X151451827Y-72678924D02*
X151547065Y-72726544D01*
X151547065Y-72726544D02*
X151594684Y-72821782D01*
X151594684Y-72821782D02*
X151594684Y-72869401D01*
X151594684Y-72869401D02*
X151547065Y-72964639D01*
X151547065Y-72964639D02*
X151451827Y-73012258D01*
X151451827Y-73012258D02*
X151308970Y-73012258D01*
X151308970Y-73012258D02*
X151213732Y-73059877D01*
X151213732Y-73059877D02*
X151166113Y-73155115D01*
X151166113Y-73155115D02*
X151166113Y-73202734D01*
X151166113Y-73202734D02*
X151213732Y-73297972D01*
X151213732Y-73297972D02*
X151308970Y-73345591D01*
X151308970Y-73345591D02*
X151451827Y-73345591D01*
X151451827Y-73345591D02*
X151547065Y-73297972D01*
X152451827Y-72678924D02*
X152451827Y-73202734D01*
X152451827Y-73202734D02*
X152404208Y-73297972D01*
X152404208Y-73297972D02*
X152308970Y-73345591D01*
X152308970Y-73345591D02*
X152118494Y-73345591D01*
X152118494Y-73345591D02*
X152023256Y-73297972D01*
X152451827Y-72726544D02*
X152356589Y-72678924D01*
X152356589Y-72678924D02*
X152118494Y-72678924D01*
X152118494Y-72678924D02*
X152023256Y-72726544D01*
X152023256Y-72726544D02*
X151975637Y-72821782D01*
X151975637Y-72821782D02*
X151975637Y-72917020D01*
X151975637Y-72917020D02*
X152023256Y-73012258D01*
X152023256Y-73012258D02*
X152118494Y-73059877D01*
X152118494Y-73059877D02*
X152356589Y-73059877D01*
X152356589Y-73059877D02*
X152451827Y-73107496D01*
X152928018Y-72678924D02*
X152928018Y-73345591D01*
X152928018Y-73250353D02*
X152975637Y-73297972D01*
X152975637Y-73297972D02*
X153070875Y-73345591D01*
X153070875Y-73345591D02*
X153213732Y-73345591D01*
X153213732Y-73345591D02*
X153308970Y-73297972D01*
X153308970Y-73297972D02*
X153356589Y-73202734D01*
X153356589Y-73202734D02*
X153356589Y-72678924D01*
X153356589Y-73202734D02*
X153404208Y-73297972D01*
X153404208Y-73297972D02*
X153499446Y-73345591D01*
X153499446Y-73345591D02*
X153642303Y-73345591D01*
X153642303Y-73345591D02*
X153737542Y-73297972D01*
X153737542Y-73297972D02*
X153785161Y-73202734D01*
X153785161Y-73202734D02*
X153785161Y-72678924D01*
X154261351Y-73345591D02*
X154261351Y-72345591D01*
X154261351Y-73297972D02*
X154356589Y-73345591D01*
X154356589Y-73345591D02*
X154547065Y-73345591D01*
X154547065Y-73345591D02*
X154642303Y-73297972D01*
X154642303Y-73297972D02*
X154689922Y-73250353D01*
X154689922Y-73250353D02*
X154737541Y-73155115D01*
X154737541Y-73155115D02*
X154737541Y-72869401D01*
X154737541Y-72869401D02*
X154689922Y-72774163D01*
X154689922Y-72774163D02*
X154642303Y-72726544D01*
X154642303Y-72726544D02*
X154547065Y-72678924D01*
X154547065Y-72678924D02*
X154356589Y-72678924D01*
X154356589Y-72678924D02*
X154261351Y-72726544D01*
X155308970Y-72678924D02*
X155213732Y-72726544D01*
X155213732Y-72726544D02*
X155166113Y-72821782D01*
X155166113Y-72821782D02*
X155166113Y-73678924D01*
X155689923Y-72678924D02*
X155689923Y-73345591D01*
X155689923Y-73678924D02*
X155642304Y-73631305D01*
X155642304Y-73631305D02*
X155689923Y-73583686D01*
X155689923Y-73583686D02*
X155737542Y-73631305D01*
X155737542Y-73631305D02*
X155689923Y-73678924D01*
X155689923Y-73678924D02*
X155689923Y-73583686D01*
X156166113Y-73345591D02*
X156166113Y-72678924D01*
X156166113Y-73250353D02*
X156213732Y-73297972D01*
X156213732Y-73297972D02*
X156308970Y-73345591D01*
X156308970Y-73345591D02*
X156451827Y-73345591D01*
X156451827Y-73345591D02*
X156547065Y-73297972D01*
X156547065Y-73297972D02*
X156594684Y-73202734D01*
X156594684Y-73202734D02*
X156594684Y-72678924D01*
X157499446Y-73345591D02*
X157499446Y-72536067D01*
X157499446Y-72536067D02*
X157451827Y-72440829D01*
X157451827Y-72440829D02*
X157404208Y-72393210D01*
X157404208Y-72393210D02*
X157308970Y-72345591D01*
X157308970Y-72345591D02*
X157166113Y-72345591D01*
X157166113Y-72345591D02*
X157070875Y-72393210D01*
X157499446Y-72726544D02*
X157404208Y-72678924D01*
X157404208Y-72678924D02*
X157213732Y-72678924D01*
X157213732Y-72678924D02*
X157118494Y-72726544D01*
X157118494Y-72726544D02*
X157070875Y-72774163D01*
X157070875Y-72774163D02*
X157023256Y-72869401D01*
X157023256Y-72869401D02*
X157023256Y-73155115D01*
X157023256Y-73155115D02*
X157070875Y-73250353D01*
X157070875Y-73250353D02*
X157118494Y-73297972D01*
X157118494Y-73297972D02*
X157213732Y-73345591D01*
X157213732Y-73345591D02*
X157404208Y-73345591D01*
X157404208Y-73345591D02*
X157499446Y-73297972D01*
X158880399Y-73107496D02*
X158832780Y-73059877D01*
X158832780Y-73059877D02*
X158880399Y-73012258D01*
X158880399Y-73012258D02*
X158928018Y-73059877D01*
X158928018Y-73059877D02*
X158880399Y-73107496D01*
X158880399Y-73107496D02*
X158880399Y-73012258D01*
X160785161Y-72678924D02*
X160213733Y-72678924D01*
X160499447Y-72678924D02*
X160499447Y-73678924D01*
X160499447Y-73678924D02*
X160404209Y-73536067D01*
X160404209Y-73536067D02*
X160308971Y-73440829D01*
X160308971Y-73440829D02*
X160213733Y-73393210D01*
X161213733Y-72774163D02*
X161261352Y-72726544D01*
X161261352Y-72726544D02*
X161213733Y-72678924D01*
X161213733Y-72678924D02*
X161166114Y-72726544D01*
X161166114Y-72726544D02*
X161213733Y-72774163D01*
X161213733Y-72774163D02*
X161213733Y-72678924D01*
X161642304Y-73583686D02*
X161689923Y-73631305D01*
X161689923Y-73631305D02*
X161785161Y-73678924D01*
X161785161Y-73678924D02*
X162023256Y-73678924D01*
X162023256Y-73678924D02*
X162118494Y-73631305D01*
X162118494Y-73631305D02*
X162166113Y-73583686D01*
X162166113Y-73583686D02*
X162213732Y-73488448D01*
X162213732Y-73488448D02*
X162213732Y-73393210D01*
X162213732Y-73393210D02*
X162166113Y-73250353D01*
X162166113Y-73250353D02*
X161594685Y-72678924D01*
X161594685Y-72678924D02*
X162213732Y-72678924D01*
X162499447Y-73678924D02*
X162832780Y-72678924D01*
X162832780Y-72678924D02*
X163166113Y-73678924D01*
X163737542Y-73012258D02*
X163356590Y-73012258D01*
X164547066Y-73678924D02*
X164070876Y-73678924D01*
X164070876Y-73678924D02*
X164023257Y-73202734D01*
X164023257Y-73202734D02*
X164070876Y-73250353D01*
X164070876Y-73250353D02*
X164166114Y-73297972D01*
X164166114Y-73297972D02*
X164404209Y-73297972D01*
X164404209Y-73297972D02*
X164499447Y-73250353D01*
X164499447Y-73250353D02*
X164547066Y-73202734D01*
X164547066Y-73202734D02*
X164594685Y-73107496D01*
X164594685Y-73107496D02*
X164594685Y-72869401D01*
X164594685Y-72869401D02*
X164547066Y-72774163D01*
X164547066Y-72774163D02*
X164499447Y-72726544D01*
X164499447Y-72726544D02*
X164404209Y-72678924D01*
X164404209Y-72678924D02*
X164166114Y-72678924D01*
X164166114Y-72678924D02*
X164070876Y-72726544D01*
X164070876Y-72726544D02*
X164023257Y-72774163D01*
X165023257Y-72774163D02*
X165070876Y-72726544D01*
X165070876Y-72726544D02*
X165023257Y-72678924D01*
X165023257Y-72678924D02*
X164975638Y-72726544D01*
X164975638Y-72726544D02*
X165023257Y-72774163D01*
X165023257Y-72774163D02*
X165023257Y-72678924D01*
X165975637Y-73678924D02*
X165499447Y-73678924D01*
X165499447Y-73678924D02*
X165451828Y-73202734D01*
X165451828Y-73202734D02*
X165499447Y-73250353D01*
X165499447Y-73250353D02*
X165594685Y-73297972D01*
X165594685Y-73297972D02*
X165832780Y-73297972D01*
X165832780Y-73297972D02*
X165928018Y-73250353D01*
X165928018Y-73250353D02*
X165975637Y-73202734D01*
X165975637Y-73202734D02*
X166023256Y-73107496D01*
X166023256Y-73107496D02*
X166023256Y-72869401D01*
X166023256Y-72869401D02*
X165975637Y-72774163D01*
X165975637Y-72774163D02*
X165928018Y-72726544D01*
X165928018Y-72726544D02*
X165832780Y-72678924D01*
X165832780Y-72678924D02*
X165594685Y-72678924D01*
X165594685Y-72678924D02*
X165499447Y-72726544D01*
X165499447Y-72726544D02*
X165451828Y-72774163D01*
X166308971Y-73678924D02*
X166642304Y-72678924D01*
X166642304Y-72678924D02*
X166975637Y-73678924D01*
X168070876Y-72678924D02*
X168070876Y-73345591D01*
X168070876Y-73678924D02*
X168023257Y-73631305D01*
X168023257Y-73631305D02*
X168070876Y-73583686D01*
X168070876Y-73583686D02*
X168118495Y-73631305D01*
X168118495Y-73631305D02*
X168070876Y-73678924D01*
X168070876Y-73678924D02*
X168070876Y-73583686D01*
X168547066Y-73345591D02*
X168547066Y-72678924D01*
X168547066Y-73250353D02*
X168594685Y-73297972D01*
X168594685Y-73297972D02*
X168689923Y-73345591D01*
X168689923Y-73345591D02*
X168832780Y-73345591D01*
X168832780Y-73345591D02*
X168928018Y-73297972D01*
X168928018Y-73297972D02*
X168975637Y-73202734D01*
X168975637Y-73202734D02*
X168975637Y-72678924D01*
X169451828Y-73345591D02*
X169451828Y-72345591D01*
X169451828Y-73297972D02*
X169547066Y-73345591D01*
X169547066Y-73345591D02*
X169737542Y-73345591D01*
X169737542Y-73345591D02*
X169832780Y-73297972D01*
X169832780Y-73297972D02*
X169880399Y-73250353D01*
X169880399Y-73250353D02*
X169928018Y-73155115D01*
X169928018Y-73155115D02*
X169928018Y-72869401D01*
X169928018Y-72869401D02*
X169880399Y-72774163D01*
X169880399Y-72774163D02*
X169832780Y-72726544D01*
X169832780Y-72726544D02*
X169737542Y-72678924D01*
X169737542Y-72678924D02*
X169547066Y-72678924D01*
X169547066Y-72678924D02*
X169451828Y-72726544D01*
X170785161Y-73345591D02*
X170785161Y-72678924D01*
X170356590Y-73345591D02*
X170356590Y-72821782D01*
X170356590Y-72821782D02*
X170404209Y-72726544D01*
X170404209Y-72726544D02*
X170499447Y-72678924D01*
X170499447Y-72678924D02*
X170642304Y-72678924D01*
X170642304Y-72678924D02*
X170737542Y-72726544D01*
X170737542Y-72726544D02*
X170785161Y-72774163D01*
X171118495Y-73345591D02*
X171499447Y-73345591D01*
X171261352Y-73678924D02*
X171261352Y-72821782D01*
X171261352Y-72821782D02*
X171308971Y-72726544D01*
X171308971Y-72726544D02*
X171404209Y-72678924D01*
X171404209Y-72678924D02*
X171499447Y-72678924D01*
X171785162Y-72726544D02*
X171880400Y-72678924D01*
X171880400Y-72678924D02*
X172070876Y-72678924D01*
X172070876Y-72678924D02*
X172166114Y-72726544D01*
X172166114Y-72726544D02*
X172213733Y-72821782D01*
X172213733Y-72821782D02*
X172213733Y-72869401D01*
X172213733Y-72869401D02*
X172166114Y-72964639D01*
X172166114Y-72964639D02*
X172070876Y-73012258D01*
X172070876Y-73012258D02*
X171928019Y-73012258D01*
X171928019Y-73012258D02*
X171832781Y-73059877D01*
X171832781Y-73059877D02*
X171785162Y-73155115D01*
X171785162Y-73155115D02*
X171785162Y-73202734D01*
X171785162Y-73202734D02*
X171832781Y-73297972D01*
X171832781Y-73297972D02*
X171928019Y-73345591D01*
X171928019Y-73345591D02*
X172070876Y-73345591D01*
X172070876Y-73345591D02*
X172166114Y-73297972D01*
X142547065Y-71116600D02*
X142689922Y-71068980D01*
X142689922Y-71068980D02*
X142928017Y-71068980D01*
X142928017Y-71068980D02*
X143023255Y-71116600D01*
X143023255Y-71116600D02*
X143070874Y-71164219D01*
X143070874Y-71164219D02*
X143118493Y-71259457D01*
X143118493Y-71259457D02*
X143118493Y-71354695D01*
X143118493Y-71354695D02*
X143070874Y-71449933D01*
X143070874Y-71449933D02*
X143023255Y-71497552D01*
X143023255Y-71497552D02*
X142928017Y-71545171D01*
X142928017Y-71545171D02*
X142737541Y-71592790D01*
X142737541Y-71592790D02*
X142642303Y-71640409D01*
X142642303Y-71640409D02*
X142594684Y-71688028D01*
X142594684Y-71688028D02*
X142547065Y-71783266D01*
X142547065Y-71783266D02*
X142547065Y-71878504D01*
X142547065Y-71878504D02*
X142594684Y-71973742D01*
X142594684Y-71973742D02*
X142642303Y-72021361D01*
X142642303Y-72021361D02*
X142737541Y-72068980D01*
X142737541Y-72068980D02*
X142975636Y-72068980D01*
X142975636Y-72068980D02*
X143118493Y-72021361D01*
X143689922Y-71068980D02*
X143594684Y-71116600D01*
X143594684Y-71116600D02*
X143547065Y-71164219D01*
X143547065Y-71164219D02*
X143499446Y-71259457D01*
X143499446Y-71259457D02*
X143499446Y-71545171D01*
X143499446Y-71545171D02*
X143547065Y-71640409D01*
X143547065Y-71640409D02*
X143594684Y-71688028D01*
X143594684Y-71688028D02*
X143689922Y-71735647D01*
X143689922Y-71735647D02*
X143832779Y-71735647D01*
X143832779Y-71735647D02*
X143928017Y-71688028D01*
X143928017Y-71688028D02*
X143975636Y-71640409D01*
X143975636Y-71640409D02*
X144023255Y-71545171D01*
X144023255Y-71545171D02*
X144023255Y-71259457D01*
X144023255Y-71259457D02*
X143975636Y-71164219D01*
X143975636Y-71164219D02*
X143928017Y-71116600D01*
X143928017Y-71116600D02*
X143832779Y-71068980D01*
X143832779Y-71068980D02*
X143689922Y-71068980D01*
X144594684Y-71068980D02*
X144499446Y-71116600D01*
X144499446Y-71116600D02*
X144451827Y-71211838D01*
X144451827Y-71211838D02*
X144451827Y-72068980D01*
X144975637Y-71068980D02*
X144975637Y-71735647D01*
X144975637Y-72068980D02*
X144928018Y-72021361D01*
X144928018Y-72021361D02*
X144975637Y-71973742D01*
X144975637Y-71973742D02*
X145023256Y-72021361D01*
X145023256Y-72021361D02*
X144975637Y-72068980D01*
X144975637Y-72068980D02*
X144975637Y-71973742D01*
X145880398Y-71068980D02*
X145880398Y-72068980D01*
X145880398Y-71116600D02*
X145785160Y-71068980D01*
X145785160Y-71068980D02*
X145594684Y-71068980D01*
X145594684Y-71068980D02*
X145499446Y-71116600D01*
X145499446Y-71116600D02*
X145451827Y-71164219D01*
X145451827Y-71164219D02*
X145404208Y-71259457D01*
X145404208Y-71259457D02*
X145404208Y-71545171D01*
X145404208Y-71545171D02*
X145451827Y-71640409D01*
X145451827Y-71640409D02*
X145499446Y-71688028D01*
X145499446Y-71688028D02*
X145594684Y-71735647D01*
X145594684Y-71735647D02*
X145785160Y-71735647D01*
X145785160Y-71735647D02*
X145880398Y-71688028D01*
X147642303Y-72021361D02*
X147547065Y-72068980D01*
X147547065Y-72068980D02*
X147404208Y-72068980D01*
X147404208Y-72068980D02*
X147261351Y-72021361D01*
X147261351Y-72021361D02*
X147166113Y-71926123D01*
X147166113Y-71926123D02*
X147118494Y-71830885D01*
X147118494Y-71830885D02*
X147070875Y-71640409D01*
X147070875Y-71640409D02*
X147070875Y-71497552D01*
X147070875Y-71497552D02*
X147118494Y-71307076D01*
X147118494Y-71307076D02*
X147166113Y-71211838D01*
X147166113Y-71211838D02*
X147261351Y-71116600D01*
X147261351Y-71116600D02*
X147404208Y-71068980D01*
X147404208Y-71068980D02*
X147499446Y-71068980D01*
X147499446Y-71068980D02*
X147642303Y-71116600D01*
X147642303Y-71116600D02*
X147689922Y-71164219D01*
X147689922Y-71164219D02*
X147689922Y-71497552D01*
X147689922Y-71497552D02*
X147499446Y-71497552D01*
X148118494Y-71068980D02*
X148118494Y-72068980D01*
X148118494Y-72068980D02*
X148689922Y-71068980D01*
X148689922Y-71068980D02*
X148689922Y-72068980D01*
X149166113Y-71068980D02*
X149166113Y-72068980D01*
X149166113Y-72068980D02*
X149404208Y-72068980D01*
X149404208Y-72068980D02*
X149547065Y-72021361D01*
X149547065Y-72021361D02*
X149642303Y-71926123D01*
X149642303Y-71926123D02*
X149689922Y-71830885D01*
X149689922Y-71830885D02*
X149737541Y-71640409D01*
X149737541Y-71640409D02*
X149737541Y-71497552D01*
X149737541Y-71497552D02*
X149689922Y-71307076D01*
X149689922Y-71307076D02*
X149642303Y-71211838D01*
X149642303Y-71211838D02*
X149547065Y-71116600D01*
X149547065Y-71116600D02*
X149404208Y-71068980D01*
X149404208Y-71068980D02*
X149166113Y-71068980D01*
X150928018Y-71735647D02*
X150928018Y-70735647D01*
X150928018Y-71688028D02*
X151023256Y-71735647D01*
X151023256Y-71735647D02*
X151213732Y-71735647D01*
X151213732Y-71735647D02*
X151308970Y-71688028D01*
X151308970Y-71688028D02*
X151356589Y-71640409D01*
X151356589Y-71640409D02*
X151404208Y-71545171D01*
X151404208Y-71545171D02*
X151404208Y-71259457D01*
X151404208Y-71259457D02*
X151356589Y-71164219D01*
X151356589Y-71164219D02*
X151308970Y-71116600D01*
X151308970Y-71116600D02*
X151213732Y-71068980D01*
X151213732Y-71068980D02*
X151023256Y-71068980D01*
X151023256Y-71068980D02*
X150928018Y-71116600D01*
X151975637Y-71068980D02*
X151880399Y-71116600D01*
X151880399Y-71116600D02*
X151832780Y-71211838D01*
X151832780Y-71211838D02*
X151832780Y-72068980D01*
X152785161Y-71068980D02*
X152785161Y-71592790D01*
X152785161Y-71592790D02*
X152737542Y-71688028D01*
X152737542Y-71688028D02*
X152642304Y-71735647D01*
X152642304Y-71735647D02*
X152451828Y-71735647D01*
X152451828Y-71735647D02*
X152356590Y-71688028D01*
X152785161Y-71116600D02*
X152689923Y-71068980D01*
X152689923Y-71068980D02*
X152451828Y-71068980D01*
X152451828Y-71068980D02*
X152356590Y-71116600D01*
X152356590Y-71116600D02*
X152308971Y-71211838D01*
X152308971Y-71211838D02*
X152308971Y-71307076D01*
X152308971Y-71307076D02*
X152356590Y-71402314D01*
X152356590Y-71402314D02*
X152451828Y-71449933D01*
X152451828Y-71449933D02*
X152689923Y-71449933D01*
X152689923Y-71449933D02*
X152785161Y-71497552D01*
X153261352Y-71735647D02*
X153261352Y-71068980D01*
X153261352Y-71640409D02*
X153308971Y-71688028D01*
X153308971Y-71688028D02*
X153404209Y-71735647D01*
X153404209Y-71735647D02*
X153547066Y-71735647D01*
X153547066Y-71735647D02*
X153642304Y-71688028D01*
X153642304Y-71688028D02*
X153689923Y-71592790D01*
X153689923Y-71592790D02*
X153689923Y-71068980D01*
X154547066Y-71116600D02*
X154451828Y-71068980D01*
X154451828Y-71068980D02*
X154261352Y-71068980D01*
X154261352Y-71068980D02*
X154166114Y-71116600D01*
X154166114Y-71116600D02*
X154118495Y-71211838D01*
X154118495Y-71211838D02*
X154118495Y-71592790D01*
X154118495Y-71592790D02*
X154166114Y-71688028D01*
X154166114Y-71688028D02*
X154261352Y-71735647D01*
X154261352Y-71735647D02*
X154451828Y-71735647D01*
X154451828Y-71735647D02*
X154547066Y-71688028D01*
X154547066Y-71688028D02*
X154594685Y-71592790D01*
X154594685Y-71592790D02*
X154594685Y-71497552D01*
X154594685Y-71497552D02*
X154118495Y-71402314D01*
X154975638Y-71116600D02*
X155070876Y-71068980D01*
X155070876Y-71068980D02*
X155261352Y-71068980D01*
X155261352Y-71068980D02*
X155356590Y-71116600D01*
X155356590Y-71116600D02*
X155404209Y-71211838D01*
X155404209Y-71211838D02*
X155404209Y-71259457D01*
X155404209Y-71259457D02*
X155356590Y-71354695D01*
X155356590Y-71354695D02*
X155261352Y-71402314D01*
X155261352Y-71402314D02*
X155118495Y-71402314D01*
X155118495Y-71402314D02*
X155023257Y-71449933D01*
X155023257Y-71449933D02*
X154975638Y-71545171D01*
X154975638Y-71545171D02*
X154975638Y-71592790D01*
X154975638Y-71592790D02*
X155023257Y-71688028D01*
X155023257Y-71688028D02*
X155118495Y-71735647D01*
X155118495Y-71735647D02*
X155261352Y-71735647D01*
X155261352Y-71735647D02*
X155356590Y-71688028D01*
X156737543Y-71497552D02*
X156689924Y-71449933D01*
X156689924Y-71449933D02*
X156737543Y-71402314D01*
X156737543Y-71402314D02*
X156785162Y-71449933D01*
X156785162Y-71449933D02*
X156737543Y-71497552D01*
X156737543Y-71497552D02*
X156737543Y-71402314D01*
X158547067Y-71116600D02*
X158451829Y-71068980D01*
X158451829Y-71068980D02*
X158261353Y-71068980D01*
X158261353Y-71068980D02*
X158166115Y-71116600D01*
X158166115Y-71116600D02*
X158118496Y-71164219D01*
X158118496Y-71164219D02*
X158070877Y-71259457D01*
X158070877Y-71259457D02*
X158070877Y-71545171D01*
X158070877Y-71545171D02*
X158118496Y-71640409D01*
X158118496Y-71640409D02*
X158166115Y-71688028D01*
X158166115Y-71688028D02*
X158261353Y-71735647D01*
X158261353Y-71735647D02*
X158451829Y-71735647D01*
X158451829Y-71735647D02*
X158547067Y-71688028D01*
X159118496Y-71068980D02*
X159023258Y-71116600D01*
X159023258Y-71116600D02*
X158975639Y-71164219D01*
X158975639Y-71164219D02*
X158928020Y-71259457D01*
X158928020Y-71259457D02*
X158928020Y-71545171D01*
X158928020Y-71545171D02*
X158975639Y-71640409D01*
X158975639Y-71640409D02*
X159023258Y-71688028D01*
X159023258Y-71688028D02*
X159118496Y-71735647D01*
X159118496Y-71735647D02*
X159261353Y-71735647D01*
X159261353Y-71735647D02*
X159356591Y-71688028D01*
X159356591Y-71688028D02*
X159404210Y-71640409D01*
X159404210Y-71640409D02*
X159451829Y-71545171D01*
X159451829Y-71545171D02*
X159451829Y-71259457D01*
X159451829Y-71259457D02*
X159404210Y-71164219D01*
X159404210Y-71164219D02*
X159356591Y-71116600D01*
X159356591Y-71116600D02*
X159261353Y-71068980D01*
X159261353Y-71068980D02*
X159118496Y-71068980D01*
X159880401Y-71735647D02*
X159880401Y-71068980D01*
X159880401Y-71640409D02*
X159928020Y-71688028D01*
X159928020Y-71688028D02*
X160023258Y-71735647D01*
X160023258Y-71735647D02*
X160166115Y-71735647D01*
X160166115Y-71735647D02*
X160261353Y-71688028D01*
X160261353Y-71688028D02*
X160308972Y-71592790D01*
X160308972Y-71592790D02*
X160308972Y-71068980D01*
X160642306Y-71735647D02*
X161023258Y-71735647D01*
X160785163Y-72068980D02*
X160785163Y-71211838D01*
X160785163Y-71211838D02*
X160832782Y-71116600D01*
X160832782Y-71116600D02*
X160928020Y-71068980D01*
X160928020Y-71068980D02*
X161023258Y-71068980D01*
X161356592Y-71068980D02*
X161356592Y-71735647D01*
X161356592Y-71545171D02*
X161404211Y-71640409D01*
X161404211Y-71640409D02*
X161451830Y-71688028D01*
X161451830Y-71688028D02*
X161547068Y-71735647D01*
X161547068Y-71735647D02*
X161642306Y-71735647D01*
X162118497Y-71068980D02*
X162023259Y-71116600D01*
X162023259Y-71116600D02*
X161975640Y-71164219D01*
X161975640Y-71164219D02*
X161928021Y-71259457D01*
X161928021Y-71259457D02*
X161928021Y-71545171D01*
X161928021Y-71545171D02*
X161975640Y-71640409D01*
X161975640Y-71640409D02*
X162023259Y-71688028D01*
X162023259Y-71688028D02*
X162118497Y-71735647D01*
X162118497Y-71735647D02*
X162261354Y-71735647D01*
X162261354Y-71735647D02*
X162356592Y-71688028D01*
X162356592Y-71688028D02*
X162404211Y-71640409D01*
X162404211Y-71640409D02*
X162451830Y-71545171D01*
X162451830Y-71545171D02*
X162451830Y-71259457D01*
X162451830Y-71259457D02*
X162404211Y-71164219D01*
X162404211Y-71164219D02*
X162356592Y-71116600D01*
X162356592Y-71116600D02*
X162261354Y-71068980D01*
X162261354Y-71068980D02*
X162118497Y-71068980D01*
X163023259Y-71068980D02*
X162928021Y-71116600D01*
X162928021Y-71116600D02*
X162880402Y-71211838D01*
X162880402Y-71211838D02*
X162880402Y-72068980D01*
X163547069Y-71068980D02*
X163451831Y-71116600D01*
X163451831Y-71116600D02*
X163404212Y-71211838D01*
X163404212Y-71211838D02*
X163404212Y-72068980D01*
X164308974Y-71116600D02*
X164213736Y-71068980D01*
X164213736Y-71068980D02*
X164023260Y-71068980D01*
X164023260Y-71068980D02*
X163928022Y-71116600D01*
X163928022Y-71116600D02*
X163880403Y-71211838D01*
X163880403Y-71211838D02*
X163880403Y-71592790D01*
X163880403Y-71592790D02*
X163928022Y-71688028D01*
X163928022Y-71688028D02*
X164023260Y-71735647D01*
X164023260Y-71735647D02*
X164213736Y-71735647D01*
X164213736Y-71735647D02*
X164308974Y-71688028D01*
X164308974Y-71688028D02*
X164356593Y-71592790D01*
X164356593Y-71592790D02*
X164356593Y-71497552D01*
X164356593Y-71497552D02*
X163880403Y-71402314D01*
X165213736Y-71068980D02*
X165213736Y-72068980D01*
X165213736Y-71116600D02*
X165118498Y-71068980D01*
X165118498Y-71068980D02*
X164928022Y-71068980D01*
X164928022Y-71068980D02*
X164832784Y-71116600D01*
X164832784Y-71116600D02*
X164785165Y-71164219D01*
X164785165Y-71164219D02*
X164737546Y-71259457D01*
X164737546Y-71259457D02*
X164737546Y-71545171D01*
X164737546Y-71545171D02*
X164785165Y-71640409D01*
X164785165Y-71640409D02*
X164832784Y-71688028D01*
X164832784Y-71688028D02*
X164928022Y-71735647D01*
X164928022Y-71735647D02*
X165118498Y-71735647D01*
X165118498Y-71735647D02*
X165213736Y-71688028D01*
X166451832Y-71068980D02*
X166451832Y-71735647D01*
X166451832Y-71545171D02*
X166499451Y-71640409D01*
X166499451Y-71640409D02*
X166547070Y-71688028D01*
X166547070Y-71688028D02*
X166642308Y-71735647D01*
X166642308Y-71735647D02*
X166737546Y-71735647D01*
X167451832Y-71116600D02*
X167356594Y-71068980D01*
X167356594Y-71068980D02*
X167166118Y-71068980D01*
X167166118Y-71068980D02*
X167070880Y-71116600D01*
X167070880Y-71116600D02*
X167023261Y-71211838D01*
X167023261Y-71211838D02*
X167023261Y-71592790D01*
X167023261Y-71592790D02*
X167070880Y-71688028D01*
X167070880Y-71688028D02*
X167166118Y-71735647D01*
X167166118Y-71735647D02*
X167356594Y-71735647D01*
X167356594Y-71735647D02*
X167451832Y-71688028D01*
X167451832Y-71688028D02*
X167499451Y-71592790D01*
X167499451Y-71592790D02*
X167499451Y-71497552D01*
X167499451Y-71497552D02*
X167023261Y-71402314D01*
X167785166Y-71735647D02*
X168166118Y-71735647D01*
X167928023Y-72068980D02*
X167928023Y-71211838D01*
X167928023Y-71211838D02*
X167975642Y-71116600D01*
X167975642Y-71116600D02*
X168070880Y-71068980D01*
X168070880Y-71068980D02*
X168166118Y-71068980D01*
X168928023Y-71735647D02*
X168928023Y-71068980D01*
X168499452Y-71735647D02*
X168499452Y-71211838D01*
X168499452Y-71211838D02*
X168547071Y-71116600D01*
X168547071Y-71116600D02*
X168642309Y-71068980D01*
X168642309Y-71068980D02*
X168785166Y-71068980D01*
X168785166Y-71068980D02*
X168880404Y-71116600D01*
X168880404Y-71116600D02*
X168928023Y-71164219D01*
X169404214Y-71068980D02*
X169404214Y-71735647D01*
X169404214Y-71545171D02*
X169451833Y-71640409D01*
X169451833Y-71640409D02*
X169499452Y-71688028D01*
X169499452Y-71688028D02*
X169594690Y-71735647D01*
X169594690Y-71735647D02*
X169689928Y-71735647D01*
X170023262Y-71735647D02*
X170023262Y-71068980D01*
X170023262Y-71640409D02*
X170070881Y-71688028D01*
X170070881Y-71688028D02*
X170166119Y-71735647D01*
X170166119Y-71735647D02*
X170308976Y-71735647D01*
X170308976Y-71735647D02*
X170404214Y-71688028D01*
X170404214Y-71688028D02*
X170451833Y-71592790D01*
X170451833Y-71592790D02*
X170451833Y-71068980D01*
X170880405Y-71116600D02*
X170975643Y-71068980D01*
X170975643Y-71068980D02*
X171166119Y-71068980D01*
X171166119Y-71068980D02*
X171261357Y-71116600D01*
X171261357Y-71116600D02*
X171308976Y-71211838D01*
X171308976Y-71211838D02*
X171308976Y-71259457D01*
X171308976Y-71259457D02*
X171261357Y-71354695D01*
X171261357Y-71354695D02*
X171166119Y-71402314D01*
X171166119Y-71402314D02*
X171023262Y-71402314D01*
X171023262Y-71402314D02*
X170928024Y-71449933D01*
X170928024Y-71449933D02*
X170880405Y-71545171D01*
X170880405Y-71545171D02*
X170880405Y-71592790D01*
X170880405Y-71592790D02*
X170928024Y-71688028D01*
X170928024Y-71688028D02*
X171023262Y-71735647D01*
X171023262Y-71735647D02*
X171166119Y-71735647D01*
X171166119Y-71735647D02*
X171261357Y-71688028D01*
X142928017Y-69982846D02*
X142594684Y-69982846D01*
X142594684Y-69459036D02*
X142594684Y-70459036D01*
X142594684Y-70459036D02*
X143070874Y-70459036D01*
X143451827Y-69459036D02*
X143451827Y-70125703D01*
X143451827Y-70459036D02*
X143404208Y-70411417D01*
X143404208Y-70411417D02*
X143451827Y-70363798D01*
X143451827Y-70363798D02*
X143499446Y-70411417D01*
X143499446Y-70411417D02*
X143451827Y-70459036D01*
X143451827Y-70459036D02*
X143451827Y-70363798D01*
X143928017Y-69459036D02*
X143928017Y-70125703D01*
X143928017Y-69935227D02*
X143975636Y-70030465D01*
X143975636Y-70030465D02*
X144023255Y-70078084D01*
X144023255Y-70078084D02*
X144118493Y-70125703D01*
X144118493Y-70125703D02*
X144213731Y-70125703D01*
X144547065Y-69459036D02*
X144547065Y-70125703D01*
X144547065Y-70030465D02*
X144594684Y-70078084D01*
X144594684Y-70078084D02*
X144689922Y-70125703D01*
X144689922Y-70125703D02*
X144832779Y-70125703D01*
X144832779Y-70125703D02*
X144928017Y-70078084D01*
X144928017Y-70078084D02*
X144975636Y-69982846D01*
X144975636Y-69982846D02*
X144975636Y-69459036D01*
X144975636Y-69982846D02*
X145023255Y-70078084D01*
X145023255Y-70078084D02*
X145118493Y-70125703D01*
X145118493Y-70125703D02*
X145261350Y-70125703D01*
X145261350Y-70125703D02*
X145356589Y-70078084D01*
X145356589Y-70078084D02*
X145404208Y-69982846D01*
X145404208Y-69982846D02*
X145404208Y-69459036D01*
X145785160Y-70125703D02*
X145975636Y-69459036D01*
X145975636Y-69459036D02*
X146166112Y-69935227D01*
X146166112Y-69935227D02*
X146356588Y-69459036D01*
X146356588Y-69459036D02*
X146547064Y-70125703D01*
X147356588Y-69459036D02*
X147356588Y-69982846D01*
X147356588Y-69982846D02*
X147308969Y-70078084D01*
X147308969Y-70078084D02*
X147213731Y-70125703D01*
X147213731Y-70125703D02*
X147023255Y-70125703D01*
X147023255Y-70125703D02*
X146928017Y-70078084D01*
X147356588Y-69506656D02*
X147261350Y-69459036D01*
X147261350Y-69459036D02*
X147023255Y-69459036D01*
X147023255Y-69459036D02*
X146928017Y-69506656D01*
X146928017Y-69506656D02*
X146880398Y-69601894D01*
X146880398Y-69601894D02*
X146880398Y-69697132D01*
X146880398Y-69697132D02*
X146928017Y-69792370D01*
X146928017Y-69792370D02*
X147023255Y-69839989D01*
X147023255Y-69839989D02*
X147261350Y-69839989D01*
X147261350Y-69839989D02*
X147356588Y-69887608D01*
X147832779Y-69459036D02*
X147832779Y-70125703D01*
X147832779Y-69935227D02*
X147880398Y-70030465D01*
X147880398Y-70030465D02*
X147928017Y-70078084D01*
X147928017Y-70078084D02*
X148023255Y-70125703D01*
X148023255Y-70125703D02*
X148118493Y-70125703D01*
X148832779Y-69506656D02*
X148737541Y-69459036D01*
X148737541Y-69459036D02*
X148547065Y-69459036D01*
X148547065Y-69459036D02*
X148451827Y-69506656D01*
X148451827Y-69506656D02*
X148404208Y-69601894D01*
X148404208Y-69601894D02*
X148404208Y-69982846D01*
X148404208Y-69982846D02*
X148451827Y-70078084D01*
X148451827Y-70078084D02*
X148547065Y-70125703D01*
X148547065Y-70125703D02*
X148737541Y-70125703D01*
X148737541Y-70125703D02*
X148832779Y-70078084D01*
X148832779Y-70078084D02*
X148880398Y-69982846D01*
X148880398Y-69982846D02*
X148880398Y-69887608D01*
X148880398Y-69887608D02*
X148404208Y-69792370D01*
X150880399Y-69459036D02*
X150832780Y-69459036D01*
X150832780Y-69459036D02*
X150737541Y-69506656D01*
X150737541Y-69506656D02*
X150594684Y-69649513D01*
X150594684Y-69649513D02*
X150356589Y-69935227D01*
X150356589Y-69935227D02*
X150261351Y-70078084D01*
X150261351Y-70078084D02*
X150213732Y-70220941D01*
X150213732Y-70220941D02*
X150213732Y-70316179D01*
X150213732Y-70316179D02*
X150261351Y-70411417D01*
X150261351Y-70411417D02*
X150356589Y-70459036D01*
X150356589Y-70459036D02*
X150404208Y-70459036D01*
X150404208Y-70459036D02*
X150499446Y-70411417D01*
X150499446Y-70411417D02*
X150547065Y-70316179D01*
X150547065Y-70316179D02*
X150547065Y-70268560D01*
X150547065Y-70268560D02*
X150499446Y-70173322D01*
X150499446Y-70173322D02*
X150451827Y-70125703D01*
X150451827Y-70125703D02*
X150166113Y-69935227D01*
X150166113Y-69935227D02*
X150118494Y-69887608D01*
X150118494Y-69887608D02*
X150070875Y-69792370D01*
X150070875Y-69792370D02*
X150070875Y-69649513D01*
X150070875Y-69649513D02*
X150118494Y-69554275D01*
X150118494Y-69554275D02*
X150166113Y-69506656D01*
X150166113Y-69506656D02*
X150261351Y-69459036D01*
X150261351Y-69459036D02*
X150404208Y-69459036D01*
X150404208Y-69459036D02*
X150499446Y-69506656D01*
X150499446Y-69506656D02*
X150547065Y-69554275D01*
X150547065Y-69554275D02*
X150689922Y-69744751D01*
X150689922Y-69744751D02*
X150737541Y-69887608D01*
X150737541Y-69887608D02*
X150737541Y-69982846D01*
X152023256Y-69506656D02*
X152166113Y-69459036D01*
X152166113Y-69459036D02*
X152404208Y-69459036D01*
X152404208Y-69459036D02*
X152499446Y-69506656D01*
X152499446Y-69506656D02*
X152547065Y-69554275D01*
X152547065Y-69554275D02*
X152594684Y-69649513D01*
X152594684Y-69649513D02*
X152594684Y-69744751D01*
X152594684Y-69744751D02*
X152547065Y-69839989D01*
X152547065Y-69839989D02*
X152499446Y-69887608D01*
X152499446Y-69887608D02*
X152404208Y-69935227D01*
X152404208Y-69935227D02*
X152213732Y-69982846D01*
X152213732Y-69982846D02*
X152118494Y-70030465D01*
X152118494Y-70030465D02*
X152070875Y-70078084D01*
X152070875Y-70078084D02*
X152023256Y-70173322D01*
X152023256Y-70173322D02*
X152023256Y-70268560D01*
X152023256Y-70268560D02*
X152070875Y-70363798D01*
X152070875Y-70363798D02*
X152118494Y-70411417D01*
X152118494Y-70411417D02*
X152213732Y-70459036D01*
X152213732Y-70459036D02*
X152451827Y-70459036D01*
X152451827Y-70459036D02*
X152594684Y-70411417D01*
X153166113Y-69459036D02*
X153070875Y-69506656D01*
X153070875Y-69506656D02*
X153023256Y-69554275D01*
X153023256Y-69554275D02*
X152975637Y-69649513D01*
X152975637Y-69649513D02*
X152975637Y-69935227D01*
X152975637Y-69935227D02*
X153023256Y-70030465D01*
X153023256Y-70030465D02*
X153070875Y-70078084D01*
X153070875Y-70078084D02*
X153166113Y-70125703D01*
X153166113Y-70125703D02*
X153308970Y-70125703D01*
X153308970Y-70125703D02*
X153404208Y-70078084D01*
X153404208Y-70078084D02*
X153451827Y-70030465D01*
X153451827Y-70030465D02*
X153499446Y-69935227D01*
X153499446Y-69935227D02*
X153499446Y-69649513D01*
X153499446Y-69649513D02*
X153451827Y-69554275D01*
X153451827Y-69554275D02*
X153404208Y-69506656D01*
X153404208Y-69506656D02*
X153308970Y-69459036D01*
X153308970Y-69459036D02*
X153166113Y-69459036D01*
X153785161Y-70125703D02*
X154166113Y-70125703D01*
X153928018Y-69459036D02*
X153928018Y-70316179D01*
X153928018Y-70316179D02*
X153975637Y-70411417D01*
X153975637Y-70411417D02*
X154070875Y-70459036D01*
X154070875Y-70459036D02*
X154166113Y-70459036D01*
X154356590Y-70125703D02*
X154737542Y-70125703D01*
X154499447Y-70459036D02*
X154499447Y-69601894D01*
X154499447Y-69601894D02*
X154547066Y-69506656D01*
X154547066Y-69506656D02*
X154642304Y-69459036D01*
X154642304Y-69459036D02*
X154737542Y-69459036D01*
X154975638Y-70125703D02*
X155166114Y-69459036D01*
X155166114Y-69459036D02*
X155356590Y-69935227D01*
X155356590Y-69935227D02*
X155547066Y-69459036D01*
X155547066Y-69459036D02*
X155737542Y-70125703D01*
X156547066Y-69459036D02*
X156547066Y-69982846D01*
X156547066Y-69982846D02*
X156499447Y-70078084D01*
X156499447Y-70078084D02*
X156404209Y-70125703D01*
X156404209Y-70125703D02*
X156213733Y-70125703D01*
X156213733Y-70125703D02*
X156118495Y-70078084D01*
X156547066Y-69506656D02*
X156451828Y-69459036D01*
X156451828Y-69459036D02*
X156213733Y-69459036D01*
X156213733Y-69459036D02*
X156118495Y-69506656D01*
X156118495Y-69506656D02*
X156070876Y-69601894D01*
X156070876Y-69601894D02*
X156070876Y-69697132D01*
X156070876Y-69697132D02*
X156118495Y-69792370D01*
X156118495Y-69792370D02*
X156213733Y-69839989D01*
X156213733Y-69839989D02*
X156451828Y-69839989D01*
X156451828Y-69839989D02*
X156547066Y-69887608D01*
X157023257Y-69459036D02*
X157023257Y-70125703D01*
X157023257Y-69935227D02*
X157070876Y-70030465D01*
X157070876Y-70030465D02*
X157118495Y-70078084D01*
X157118495Y-70078084D02*
X157213733Y-70125703D01*
X157213733Y-70125703D02*
X157308971Y-70125703D01*
X158023257Y-69506656D02*
X157928019Y-69459036D01*
X157928019Y-69459036D02*
X157737543Y-69459036D01*
X157737543Y-69459036D02*
X157642305Y-69506656D01*
X157642305Y-69506656D02*
X157594686Y-69601894D01*
X157594686Y-69601894D02*
X157594686Y-69982846D01*
X157594686Y-69982846D02*
X157642305Y-70078084D01*
X157642305Y-70078084D02*
X157737543Y-70125703D01*
X157737543Y-70125703D02*
X157928019Y-70125703D01*
X157928019Y-70125703D02*
X158023257Y-70078084D01*
X158023257Y-70078084D02*
X158070876Y-69982846D01*
X158070876Y-69982846D02*
X158070876Y-69887608D01*
X158070876Y-69887608D02*
X157594686Y-69792370D01*
X159689924Y-69459036D02*
X159689924Y-69982846D01*
X159689924Y-69982846D02*
X159642305Y-70078084D01*
X159642305Y-70078084D02*
X159547067Y-70125703D01*
X159547067Y-70125703D02*
X159356591Y-70125703D01*
X159356591Y-70125703D02*
X159261353Y-70078084D01*
X159689924Y-69506656D02*
X159594686Y-69459036D01*
X159594686Y-69459036D02*
X159356591Y-69459036D01*
X159356591Y-69459036D02*
X159261353Y-69506656D01*
X159261353Y-69506656D02*
X159213734Y-69601894D01*
X159213734Y-69601894D02*
X159213734Y-69697132D01*
X159213734Y-69697132D02*
X159261353Y-69792370D01*
X159261353Y-69792370D02*
X159356591Y-69839989D01*
X159356591Y-69839989D02*
X159594686Y-69839989D01*
X159594686Y-69839989D02*
X159689924Y-69887608D01*
X160070877Y-70125703D02*
X160308972Y-69459036D01*
X160308972Y-69459036D02*
X160547067Y-70125703D01*
X161356591Y-69459036D02*
X161356591Y-69982846D01*
X161356591Y-69982846D02*
X161308972Y-70078084D01*
X161308972Y-70078084D02*
X161213734Y-70125703D01*
X161213734Y-70125703D02*
X161023258Y-70125703D01*
X161023258Y-70125703D02*
X160928020Y-70078084D01*
X161356591Y-69506656D02*
X161261353Y-69459036D01*
X161261353Y-69459036D02*
X161023258Y-69459036D01*
X161023258Y-69459036D02*
X160928020Y-69506656D01*
X160928020Y-69506656D02*
X160880401Y-69601894D01*
X160880401Y-69601894D02*
X160880401Y-69697132D01*
X160880401Y-69697132D02*
X160928020Y-69792370D01*
X160928020Y-69792370D02*
X161023258Y-69839989D01*
X161023258Y-69839989D02*
X161261353Y-69839989D01*
X161261353Y-69839989D02*
X161356591Y-69887608D01*
X161832782Y-69459036D02*
X161832782Y-70125703D01*
X161832782Y-70459036D02*
X161785163Y-70411417D01*
X161785163Y-70411417D02*
X161832782Y-70363798D01*
X161832782Y-70363798D02*
X161880401Y-70411417D01*
X161880401Y-70411417D02*
X161832782Y-70459036D01*
X161832782Y-70459036D02*
X161832782Y-70363798D01*
X162451829Y-69459036D02*
X162356591Y-69506656D01*
X162356591Y-69506656D02*
X162308972Y-69601894D01*
X162308972Y-69601894D02*
X162308972Y-70459036D01*
X163261353Y-69459036D02*
X163261353Y-69982846D01*
X163261353Y-69982846D02*
X163213734Y-70078084D01*
X163213734Y-70078084D02*
X163118496Y-70125703D01*
X163118496Y-70125703D02*
X162928020Y-70125703D01*
X162928020Y-70125703D02*
X162832782Y-70078084D01*
X163261353Y-69506656D02*
X163166115Y-69459036D01*
X163166115Y-69459036D02*
X162928020Y-69459036D01*
X162928020Y-69459036D02*
X162832782Y-69506656D01*
X162832782Y-69506656D02*
X162785163Y-69601894D01*
X162785163Y-69601894D02*
X162785163Y-69697132D01*
X162785163Y-69697132D02*
X162832782Y-69792370D01*
X162832782Y-69792370D02*
X162928020Y-69839989D01*
X162928020Y-69839989D02*
X163166115Y-69839989D01*
X163166115Y-69839989D02*
X163261353Y-69887608D01*
X163737544Y-69459036D02*
X163737544Y-70459036D01*
X163737544Y-70078084D02*
X163832782Y-70125703D01*
X163832782Y-70125703D02*
X164023258Y-70125703D01*
X164023258Y-70125703D02*
X164118496Y-70078084D01*
X164118496Y-70078084D02*
X164166115Y-70030465D01*
X164166115Y-70030465D02*
X164213734Y-69935227D01*
X164213734Y-69935227D02*
X164213734Y-69649513D01*
X164213734Y-69649513D02*
X164166115Y-69554275D01*
X164166115Y-69554275D02*
X164118496Y-69506656D01*
X164118496Y-69506656D02*
X164023258Y-69459036D01*
X164023258Y-69459036D02*
X163832782Y-69459036D01*
X163832782Y-69459036D02*
X163737544Y-69506656D01*
X164785163Y-69459036D02*
X164689925Y-69506656D01*
X164689925Y-69506656D02*
X164642306Y-69601894D01*
X164642306Y-69601894D02*
X164642306Y-70459036D01*
X165547068Y-69506656D02*
X165451830Y-69459036D01*
X165451830Y-69459036D02*
X165261354Y-69459036D01*
X165261354Y-69459036D02*
X165166116Y-69506656D01*
X165166116Y-69506656D02*
X165118497Y-69601894D01*
X165118497Y-69601894D02*
X165118497Y-69982846D01*
X165118497Y-69982846D02*
X165166116Y-70078084D01*
X165166116Y-70078084D02*
X165261354Y-70125703D01*
X165261354Y-70125703D02*
X165451830Y-70125703D01*
X165451830Y-70125703D02*
X165547068Y-70078084D01*
X165547068Y-70078084D02*
X165594687Y-69982846D01*
X165594687Y-69982846D02*
X165594687Y-69887608D01*
X165594687Y-69887608D02*
X165118497Y-69792370D01*
X167213735Y-69459036D02*
X167213735Y-69982846D01*
X167213735Y-69982846D02*
X167166116Y-70078084D01*
X167166116Y-70078084D02*
X167070878Y-70125703D01*
X167070878Y-70125703D02*
X166880402Y-70125703D01*
X166880402Y-70125703D02*
X166785164Y-70078084D01*
X167213735Y-69506656D02*
X167118497Y-69459036D01*
X167118497Y-69459036D02*
X166880402Y-69459036D01*
X166880402Y-69459036D02*
X166785164Y-69506656D01*
X166785164Y-69506656D02*
X166737545Y-69601894D01*
X166737545Y-69601894D02*
X166737545Y-69697132D01*
X166737545Y-69697132D02*
X166785164Y-69792370D01*
X166785164Y-69792370D02*
X166880402Y-69839989D01*
X166880402Y-69839989D02*
X167118497Y-69839989D01*
X167118497Y-69839989D02*
X167213735Y-69887608D01*
X167547069Y-70125703D02*
X167928021Y-70125703D01*
X167689926Y-70459036D02*
X167689926Y-69601894D01*
X167689926Y-69601894D02*
X167737545Y-69506656D01*
X167737545Y-69506656D02*
X167832783Y-69459036D01*
X167832783Y-69459036D02*
X167928021Y-69459036D01*
X168261355Y-69554275D02*
X168308974Y-69506656D01*
X168308974Y-69506656D02*
X168261355Y-69459036D01*
X168261355Y-69459036D02*
X168213736Y-69506656D01*
X168213736Y-69506656D02*
X168261355Y-69554275D01*
X168261355Y-69554275D02*
X168261355Y-69459036D01*
X168261355Y-70078084D02*
X168308974Y-70030465D01*
X168308974Y-70030465D02*
X168261355Y-69982846D01*
X168261355Y-69982846D02*
X168213736Y-70030465D01*
X168213736Y-70030465D02*
X168261355Y-70078084D01*
X168261355Y-70078084D02*
X168261355Y-69982846D01*
X143023255Y-68515759D02*
X143023255Y-67706235D01*
X143023255Y-67706235D02*
X142975636Y-67610997D01*
X142975636Y-67610997D02*
X142928017Y-67563378D01*
X142928017Y-67563378D02*
X142832779Y-67515759D01*
X142832779Y-67515759D02*
X142689922Y-67515759D01*
X142689922Y-67515759D02*
X142594684Y-67563378D01*
X143023255Y-67896712D02*
X142928017Y-67849092D01*
X142928017Y-67849092D02*
X142737541Y-67849092D01*
X142737541Y-67849092D02*
X142642303Y-67896712D01*
X142642303Y-67896712D02*
X142594684Y-67944331D01*
X142594684Y-67944331D02*
X142547065Y-68039569D01*
X142547065Y-68039569D02*
X142547065Y-68325283D01*
X142547065Y-68325283D02*
X142594684Y-68420521D01*
X142594684Y-68420521D02*
X142642303Y-68468140D01*
X142642303Y-68468140D02*
X142737541Y-68515759D01*
X142737541Y-68515759D02*
X142928017Y-68515759D01*
X142928017Y-68515759D02*
X143023255Y-68468140D01*
X143499446Y-67849092D02*
X143499446Y-68515759D01*
X143499446Y-68849092D02*
X143451827Y-68801473D01*
X143451827Y-68801473D02*
X143499446Y-68753854D01*
X143499446Y-68753854D02*
X143547065Y-68801473D01*
X143547065Y-68801473D02*
X143499446Y-68849092D01*
X143499446Y-68849092D02*
X143499446Y-68753854D01*
X143832779Y-68515759D02*
X144213731Y-68515759D01*
X143975636Y-68849092D02*
X143975636Y-67991950D01*
X143975636Y-67991950D02*
X144023255Y-67896712D01*
X144023255Y-67896712D02*
X144118493Y-67849092D01*
X144118493Y-67849092D02*
X144213731Y-67849092D01*
X144547065Y-67849092D02*
X144547065Y-68849092D01*
X144975636Y-67849092D02*
X144975636Y-68372902D01*
X144975636Y-68372902D02*
X144928017Y-68468140D01*
X144928017Y-68468140D02*
X144832779Y-68515759D01*
X144832779Y-68515759D02*
X144689922Y-68515759D01*
X144689922Y-68515759D02*
X144594684Y-68468140D01*
X144594684Y-68468140D02*
X144547065Y-68420521D01*
X145880398Y-68515759D02*
X145880398Y-67849092D01*
X145451827Y-68515759D02*
X145451827Y-67991950D01*
X145451827Y-67991950D02*
X145499446Y-67896712D01*
X145499446Y-67896712D02*
X145594684Y-67849092D01*
X145594684Y-67849092D02*
X145737541Y-67849092D01*
X145737541Y-67849092D02*
X145832779Y-67896712D01*
X145832779Y-67896712D02*
X145880398Y-67944331D01*
X146356589Y-67849092D02*
X146356589Y-68849092D01*
X146356589Y-68468140D02*
X146451827Y-68515759D01*
X146451827Y-68515759D02*
X146642303Y-68515759D01*
X146642303Y-68515759D02*
X146737541Y-68468140D01*
X146737541Y-68468140D02*
X146785160Y-68420521D01*
X146785160Y-68420521D02*
X146832779Y-68325283D01*
X146832779Y-68325283D02*
X146832779Y-68039569D01*
X146832779Y-68039569D02*
X146785160Y-67944331D01*
X146785160Y-67944331D02*
X146737541Y-67896712D01*
X146737541Y-67896712D02*
X146642303Y-67849092D01*
X146642303Y-67849092D02*
X146451827Y-67849092D01*
X146451827Y-67849092D02*
X146356589Y-67896712D01*
X147261351Y-67944331D02*
X147308970Y-67896712D01*
X147308970Y-67896712D02*
X147261351Y-67849092D01*
X147261351Y-67849092D02*
X147213732Y-67896712D01*
X147213732Y-67896712D02*
X147261351Y-67944331D01*
X147261351Y-67944331D02*
X147261351Y-67849092D01*
X148166112Y-67896712D02*
X148070874Y-67849092D01*
X148070874Y-67849092D02*
X147880398Y-67849092D01*
X147880398Y-67849092D02*
X147785160Y-67896712D01*
X147785160Y-67896712D02*
X147737541Y-67944331D01*
X147737541Y-67944331D02*
X147689922Y-68039569D01*
X147689922Y-68039569D02*
X147689922Y-68325283D01*
X147689922Y-68325283D02*
X147737541Y-68420521D01*
X147737541Y-68420521D02*
X147785160Y-68468140D01*
X147785160Y-68468140D02*
X147880398Y-68515759D01*
X147880398Y-68515759D02*
X148070874Y-68515759D01*
X148070874Y-68515759D02*
X148166112Y-68468140D01*
X148737541Y-67849092D02*
X148642303Y-67896712D01*
X148642303Y-67896712D02*
X148594684Y-67944331D01*
X148594684Y-67944331D02*
X148547065Y-68039569D01*
X148547065Y-68039569D02*
X148547065Y-68325283D01*
X148547065Y-68325283D02*
X148594684Y-68420521D01*
X148594684Y-68420521D02*
X148642303Y-68468140D01*
X148642303Y-68468140D02*
X148737541Y-68515759D01*
X148737541Y-68515759D02*
X148880398Y-68515759D01*
X148880398Y-68515759D02*
X148975636Y-68468140D01*
X148975636Y-68468140D02*
X149023255Y-68420521D01*
X149023255Y-68420521D02*
X149070874Y-68325283D01*
X149070874Y-68325283D02*
X149070874Y-68039569D01*
X149070874Y-68039569D02*
X149023255Y-67944331D01*
X149023255Y-67944331D02*
X148975636Y-67896712D01*
X148975636Y-67896712D02*
X148880398Y-67849092D01*
X148880398Y-67849092D02*
X148737541Y-67849092D01*
X149499446Y-67849092D02*
X149499446Y-68515759D01*
X149499446Y-68420521D02*
X149547065Y-68468140D01*
X149547065Y-68468140D02*
X149642303Y-68515759D01*
X149642303Y-68515759D02*
X149785160Y-68515759D01*
X149785160Y-68515759D02*
X149880398Y-68468140D01*
X149880398Y-68468140D02*
X149928017Y-68372902D01*
X149928017Y-68372902D02*
X149928017Y-67849092D01*
X149928017Y-68372902D02*
X149975636Y-68468140D01*
X149975636Y-68468140D02*
X150070874Y-68515759D01*
X150070874Y-68515759D02*
X150213731Y-68515759D01*
X150213731Y-68515759D02*
X150308970Y-68468140D01*
X150308970Y-68468140D02*
X150356589Y-68372902D01*
X150356589Y-68372902D02*
X150356589Y-67849092D01*
X151547064Y-68896712D02*
X150689922Y-67610997D01*
X152308969Y-68515759D02*
X152308969Y-67706235D01*
X152308969Y-67706235D02*
X152261350Y-67610997D01*
X152261350Y-67610997D02*
X152213731Y-67563378D01*
X152213731Y-67563378D02*
X152118493Y-67515759D01*
X152118493Y-67515759D02*
X151975636Y-67515759D01*
X151975636Y-67515759D02*
X151880398Y-67563378D01*
X152308969Y-67896712D02*
X152213731Y-67849092D01*
X152213731Y-67849092D02*
X152023255Y-67849092D01*
X152023255Y-67849092D02*
X151928017Y-67896712D01*
X151928017Y-67896712D02*
X151880398Y-67944331D01*
X151880398Y-67944331D02*
X151832779Y-68039569D01*
X151832779Y-68039569D02*
X151832779Y-68325283D01*
X151832779Y-68325283D02*
X151880398Y-68420521D01*
X151880398Y-68420521D02*
X151928017Y-68468140D01*
X151928017Y-68468140D02*
X152023255Y-68515759D01*
X152023255Y-68515759D02*
X152213731Y-68515759D01*
X152213731Y-68515759D02*
X152308969Y-68468140D01*
X153213731Y-68515759D02*
X153213731Y-67849092D01*
X152785160Y-68515759D02*
X152785160Y-67991950D01*
X152785160Y-67991950D02*
X152832779Y-67896712D01*
X152832779Y-67896712D02*
X152928017Y-67849092D01*
X152928017Y-67849092D02*
X153070874Y-67849092D01*
X153070874Y-67849092D02*
X153166112Y-67896712D01*
X153166112Y-67896712D02*
X153213731Y-67944331D01*
X153642303Y-67896712D02*
X153737541Y-67849092D01*
X153737541Y-67849092D02*
X153928017Y-67849092D01*
X153928017Y-67849092D02*
X154023255Y-67896712D01*
X154023255Y-67896712D02*
X154070874Y-67991950D01*
X154070874Y-67991950D02*
X154070874Y-68039569D01*
X154070874Y-68039569D02*
X154023255Y-68134807D01*
X154023255Y-68134807D02*
X153928017Y-68182426D01*
X153928017Y-68182426D02*
X153785160Y-68182426D01*
X153785160Y-68182426D02*
X153689922Y-68230045D01*
X153689922Y-68230045D02*
X153642303Y-68325283D01*
X153642303Y-68325283D02*
X153642303Y-68372902D01*
X153642303Y-68372902D02*
X153689922Y-68468140D01*
X153689922Y-68468140D02*
X153785160Y-68515759D01*
X153785160Y-68515759D02*
X153928017Y-68515759D01*
X153928017Y-68515759D02*
X154023255Y-68468140D01*
X154499446Y-67849092D02*
X154499446Y-68515759D01*
X154499446Y-68420521D02*
X154547065Y-68468140D01*
X154547065Y-68468140D02*
X154642303Y-68515759D01*
X154642303Y-68515759D02*
X154785160Y-68515759D01*
X154785160Y-68515759D02*
X154880398Y-68468140D01*
X154880398Y-68468140D02*
X154928017Y-68372902D01*
X154928017Y-68372902D02*
X154928017Y-67849092D01*
X154928017Y-68372902D02*
X154975636Y-68468140D01*
X154975636Y-68468140D02*
X155070874Y-68515759D01*
X155070874Y-68515759D02*
X155213731Y-68515759D01*
X155213731Y-68515759D02*
X155308970Y-68468140D01*
X155308970Y-68468140D02*
X155356589Y-68372902D01*
X155356589Y-68372902D02*
X155356589Y-67849092D01*
X156261350Y-67849092D02*
X156261350Y-68372902D01*
X156261350Y-68372902D02*
X156213731Y-68468140D01*
X156213731Y-68468140D02*
X156118493Y-68515759D01*
X156118493Y-68515759D02*
X155928017Y-68515759D01*
X155928017Y-68515759D02*
X155832779Y-68468140D01*
X156261350Y-67896712D02*
X156166112Y-67849092D01*
X156166112Y-67849092D02*
X155928017Y-67849092D01*
X155928017Y-67849092D02*
X155832779Y-67896712D01*
X155832779Y-67896712D02*
X155785160Y-67991950D01*
X155785160Y-67991950D02*
X155785160Y-68087188D01*
X155785160Y-68087188D02*
X155832779Y-68182426D01*
X155832779Y-68182426D02*
X155928017Y-68230045D01*
X155928017Y-68230045D02*
X156166112Y-68230045D01*
X156166112Y-68230045D02*
X156261350Y-68277664D01*
X156737541Y-68515759D02*
X156737541Y-67849092D01*
X156737541Y-68420521D02*
X156785160Y-68468140D01*
X156785160Y-68468140D02*
X156880398Y-68515759D01*
X156880398Y-68515759D02*
X157023255Y-68515759D01*
X157023255Y-68515759D02*
X157118493Y-68468140D01*
X157118493Y-68468140D02*
X157166112Y-68372902D01*
X157166112Y-68372902D02*
X157166112Y-67849092D01*
X157642303Y-67849092D02*
X157642303Y-68849092D01*
X157642303Y-68468140D02*
X157737541Y-68515759D01*
X157737541Y-68515759D02*
X157928017Y-68515759D01*
X157928017Y-68515759D02*
X158023255Y-68468140D01*
X158023255Y-68468140D02*
X158070874Y-68420521D01*
X158070874Y-68420521D02*
X158118493Y-68325283D01*
X158118493Y-68325283D02*
X158118493Y-68039569D01*
X158118493Y-68039569D02*
X158070874Y-67944331D01*
X158070874Y-67944331D02*
X158023255Y-67896712D01*
X158023255Y-67896712D02*
X157928017Y-67849092D01*
X157928017Y-67849092D02*
X157737541Y-67849092D01*
X157737541Y-67849092D02*
X157642303Y-67896712D01*
X159261350Y-68896712D02*
X158404208Y-67610997D01*
X159737541Y-67849092D02*
X159642303Y-67896712D01*
X159642303Y-67896712D02*
X159594684Y-67991950D01*
X159594684Y-67991950D02*
X159594684Y-68849092D01*
X160261351Y-67849092D02*
X160166113Y-67896712D01*
X160166113Y-67896712D02*
X160118494Y-67944331D01*
X160118494Y-67944331D02*
X160070875Y-68039569D01*
X160070875Y-68039569D02*
X160070875Y-68325283D01*
X160070875Y-68325283D02*
X160118494Y-68420521D01*
X160118494Y-68420521D02*
X160166113Y-68468140D01*
X160166113Y-68468140D02*
X160261351Y-68515759D01*
X160261351Y-68515759D02*
X160404208Y-68515759D01*
X160404208Y-68515759D02*
X160499446Y-68468140D01*
X160499446Y-68468140D02*
X160547065Y-68420521D01*
X160547065Y-68420521D02*
X160594684Y-68325283D01*
X160594684Y-68325283D02*
X160594684Y-68039569D01*
X160594684Y-68039569D02*
X160547065Y-67944331D01*
X160547065Y-67944331D02*
X160499446Y-67896712D01*
X160499446Y-67896712D02*
X160404208Y-67849092D01*
X160404208Y-67849092D02*
X160261351Y-67849092D01*
X161451827Y-68515759D02*
X161451827Y-67706235D01*
X161451827Y-67706235D02*
X161404208Y-67610997D01*
X161404208Y-67610997D02*
X161356589Y-67563378D01*
X161356589Y-67563378D02*
X161261351Y-67515759D01*
X161261351Y-67515759D02*
X161118494Y-67515759D01*
X161118494Y-67515759D02*
X161023256Y-67563378D01*
X161451827Y-67896712D02*
X161356589Y-67849092D01*
X161356589Y-67849092D02*
X161166113Y-67849092D01*
X161166113Y-67849092D02*
X161070875Y-67896712D01*
X161070875Y-67896712D02*
X161023256Y-67944331D01*
X161023256Y-67944331D02*
X160975637Y-68039569D01*
X160975637Y-68039569D02*
X160975637Y-68325283D01*
X160975637Y-68325283D02*
X161023256Y-68420521D01*
X161023256Y-68420521D02*
X161070875Y-68468140D01*
X161070875Y-68468140D02*
X161166113Y-68515759D01*
X161166113Y-68515759D02*
X161356589Y-68515759D01*
X161356589Y-68515759D02*
X161451827Y-68468140D01*
X161928018Y-67849092D02*
X161928018Y-68515759D01*
X161928018Y-68849092D02*
X161880399Y-68801473D01*
X161880399Y-68801473D02*
X161928018Y-68753854D01*
X161928018Y-68753854D02*
X161975637Y-68801473D01*
X161975637Y-68801473D02*
X161928018Y-68849092D01*
X161928018Y-68849092D02*
X161928018Y-68753854D01*
X162832779Y-67896712D02*
X162737541Y-67849092D01*
X162737541Y-67849092D02*
X162547065Y-67849092D01*
X162547065Y-67849092D02*
X162451827Y-67896712D01*
X162451827Y-67896712D02*
X162404208Y-67944331D01*
X162404208Y-67944331D02*
X162356589Y-68039569D01*
X162356589Y-68039569D02*
X162356589Y-68325283D01*
X162356589Y-68325283D02*
X162404208Y-68420521D01*
X162404208Y-68420521D02*
X162451827Y-68468140D01*
X162451827Y-68468140D02*
X162547065Y-68515759D01*
X162547065Y-68515759D02*
X162737541Y-68515759D01*
X162737541Y-68515759D02*
X162832779Y-68468140D01*
X163689922Y-67849092D02*
X163689922Y-68372902D01*
X163689922Y-68372902D02*
X163642303Y-68468140D01*
X163642303Y-68468140D02*
X163547065Y-68515759D01*
X163547065Y-68515759D02*
X163356589Y-68515759D01*
X163356589Y-68515759D02*
X163261351Y-68468140D01*
X163689922Y-67896712D02*
X163594684Y-67849092D01*
X163594684Y-67849092D02*
X163356589Y-67849092D01*
X163356589Y-67849092D02*
X163261351Y-67896712D01*
X163261351Y-67896712D02*
X163213732Y-67991950D01*
X163213732Y-67991950D02*
X163213732Y-68087188D01*
X163213732Y-68087188D02*
X163261351Y-68182426D01*
X163261351Y-68182426D02*
X163356589Y-68230045D01*
X163356589Y-68230045D02*
X163594684Y-68230045D01*
X163594684Y-68230045D02*
X163689922Y-68277664D01*
X164166113Y-68515759D02*
X164166113Y-67849092D01*
X164166113Y-68420521D02*
X164213732Y-68468140D01*
X164213732Y-68468140D02*
X164308970Y-68515759D01*
X164308970Y-68515759D02*
X164451827Y-68515759D01*
X164451827Y-68515759D02*
X164547065Y-68468140D01*
X164547065Y-68468140D02*
X164594684Y-68372902D01*
X164594684Y-68372902D02*
X164594684Y-67849092D01*
X165499446Y-67849092D02*
X165499446Y-68372902D01*
X165499446Y-68372902D02*
X165451827Y-68468140D01*
X165451827Y-68468140D02*
X165356589Y-68515759D01*
X165356589Y-68515759D02*
X165166113Y-68515759D01*
X165166113Y-68515759D02*
X165070875Y-68468140D01*
X165499446Y-67896712D02*
X165404208Y-67849092D01*
X165404208Y-67849092D02*
X165166113Y-67849092D01*
X165166113Y-67849092D02*
X165070875Y-67896712D01*
X165070875Y-67896712D02*
X165023256Y-67991950D01*
X165023256Y-67991950D02*
X165023256Y-68087188D01*
X165023256Y-68087188D02*
X165070875Y-68182426D01*
X165070875Y-68182426D02*
X165166113Y-68230045D01*
X165166113Y-68230045D02*
X165404208Y-68230045D01*
X165404208Y-68230045D02*
X165499446Y-68277664D01*
X166118494Y-67849092D02*
X166023256Y-67896712D01*
X166023256Y-67896712D02*
X165975637Y-67991950D01*
X165975637Y-67991950D02*
X165975637Y-68849092D01*
X166404209Y-68515759D02*
X166642304Y-67849092D01*
X166880399Y-68515759D02*
X166642304Y-67849092D01*
X166642304Y-67849092D02*
X166547066Y-67610997D01*
X166547066Y-67610997D02*
X166499447Y-67563378D01*
X166499447Y-67563378D02*
X166404209Y-67515759D01*
X167166114Y-68515759D02*
X167689923Y-68515759D01*
X167689923Y-68515759D02*
X167166114Y-67849092D01*
X167166114Y-67849092D02*
X167689923Y-67849092D01*
X168451828Y-67896712D02*
X168356590Y-67849092D01*
X168356590Y-67849092D02*
X168166114Y-67849092D01*
X168166114Y-67849092D02*
X168070876Y-67896712D01*
X168070876Y-67896712D02*
X168023257Y-67991950D01*
X168023257Y-67991950D02*
X168023257Y-68372902D01*
X168023257Y-68372902D02*
X168070876Y-68468140D01*
X168070876Y-68468140D02*
X168166114Y-68515759D01*
X168166114Y-68515759D02*
X168356590Y-68515759D01*
X168356590Y-68515759D02*
X168451828Y-68468140D01*
X168451828Y-68468140D02*
X168499447Y-68372902D01*
X168499447Y-68372902D02*
X168499447Y-68277664D01*
X168499447Y-68277664D02*
X168023257Y-68182426D01*
X168928019Y-67849092D02*
X168928019Y-68515759D01*
X168928019Y-68325283D02*
X168975638Y-68420521D01*
X168975638Y-68420521D02*
X169023257Y-68468140D01*
X169023257Y-68468140D02*
X169118495Y-68515759D01*
X169118495Y-68515759D02*
X169213733Y-68515759D01*
D11*
X83326653Y-107414528D02*
X83255225Y-107343100D01*
X83255225Y-107343100D02*
X83040939Y-107271671D01*
X83040939Y-107271671D02*
X82898082Y-107271671D01*
X82898082Y-107271671D02*
X82683796Y-107343100D01*
X82683796Y-107343100D02*
X82540939Y-107485957D01*
X82540939Y-107485957D02*
X82469510Y-107628814D01*
X82469510Y-107628814D02*
X82398082Y-107914528D01*
X82398082Y-107914528D02*
X82398082Y-108128814D01*
X82398082Y-108128814D02*
X82469510Y-108414528D01*
X82469510Y-108414528D02*
X82540939Y-108557385D01*
X82540939Y-108557385D02*
X82683796Y-108700242D01*
X82683796Y-108700242D02*
X82898082Y-108771671D01*
X82898082Y-108771671D02*
X83040939Y-108771671D01*
X83040939Y-108771671D02*
X83255225Y-108700242D01*
X83255225Y-108700242D02*
X83326653Y-108628814D01*
X83969510Y-107271671D02*
X83969510Y-108771671D01*
X83969510Y-108057385D02*
X84826653Y-108057385D01*
X84826653Y-107271671D02*
X84826653Y-108771671D01*
X86326654Y-107271671D02*
X85469511Y-107271671D01*
X85898082Y-107271671D02*
X85898082Y-108771671D01*
X85898082Y-108771671D02*
X85755225Y-108557385D01*
X85755225Y-108557385D02*
X85612368Y-108414528D01*
X85612368Y-108414528D02*
X85469511Y-108343100D01*
X86826653Y-108771671D02*
X87755225Y-108771671D01*
X87755225Y-108771671D02*
X87255225Y-108200242D01*
X87255225Y-108200242D02*
X87469510Y-108200242D01*
X87469510Y-108200242D02*
X87612368Y-108128814D01*
X87612368Y-108128814D02*
X87683796Y-108057385D01*
X87683796Y-108057385D02*
X87755225Y-107914528D01*
X87755225Y-107914528D02*
X87755225Y-107557385D01*
X87755225Y-107557385D02*
X87683796Y-107414528D01*
X87683796Y-107414528D02*
X87612368Y-107343100D01*
X87612368Y-107343100D02*
X87469510Y-107271671D01*
X87469510Y-107271671D02*
X87040939Y-107271671D01*
X87040939Y-107271671D02*
X86898082Y-107343100D01*
X86898082Y-107343100D02*
X86826653Y-107414528D01*
X83326653Y-84554528D02*
X83255225Y-84483100D01*
X83255225Y-84483100D02*
X83040939Y-84411671D01*
X83040939Y-84411671D02*
X82898082Y-84411671D01*
X82898082Y-84411671D02*
X82683796Y-84483100D01*
X82683796Y-84483100D02*
X82540939Y-84625957D01*
X82540939Y-84625957D02*
X82469510Y-84768814D01*
X82469510Y-84768814D02*
X82398082Y-85054528D01*
X82398082Y-85054528D02*
X82398082Y-85268814D01*
X82398082Y-85268814D02*
X82469510Y-85554528D01*
X82469510Y-85554528D02*
X82540939Y-85697385D01*
X82540939Y-85697385D02*
X82683796Y-85840242D01*
X82683796Y-85840242D02*
X82898082Y-85911671D01*
X82898082Y-85911671D02*
X83040939Y-85911671D01*
X83040939Y-85911671D02*
X83255225Y-85840242D01*
X83255225Y-85840242D02*
X83326653Y-85768814D01*
X83969510Y-84411671D02*
X83969510Y-85911671D01*
X83969510Y-85197385D02*
X84826653Y-85197385D01*
X84826653Y-84411671D02*
X84826653Y-85911671D01*
X86255225Y-85911671D02*
X85540939Y-85911671D01*
X85540939Y-85911671D02*
X85469511Y-85197385D01*
X85469511Y-85197385D02*
X85540939Y-85268814D01*
X85540939Y-85268814D02*
X85683797Y-85340242D01*
X85683797Y-85340242D02*
X86040939Y-85340242D01*
X86040939Y-85340242D02*
X86183797Y-85268814D01*
X86183797Y-85268814D02*
X86255225Y-85197385D01*
X86255225Y-85197385D02*
X86326654Y-85054528D01*
X86326654Y-85054528D02*
X86326654Y-84697385D01*
X86326654Y-84697385D02*
X86255225Y-84554528D01*
X86255225Y-84554528D02*
X86183797Y-84483100D01*
X86183797Y-84483100D02*
X86040939Y-84411671D01*
X86040939Y-84411671D02*
X85683797Y-84411671D01*
X85683797Y-84411671D02*
X85540939Y-84483100D01*
X85540939Y-84483100D02*
X85469511Y-84554528D01*
X170999060Y-113780242D02*
X170856203Y-113851671D01*
X170856203Y-113851671D02*
X170641917Y-113851671D01*
X170641917Y-113851671D02*
X170427631Y-113780242D01*
X170427631Y-113780242D02*
X170284774Y-113637385D01*
X170284774Y-113637385D02*
X170213345Y-113494528D01*
X170213345Y-113494528D02*
X170141917Y-113208814D01*
X170141917Y-113208814D02*
X170141917Y-112994528D01*
X170141917Y-112994528D02*
X170213345Y-112708814D01*
X170213345Y-112708814D02*
X170284774Y-112565957D01*
X170284774Y-112565957D02*
X170427631Y-112423100D01*
X170427631Y-112423100D02*
X170641917Y-112351671D01*
X170641917Y-112351671D02*
X170784774Y-112351671D01*
X170784774Y-112351671D02*
X170999060Y-112423100D01*
X170999060Y-112423100D02*
X171070488Y-112494528D01*
X171070488Y-112494528D02*
X171070488Y-112994528D01*
X171070488Y-112994528D02*
X170784774Y-112994528D01*
X171713345Y-112351671D02*
X171713345Y-113851671D01*
X171713345Y-113851671D02*
X172570488Y-112351671D01*
X172570488Y-112351671D02*
X172570488Y-113851671D01*
X173284774Y-112351671D02*
X173284774Y-113851671D01*
X173284774Y-113851671D02*
X173641917Y-113851671D01*
X173641917Y-113851671D02*
X173856203Y-113780242D01*
X173856203Y-113780242D02*
X173999060Y-113637385D01*
X173999060Y-113637385D02*
X174070489Y-113494528D01*
X174070489Y-113494528D02*
X174141917Y-113208814D01*
X174141917Y-113208814D02*
X174141917Y-112994528D01*
X174141917Y-112994528D02*
X174070489Y-112708814D01*
X174070489Y-112708814D02*
X173999060Y-112565957D01*
X173999060Y-112565957D02*
X173856203Y-112423100D01*
X173856203Y-112423100D02*
X173641917Y-112351671D01*
X173641917Y-112351671D02*
X173284774Y-112351671D01*
X83255225Y-113780242D02*
X83112368Y-113851671D01*
X83112368Y-113851671D02*
X82898082Y-113851671D01*
X82898082Y-113851671D02*
X82683796Y-113780242D01*
X82683796Y-113780242D02*
X82540939Y-113637385D01*
X82540939Y-113637385D02*
X82469510Y-113494528D01*
X82469510Y-113494528D02*
X82398082Y-113208814D01*
X82398082Y-113208814D02*
X82398082Y-112994528D01*
X82398082Y-112994528D02*
X82469510Y-112708814D01*
X82469510Y-112708814D02*
X82540939Y-112565957D01*
X82540939Y-112565957D02*
X82683796Y-112423100D01*
X82683796Y-112423100D02*
X82898082Y-112351671D01*
X82898082Y-112351671D02*
X83040939Y-112351671D01*
X83040939Y-112351671D02*
X83255225Y-112423100D01*
X83255225Y-112423100D02*
X83326653Y-112494528D01*
X83326653Y-112494528D02*
X83326653Y-112994528D01*
X83326653Y-112994528D02*
X83040939Y-112994528D01*
X83969510Y-112351671D02*
X83969510Y-113851671D01*
X83969510Y-113851671D02*
X84826653Y-112351671D01*
X84826653Y-112351671D02*
X84826653Y-113851671D01*
X85540939Y-112351671D02*
X85540939Y-113851671D01*
X85540939Y-113851671D02*
X85898082Y-113851671D01*
X85898082Y-113851671D02*
X86112368Y-113780242D01*
X86112368Y-113780242D02*
X86255225Y-113637385D01*
X86255225Y-113637385D02*
X86326654Y-113494528D01*
X86326654Y-113494528D02*
X86398082Y-113208814D01*
X86398082Y-113208814D02*
X86398082Y-112994528D01*
X86398082Y-112994528D02*
X86326654Y-112708814D01*
X86326654Y-112708814D02*
X86255225Y-112565957D01*
X86255225Y-112565957D02*
X86112368Y-112423100D01*
X86112368Y-112423100D02*
X85898082Y-112351671D01*
X85898082Y-112351671D02*
X85540939Y-112351671D01*
X169713346Y-84554528D02*
X169641918Y-84483100D01*
X169641918Y-84483100D02*
X169427632Y-84411671D01*
X169427632Y-84411671D02*
X169284775Y-84411671D01*
X169284775Y-84411671D02*
X169070489Y-84483100D01*
X169070489Y-84483100D02*
X168927632Y-84625957D01*
X168927632Y-84625957D02*
X168856203Y-84768814D01*
X168856203Y-84768814D02*
X168784775Y-85054528D01*
X168784775Y-85054528D02*
X168784775Y-85268814D01*
X168784775Y-85268814D02*
X168856203Y-85554528D01*
X168856203Y-85554528D02*
X168927632Y-85697385D01*
X168927632Y-85697385D02*
X169070489Y-85840242D01*
X169070489Y-85840242D02*
X169284775Y-85911671D01*
X169284775Y-85911671D02*
X169427632Y-85911671D01*
X169427632Y-85911671D02*
X169641918Y-85840242D01*
X169641918Y-85840242D02*
X169713346Y-85768814D01*
X170356203Y-84411671D02*
X170356203Y-85911671D01*
X170356203Y-85197385D02*
X171213346Y-85197385D01*
X171213346Y-84411671D02*
X171213346Y-85911671D01*
X171856204Y-85768814D02*
X171927632Y-85840242D01*
X171927632Y-85840242D02*
X172070490Y-85911671D01*
X172070490Y-85911671D02*
X172427632Y-85911671D01*
X172427632Y-85911671D02*
X172570490Y-85840242D01*
X172570490Y-85840242D02*
X172641918Y-85768814D01*
X172641918Y-85768814D02*
X172713347Y-85625957D01*
X172713347Y-85625957D02*
X172713347Y-85483100D01*
X172713347Y-85483100D02*
X172641918Y-85268814D01*
X172641918Y-85268814D02*
X171784775Y-84411671D01*
X171784775Y-84411671D02*
X172713347Y-84411671D01*
X173284775Y-85768814D02*
X173356203Y-85840242D01*
X173356203Y-85840242D02*
X173499061Y-85911671D01*
X173499061Y-85911671D02*
X173856203Y-85911671D01*
X173856203Y-85911671D02*
X173999061Y-85840242D01*
X173999061Y-85840242D02*
X174070489Y-85768814D01*
X174070489Y-85768814D02*
X174141918Y-85625957D01*
X174141918Y-85625957D02*
X174141918Y-85483100D01*
X174141918Y-85483100D02*
X174070489Y-85268814D01*
X174070489Y-85268814D02*
X173213346Y-84411671D01*
X173213346Y-84411671D02*
X174141918Y-84411671D01*
X83326653Y-102334528D02*
X83255225Y-102263100D01*
X83255225Y-102263100D02*
X83040939Y-102191671D01*
X83040939Y-102191671D02*
X82898082Y-102191671D01*
X82898082Y-102191671D02*
X82683796Y-102263100D01*
X82683796Y-102263100D02*
X82540939Y-102405957D01*
X82540939Y-102405957D02*
X82469510Y-102548814D01*
X82469510Y-102548814D02*
X82398082Y-102834528D01*
X82398082Y-102834528D02*
X82398082Y-103048814D01*
X82398082Y-103048814D02*
X82469510Y-103334528D01*
X82469510Y-103334528D02*
X82540939Y-103477385D01*
X82540939Y-103477385D02*
X82683796Y-103620242D01*
X82683796Y-103620242D02*
X82898082Y-103691671D01*
X82898082Y-103691671D02*
X83040939Y-103691671D01*
X83040939Y-103691671D02*
X83255225Y-103620242D01*
X83255225Y-103620242D02*
X83326653Y-103548814D01*
X83969510Y-102191671D02*
X83969510Y-103691671D01*
X83969510Y-102977385D02*
X84826653Y-102977385D01*
X84826653Y-102191671D02*
X84826653Y-103691671D01*
X86326654Y-102191671D02*
X85469511Y-102191671D01*
X85898082Y-102191671D02*
X85898082Y-103691671D01*
X85898082Y-103691671D02*
X85755225Y-103477385D01*
X85755225Y-103477385D02*
X85612368Y-103334528D01*
X85612368Y-103334528D02*
X85469511Y-103263100D01*
X87755225Y-102191671D02*
X86898082Y-102191671D01*
X87326653Y-102191671D02*
X87326653Y-103691671D01*
X87326653Y-103691671D02*
X87183796Y-103477385D01*
X87183796Y-103477385D02*
X87040939Y-103334528D01*
X87040939Y-103334528D02*
X86898082Y-103263100D01*
X169713346Y-82014528D02*
X169641918Y-81943100D01*
X169641918Y-81943100D02*
X169427632Y-81871671D01*
X169427632Y-81871671D02*
X169284775Y-81871671D01*
X169284775Y-81871671D02*
X169070489Y-81943100D01*
X169070489Y-81943100D02*
X168927632Y-82085957D01*
X168927632Y-82085957D02*
X168856203Y-82228814D01*
X168856203Y-82228814D02*
X168784775Y-82514528D01*
X168784775Y-82514528D02*
X168784775Y-82728814D01*
X168784775Y-82728814D02*
X168856203Y-83014528D01*
X168856203Y-83014528D02*
X168927632Y-83157385D01*
X168927632Y-83157385D02*
X169070489Y-83300242D01*
X169070489Y-83300242D02*
X169284775Y-83371671D01*
X169284775Y-83371671D02*
X169427632Y-83371671D01*
X169427632Y-83371671D02*
X169641918Y-83300242D01*
X169641918Y-83300242D02*
X169713346Y-83228814D01*
X170356203Y-81871671D02*
X170356203Y-83371671D01*
X170356203Y-82657385D02*
X171213346Y-82657385D01*
X171213346Y-81871671D02*
X171213346Y-83371671D01*
X171856204Y-83228814D02*
X171927632Y-83300242D01*
X171927632Y-83300242D02*
X172070490Y-83371671D01*
X172070490Y-83371671D02*
X172427632Y-83371671D01*
X172427632Y-83371671D02*
X172570490Y-83300242D01*
X172570490Y-83300242D02*
X172641918Y-83228814D01*
X172641918Y-83228814D02*
X172713347Y-83085957D01*
X172713347Y-83085957D02*
X172713347Y-82943100D01*
X172713347Y-82943100D02*
X172641918Y-82728814D01*
X172641918Y-82728814D02*
X171784775Y-81871671D01*
X171784775Y-81871671D02*
X172713347Y-81871671D01*
X173213346Y-83371671D02*
X174141918Y-83371671D01*
X174141918Y-83371671D02*
X173641918Y-82800242D01*
X173641918Y-82800242D02*
X173856203Y-82800242D01*
X173856203Y-82800242D02*
X173999061Y-82728814D01*
X173999061Y-82728814D02*
X174070489Y-82657385D01*
X174070489Y-82657385D02*
X174141918Y-82514528D01*
X174141918Y-82514528D02*
X174141918Y-82157385D01*
X174141918Y-82157385D02*
X174070489Y-82014528D01*
X174070489Y-82014528D02*
X173999061Y-81943100D01*
X173999061Y-81943100D02*
X173856203Y-81871671D01*
X173856203Y-81871671D02*
X173427632Y-81871671D01*
X173427632Y-81871671D02*
X173284775Y-81943100D01*
X173284775Y-81943100D02*
X173213346Y-82014528D01*
X169713346Y-104874528D02*
X169641918Y-104803100D01*
X169641918Y-104803100D02*
X169427632Y-104731671D01*
X169427632Y-104731671D02*
X169284775Y-104731671D01*
X169284775Y-104731671D02*
X169070489Y-104803100D01*
X169070489Y-104803100D02*
X168927632Y-104945957D01*
X168927632Y-104945957D02*
X168856203Y-105088814D01*
X168856203Y-105088814D02*
X168784775Y-105374528D01*
X168784775Y-105374528D02*
X168784775Y-105588814D01*
X168784775Y-105588814D02*
X168856203Y-105874528D01*
X168856203Y-105874528D02*
X168927632Y-106017385D01*
X168927632Y-106017385D02*
X169070489Y-106160242D01*
X169070489Y-106160242D02*
X169284775Y-106231671D01*
X169284775Y-106231671D02*
X169427632Y-106231671D01*
X169427632Y-106231671D02*
X169641918Y-106160242D01*
X169641918Y-106160242D02*
X169713346Y-106088814D01*
X170356203Y-104731671D02*
X170356203Y-106231671D01*
X170356203Y-105517385D02*
X171213346Y-105517385D01*
X171213346Y-104731671D02*
X171213346Y-106231671D01*
X172713347Y-104731671D02*
X171856204Y-104731671D01*
X172284775Y-104731671D02*
X172284775Y-106231671D01*
X172284775Y-106231671D02*
X172141918Y-106017385D01*
X172141918Y-106017385D02*
X171999061Y-105874528D01*
X171999061Y-105874528D02*
X171856204Y-105803100D01*
X173213346Y-106231671D02*
X174213346Y-106231671D01*
X174213346Y-106231671D02*
X173570489Y-104731671D01*
X169713346Y-97254528D02*
X169641918Y-97183100D01*
X169641918Y-97183100D02*
X169427632Y-97111671D01*
X169427632Y-97111671D02*
X169284775Y-97111671D01*
X169284775Y-97111671D02*
X169070489Y-97183100D01*
X169070489Y-97183100D02*
X168927632Y-97325957D01*
X168927632Y-97325957D02*
X168856203Y-97468814D01*
X168856203Y-97468814D02*
X168784775Y-97754528D01*
X168784775Y-97754528D02*
X168784775Y-97968814D01*
X168784775Y-97968814D02*
X168856203Y-98254528D01*
X168856203Y-98254528D02*
X168927632Y-98397385D01*
X168927632Y-98397385D02*
X169070489Y-98540242D01*
X169070489Y-98540242D02*
X169284775Y-98611671D01*
X169284775Y-98611671D02*
X169427632Y-98611671D01*
X169427632Y-98611671D02*
X169641918Y-98540242D01*
X169641918Y-98540242D02*
X169713346Y-98468814D01*
X170356203Y-97111671D02*
X170356203Y-98611671D01*
X170356203Y-97897385D02*
X171213346Y-97897385D01*
X171213346Y-97111671D02*
X171213346Y-98611671D01*
X171856204Y-98468814D02*
X171927632Y-98540242D01*
X171927632Y-98540242D02*
X172070490Y-98611671D01*
X172070490Y-98611671D02*
X172427632Y-98611671D01*
X172427632Y-98611671D02*
X172570490Y-98540242D01*
X172570490Y-98540242D02*
X172641918Y-98468814D01*
X172641918Y-98468814D02*
X172713347Y-98325957D01*
X172713347Y-98325957D02*
X172713347Y-98183100D01*
X172713347Y-98183100D02*
X172641918Y-97968814D01*
X172641918Y-97968814D02*
X171784775Y-97111671D01*
X171784775Y-97111671D02*
X172713347Y-97111671D01*
X173641918Y-98611671D02*
X173784775Y-98611671D01*
X173784775Y-98611671D02*
X173927632Y-98540242D01*
X173927632Y-98540242D02*
X173999061Y-98468814D01*
X173999061Y-98468814D02*
X174070489Y-98325957D01*
X174070489Y-98325957D02*
X174141918Y-98040242D01*
X174141918Y-98040242D02*
X174141918Y-97683100D01*
X174141918Y-97683100D02*
X174070489Y-97397385D01*
X174070489Y-97397385D02*
X173999061Y-97254528D01*
X173999061Y-97254528D02*
X173927632Y-97183100D01*
X173927632Y-97183100D02*
X173784775Y-97111671D01*
X173784775Y-97111671D02*
X173641918Y-97111671D01*
X173641918Y-97111671D02*
X173499061Y-97183100D01*
X173499061Y-97183100D02*
X173427632Y-97254528D01*
X173427632Y-97254528D02*
X173356203Y-97397385D01*
X173356203Y-97397385D02*
X173284775Y-97683100D01*
X173284775Y-97683100D02*
X173284775Y-98040242D01*
X173284775Y-98040242D02*
X173356203Y-98325957D01*
X173356203Y-98325957D02*
X173427632Y-98468814D01*
X173427632Y-98468814D02*
X173499061Y-98540242D01*
X173499061Y-98540242D02*
X173641918Y-98611671D01*
X82326653Y-73211671D02*
X83326653Y-71711671D01*
X83326653Y-73211671D02*
X82326653Y-71711671D01*
X83683796Y-73211671D02*
X84540939Y-73211671D01*
X84112367Y-71711671D02*
X84112367Y-73211671D01*
X85040938Y-71711671D02*
X85040938Y-72711671D01*
X85040938Y-72425957D02*
X85112367Y-72568814D01*
X85112367Y-72568814D02*
X85183796Y-72640242D01*
X85183796Y-72640242D02*
X85326653Y-72711671D01*
X85326653Y-72711671D02*
X85469510Y-72711671D01*
X85969509Y-71711671D02*
X85969509Y-72711671D01*
X85969509Y-73211671D02*
X85898081Y-73140242D01*
X85898081Y-73140242D02*
X85969509Y-73068814D01*
X85969509Y-73068814D02*
X86040938Y-73140242D01*
X86040938Y-73140242D02*
X85969509Y-73211671D01*
X85969509Y-73211671D02*
X85969509Y-73068814D01*
X87326653Y-72711671D02*
X87326653Y-71497385D01*
X87326653Y-71497385D02*
X87255224Y-71354528D01*
X87255224Y-71354528D02*
X87183795Y-71283100D01*
X87183795Y-71283100D02*
X87040938Y-71211671D01*
X87040938Y-71211671D02*
X86826653Y-71211671D01*
X86826653Y-71211671D02*
X86683795Y-71283100D01*
X87326653Y-71783100D02*
X87183795Y-71711671D01*
X87183795Y-71711671D02*
X86898081Y-71711671D01*
X86898081Y-71711671D02*
X86755224Y-71783100D01*
X86755224Y-71783100D02*
X86683795Y-71854528D01*
X86683795Y-71854528D02*
X86612367Y-71997385D01*
X86612367Y-71997385D02*
X86612367Y-72425957D01*
X86612367Y-72425957D02*
X86683795Y-72568814D01*
X86683795Y-72568814D02*
X86755224Y-72640242D01*
X86755224Y-72640242D02*
X86898081Y-72711671D01*
X86898081Y-72711671D02*
X87183795Y-72711671D01*
X87183795Y-72711671D02*
X87326653Y-72640242D01*
D12*
X107377142Y-119241357D02*
X107496190Y-119360404D01*
X107496190Y-119360404D02*
X107734285Y-119479452D01*
X107734285Y-119479452D02*
X108329523Y-119479452D01*
X108329523Y-119479452D02*
X108567618Y-119360404D01*
X108567618Y-119360404D02*
X108686666Y-119241357D01*
X108686666Y-119241357D02*
X108805713Y-119003261D01*
X108805713Y-119003261D02*
X108805713Y-118765166D01*
X108805713Y-118765166D02*
X108686666Y-118408023D01*
X108686666Y-118408023D02*
X107258094Y-116979452D01*
X107258094Y-116979452D02*
X108805713Y-116979452D01*
X110948570Y-118646119D02*
X110948570Y-116979452D01*
X110353332Y-119598500D02*
X109758094Y-117812785D01*
X109758094Y-117812785D02*
X111305713Y-117812785D01*
X113686665Y-117217547D02*
X113567617Y-117098500D01*
X113567617Y-117098500D02*
X113210475Y-116979452D01*
X113210475Y-116979452D02*
X112972379Y-116979452D01*
X112972379Y-116979452D02*
X112615236Y-117098500D01*
X112615236Y-117098500D02*
X112377141Y-117336595D01*
X112377141Y-117336595D02*
X112258094Y-117574690D01*
X112258094Y-117574690D02*
X112139046Y-118050880D01*
X112139046Y-118050880D02*
X112139046Y-118408023D01*
X112139046Y-118408023D02*
X112258094Y-118884214D01*
X112258094Y-118884214D02*
X112377141Y-119122309D01*
X112377141Y-119122309D02*
X112615236Y-119360404D01*
X112615236Y-119360404D02*
X112972379Y-119479452D01*
X112972379Y-119479452D02*
X113210475Y-119479452D01*
X113210475Y-119479452D02*
X113567617Y-119360404D01*
X113567617Y-119360404D02*
X113686665Y-119241357D01*
X114758094Y-116979452D02*
X114758094Y-119479452D01*
X114758094Y-118288976D02*
X116186665Y-118288976D01*
X116186665Y-116979452D02*
X116186665Y-119479452D01*
X120472380Y-116979452D02*
X119281904Y-116979452D01*
X119281904Y-116979452D02*
X119281904Y-119479452D01*
X121781904Y-119479452D02*
X122258095Y-119479452D01*
X122258095Y-119479452D02*
X122496190Y-119360404D01*
X122496190Y-119360404D02*
X122734285Y-119122309D01*
X122734285Y-119122309D02*
X122853333Y-118646119D01*
X122853333Y-118646119D02*
X122853333Y-117812785D01*
X122853333Y-117812785D02*
X122734285Y-117336595D01*
X122734285Y-117336595D02*
X122496190Y-117098500D01*
X122496190Y-117098500D02*
X122258095Y-116979452D01*
X122258095Y-116979452D02*
X121781904Y-116979452D01*
X121781904Y-116979452D02*
X121543809Y-117098500D01*
X121543809Y-117098500D02*
X121305714Y-117336595D01*
X121305714Y-117336595D02*
X121186666Y-117812785D01*
X121186666Y-117812785D02*
X121186666Y-118646119D01*
X121186666Y-118646119D02*
X121305714Y-119122309D01*
X121305714Y-119122309D02*
X121543809Y-119360404D01*
X121543809Y-119360404D02*
X121781904Y-119479452D01*
X125234285Y-119360404D02*
X124996190Y-119479452D01*
X124996190Y-119479452D02*
X124639047Y-119479452D01*
X124639047Y-119479452D02*
X124281904Y-119360404D01*
X124281904Y-119360404D02*
X124043809Y-119122309D01*
X124043809Y-119122309D02*
X123924762Y-118884214D01*
X123924762Y-118884214D02*
X123805714Y-118408023D01*
X123805714Y-118408023D02*
X123805714Y-118050880D01*
X123805714Y-118050880D02*
X123924762Y-117574690D01*
X123924762Y-117574690D02*
X124043809Y-117336595D01*
X124043809Y-117336595D02*
X124281904Y-117098500D01*
X124281904Y-117098500D02*
X124639047Y-116979452D01*
X124639047Y-116979452D02*
X124877143Y-116979452D01*
X124877143Y-116979452D02*
X125234285Y-117098500D01*
X125234285Y-117098500D02*
X125353333Y-117217547D01*
X125353333Y-117217547D02*
X125353333Y-118050880D01*
X125353333Y-118050880D02*
X124877143Y-118050880D01*
X126424762Y-116979452D02*
X126424762Y-119479452D01*
X129043809Y-117217547D02*
X128924761Y-117098500D01*
X128924761Y-117098500D02*
X128567619Y-116979452D01*
X128567619Y-116979452D02*
X128329523Y-116979452D01*
X128329523Y-116979452D02*
X127972380Y-117098500D01*
X127972380Y-117098500D02*
X127734285Y-117336595D01*
X127734285Y-117336595D02*
X127615238Y-117574690D01*
X127615238Y-117574690D02*
X127496190Y-118050880D01*
X127496190Y-118050880D02*
X127496190Y-118408023D01*
X127496190Y-118408023D02*
X127615238Y-118884214D01*
X127615238Y-118884214D02*
X127734285Y-119122309D01*
X127734285Y-119122309D02*
X127972380Y-119360404D01*
X127972380Y-119360404D02*
X128329523Y-119479452D01*
X128329523Y-119479452D02*
X128567619Y-119479452D01*
X128567619Y-119479452D02*
X128924761Y-119360404D01*
X128924761Y-119360404D02*
X129043809Y-119241357D01*
X131900952Y-117693738D02*
X133091428Y-117693738D01*
X131662857Y-116979452D02*
X132496190Y-119479452D01*
X132496190Y-119479452D02*
X133329523Y-116979452D01*
X134162857Y-116979452D02*
X134162857Y-119479452D01*
X134162857Y-119479452D02*
X135591428Y-116979452D01*
X135591428Y-116979452D02*
X135591428Y-119479452D01*
X136662857Y-117693738D02*
X137853333Y-117693738D01*
X136424762Y-116979452D02*
X137258095Y-119479452D01*
X137258095Y-119479452D02*
X138091428Y-116979452D01*
X140115238Y-116979452D02*
X138924762Y-116979452D01*
X138924762Y-116979452D02*
X138924762Y-119479452D01*
X141424762Y-118169928D02*
X141424762Y-116979452D01*
X140591429Y-119479452D02*
X141424762Y-118169928D01*
X141424762Y-118169928D02*
X142258095Y-119479452D01*
X142853333Y-119479452D02*
X144520000Y-119479452D01*
X144520000Y-119479452D02*
X142853333Y-116979452D01*
X142853333Y-116979452D02*
X144520000Y-116979452D01*
X145472381Y-118288976D02*
X146305714Y-118288976D01*
X146662857Y-116979452D02*
X145472381Y-116979452D01*
X145472381Y-116979452D02*
X145472381Y-119479452D01*
X145472381Y-119479452D02*
X146662857Y-119479452D01*
X149162857Y-116979452D02*
X148329524Y-118169928D01*
X147734286Y-116979452D02*
X147734286Y-119479452D01*
X147734286Y-119479452D02*
X148686667Y-119479452D01*
X148686667Y-119479452D02*
X148924762Y-119360404D01*
X148924762Y-119360404D02*
X149043809Y-119241357D01*
X149043809Y-119241357D02*
X149162857Y-119003261D01*
X149162857Y-119003261D02*
X149162857Y-118646119D01*
X149162857Y-118646119D02*
X149043809Y-118408023D01*
X149043809Y-118408023D02*
X148924762Y-118288976D01*
X148924762Y-118288976D02*
X148686667Y-118169928D01*
X148686667Y-118169928D02*
X147734286Y-118169928D01*
D11*
X170999060Y-78220242D02*
X170856203Y-78291671D01*
X170856203Y-78291671D02*
X170641917Y-78291671D01*
X170641917Y-78291671D02*
X170427631Y-78220242D01*
X170427631Y-78220242D02*
X170284774Y-78077385D01*
X170284774Y-78077385D02*
X170213345Y-77934528D01*
X170213345Y-77934528D02*
X170141917Y-77648814D01*
X170141917Y-77648814D02*
X170141917Y-77434528D01*
X170141917Y-77434528D02*
X170213345Y-77148814D01*
X170213345Y-77148814D02*
X170284774Y-77005957D01*
X170284774Y-77005957D02*
X170427631Y-76863100D01*
X170427631Y-76863100D02*
X170641917Y-76791671D01*
X170641917Y-76791671D02*
X170784774Y-76791671D01*
X170784774Y-76791671D02*
X170999060Y-76863100D01*
X170999060Y-76863100D02*
X171070488Y-76934528D01*
X171070488Y-76934528D02*
X171070488Y-77434528D01*
X171070488Y-77434528D02*
X170784774Y-77434528D01*
X171713345Y-76791671D02*
X171713345Y-78291671D01*
X171713345Y-78291671D02*
X172570488Y-76791671D01*
X172570488Y-76791671D02*
X172570488Y-78291671D01*
X173284774Y-76791671D02*
X173284774Y-78291671D01*
X173284774Y-78291671D02*
X173641917Y-78291671D01*
X173641917Y-78291671D02*
X173856203Y-78220242D01*
X173856203Y-78220242D02*
X173999060Y-78077385D01*
X173999060Y-78077385D02*
X174070489Y-77934528D01*
X174070489Y-77934528D02*
X174141917Y-77648814D01*
X174141917Y-77648814D02*
X174141917Y-77434528D01*
X174141917Y-77434528D02*
X174070489Y-77148814D01*
X174070489Y-77148814D02*
X173999060Y-77005957D01*
X173999060Y-77005957D02*
X173856203Y-76863100D01*
X173856203Y-76863100D02*
X173641917Y-76791671D01*
X173641917Y-76791671D02*
X173284774Y-76791671D01*
X169713346Y-102334528D02*
X169641918Y-102263100D01*
X169641918Y-102263100D02*
X169427632Y-102191671D01*
X169427632Y-102191671D02*
X169284775Y-102191671D01*
X169284775Y-102191671D02*
X169070489Y-102263100D01*
X169070489Y-102263100D02*
X168927632Y-102405957D01*
X168927632Y-102405957D02*
X168856203Y-102548814D01*
X168856203Y-102548814D02*
X168784775Y-102834528D01*
X168784775Y-102834528D02*
X168784775Y-103048814D01*
X168784775Y-103048814D02*
X168856203Y-103334528D01*
X168856203Y-103334528D02*
X168927632Y-103477385D01*
X168927632Y-103477385D02*
X169070489Y-103620242D01*
X169070489Y-103620242D02*
X169284775Y-103691671D01*
X169284775Y-103691671D02*
X169427632Y-103691671D01*
X169427632Y-103691671D02*
X169641918Y-103620242D01*
X169641918Y-103620242D02*
X169713346Y-103548814D01*
X170356203Y-102191671D02*
X170356203Y-103691671D01*
X170356203Y-102977385D02*
X171213346Y-102977385D01*
X171213346Y-102191671D02*
X171213346Y-103691671D01*
X172713347Y-102191671D02*
X171856204Y-102191671D01*
X172284775Y-102191671D02*
X172284775Y-103691671D01*
X172284775Y-103691671D02*
X172141918Y-103477385D01*
X172141918Y-103477385D02*
X171999061Y-103334528D01*
X171999061Y-103334528D02*
X171856204Y-103263100D01*
X173570489Y-103048814D02*
X173427632Y-103120242D01*
X173427632Y-103120242D02*
X173356203Y-103191671D01*
X173356203Y-103191671D02*
X173284775Y-103334528D01*
X173284775Y-103334528D02*
X173284775Y-103405957D01*
X173284775Y-103405957D02*
X173356203Y-103548814D01*
X173356203Y-103548814D02*
X173427632Y-103620242D01*
X173427632Y-103620242D02*
X173570489Y-103691671D01*
X173570489Y-103691671D02*
X173856203Y-103691671D01*
X173856203Y-103691671D02*
X173999061Y-103620242D01*
X173999061Y-103620242D02*
X174070489Y-103548814D01*
X174070489Y-103548814D02*
X174141918Y-103405957D01*
X174141918Y-103405957D02*
X174141918Y-103334528D01*
X174141918Y-103334528D02*
X174070489Y-103191671D01*
X174070489Y-103191671D02*
X173999061Y-103120242D01*
X173999061Y-103120242D02*
X173856203Y-103048814D01*
X173856203Y-103048814D02*
X173570489Y-103048814D01*
X173570489Y-103048814D02*
X173427632Y-102977385D01*
X173427632Y-102977385D02*
X173356203Y-102905957D01*
X173356203Y-102905957D02*
X173284775Y-102763100D01*
X173284775Y-102763100D02*
X173284775Y-102477385D01*
X173284775Y-102477385D02*
X173356203Y-102334528D01*
X173356203Y-102334528D02*
X173427632Y-102263100D01*
X173427632Y-102263100D02*
X173570489Y-102191671D01*
X173570489Y-102191671D02*
X173856203Y-102191671D01*
X173856203Y-102191671D02*
X173999061Y-102263100D01*
X173999061Y-102263100D02*
X174070489Y-102334528D01*
X174070489Y-102334528D02*
X174141918Y-102477385D01*
X174141918Y-102477385D02*
X174141918Y-102763100D01*
X174141918Y-102763100D02*
X174070489Y-102905957D01*
X174070489Y-102905957D02*
X173999061Y-102977385D01*
X173999061Y-102977385D02*
X173856203Y-103048814D01*
X169713346Y-99794528D02*
X169641918Y-99723100D01*
X169641918Y-99723100D02*
X169427632Y-99651671D01*
X169427632Y-99651671D02*
X169284775Y-99651671D01*
X169284775Y-99651671D02*
X169070489Y-99723100D01*
X169070489Y-99723100D02*
X168927632Y-99865957D01*
X168927632Y-99865957D02*
X168856203Y-100008814D01*
X168856203Y-100008814D02*
X168784775Y-100294528D01*
X168784775Y-100294528D02*
X168784775Y-100508814D01*
X168784775Y-100508814D02*
X168856203Y-100794528D01*
X168856203Y-100794528D02*
X168927632Y-100937385D01*
X168927632Y-100937385D02*
X169070489Y-101080242D01*
X169070489Y-101080242D02*
X169284775Y-101151671D01*
X169284775Y-101151671D02*
X169427632Y-101151671D01*
X169427632Y-101151671D02*
X169641918Y-101080242D01*
X169641918Y-101080242D02*
X169713346Y-101008814D01*
X170356203Y-99651671D02*
X170356203Y-101151671D01*
X170356203Y-100437385D02*
X171213346Y-100437385D01*
X171213346Y-99651671D02*
X171213346Y-101151671D01*
X172713347Y-99651671D02*
X171856204Y-99651671D01*
X172284775Y-99651671D02*
X172284775Y-101151671D01*
X172284775Y-101151671D02*
X172141918Y-100937385D01*
X172141918Y-100937385D02*
X171999061Y-100794528D01*
X171999061Y-100794528D02*
X171856204Y-100723100D01*
X173427632Y-99651671D02*
X173713346Y-99651671D01*
X173713346Y-99651671D02*
X173856203Y-99723100D01*
X173856203Y-99723100D02*
X173927632Y-99794528D01*
X173927632Y-99794528D02*
X174070489Y-100008814D01*
X174070489Y-100008814D02*
X174141918Y-100294528D01*
X174141918Y-100294528D02*
X174141918Y-100865957D01*
X174141918Y-100865957D02*
X174070489Y-101008814D01*
X174070489Y-101008814D02*
X173999061Y-101080242D01*
X173999061Y-101080242D02*
X173856203Y-101151671D01*
X173856203Y-101151671D02*
X173570489Y-101151671D01*
X173570489Y-101151671D02*
X173427632Y-101080242D01*
X173427632Y-101080242D02*
X173356203Y-101008814D01*
X173356203Y-101008814D02*
X173284775Y-100865957D01*
X173284775Y-100865957D02*
X173284775Y-100508814D01*
X173284775Y-100508814D02*
X173356203Y-100365957D01*
X173356203Y-100365957D02*
X173427632Y-100294528D01*
X173427632Y-100294528D02*
X173570489Y-100223100D01*
X173570489Y-100223100D02*
X173856203Y-100223100D01*
X173856203Y-100223100D02*
X173999061Y-100294528D01*
X173999061Y-100294528D02*
X174070489Y-100365957D01*
X174070489Y-100365957D02*
X174141918Y-100508814D01*
X83326653Y-104874528D02*
X83255225Y-104803100D01*
X83255225Y-104803100D02*
X83040939Y-104731671D01*
X83040939Y-104731671D02*
X82898082Y-104731671D01*
X82898082Y-104731671D02*
X82683796Y-104803100D01*
X82683796Y-104803100D02*
X82540939Y-104945957D01*
X82540939Y-104945957D02*
X82469510Y-105088814D01*
X82469510Y-105088814D02*
X82398082Y-105374528D01*
X82398082Y-105374528D02*
X82398082Y-105588814D01*
X82398082Y-105588814D02*
X82469510Y-105874528D01*
X82469510Y-105874528D02*
X82540939Y-106017385D01*
X82540939Y-106017385D02*
X82683796Y-106160242D01*
X82683796Y-106160242D02*
X82898082Y-106231671D01*
X82898082Y-106231671D02*
X83040939Y-106231671D01*
X83040939Y-106231671D02*
X83255225Y-106160242D01*
X83255225Y-106160242D02*
X83326653Y-106088814D01*
X83969510Y-104731671D02*
X83969510Y-106231671D01*
X83969510Y-105517385D02*
X84826653Y-105517385D01*
X84826653Y-104731671D02*
X84826653Y-106231671D01*
X86326654Y-104731671D02*
X85469511Y-104731671D01*
X85898082Y-104731671D02*
X85898082Y-106231671D01*
X85898082Y-106231671D02*
X85755225Y-106017385D01*
X85755225Y-106017385D02*
X85612368Y-105874528D01*
X85612368Y-105874528D02*
X85469511Y-105803100D01*
X86898082Y-106088814D02*
X86969510Y-106160242D01*
X86969510Y-106160242D02*
X87112368Y-106231671D01*
X87112368Y-106231671D02*
X87469510Y-106231671D01*
X87469510Y-106231671D02*
X87612368Y-106160242D01*
X87612368Y-106160242D02*
X87683796Y-106088814D01*
X87683796Y-106088814D02*
X87755225Y-105945957D01*
X87755225Y-105945957D02*
X87755225Y-105803100D01*
X87755225Y-105803100D02*
X87683796Y-105588814D01*
X87683796Y-105588814D02*
X86826653Y-104731671D01*
X86826653Y-104731671D02*
X87755225Y-104731671D01*
X83326653Y-76934528D02*
X83255225Y-76863100D01*
X83255225Y-76863100D02*
X83040939Y-76791671D01*
X83040939Y-76791671D02*
X82898082Y-76791671D01*
X82898082Y-76791671D02*
X82683796Y-76863100D01*
X82683796Y-76863100D02*
X82540939Y-77005957D01*
X82540939Y-77005957D02*
X82469510Y-77148814D01*
X82469510Y-77148814D02*
X82398082Y-77434528D01*
X82398082Y-77434528D02*
X82398082Y-77648814D01*
X82398082Y-77648814D02*
X82469510Y-77934528D01*
X82469510Y-77934528D02*
X82540939Y-78077385D01*
X82540939Y-78077385D02*
X82683796Y-78220242D01*
X82683796Y-78220242D02*
X82898082Y-78291671D01*
X82898082Y-78291671D02*
X83040939Y-78291671D01*
X83040939Y-78291671D02*
X83255225Y-78220242D01*
X83255225Y-78220242D02*
X83326653Y-78148814D01*
X83969510Y-76791671D02*
X83969510Y-78291671D01*
X83969510Y-77577385D02*
X84826653Y-77577385D01*
X84826653Y-76791671D02*
X84826653Y-78291671D01*
X85469511Y-78148814D02*
X85540939Y-78220242D01*
X85540939Y-78220242D02*
X85683797Y-78291671D01*
X85683797Y-78291671D02*
X86040939Y-78291671D01*
X86040939Y-78291671D02*
X86183797Y-78220242D01*
X86183797Y-78220242D02*
X86255225Y-78148814D01*
X86255225Y-78148814D02*
X86326654Y-78005957D01*
X86326654Y-78005957D02*
X86326654Y-77863100D01*
X86326654Y-77863100D02*
X86255225Y-77648814D01*
X86255225Y-77648814D02*
X85398082Y-76791671D01*
X85398082Y-76791671D02*
X86326654Y-76791671D01*
X83326653Y-82014528D02*
X83255225Y-81943100D01*
X83255225Y-81943100D02*
X83040939Y-81871671D01*
X83040939Y-81871671D02*
X82898082Y-81871671D01*
X82898082Y-81871671D02*
X82683796Y-81943100D01*
X82683796Y-81943100D02*
X82540939Y-82085957D01*
X82540939Y-82085957D02*
X82469510Y-82228814D01*
X82469510Y-82228814D02*
X82398082Y-82514528D01*
X82398082Y-82514528D02*
X82398082Y-82728814D01*
X82398082Y-82728814D02*
X82469510Y-83014528D01*
X82469510Y-83014528D02*
X82540939Y-83157385D01*
X82540939Y-83157385D02*
X82683796Y-83300242D01*
X82683796Y-83300242D02*
X82898082Y-83371671D01*
X82898082Y-83371671D02*
X83040939Y-83371671D01*
X83040939Y-83371671D02*
X83255225Y-83300242D01*
X83255225Y-83300242D02*
X83326653Y-83228814D01*
X83969510Y-81871671D02*
X83969510Y-83371671D01*
X83969510Y-82657385D02*
X84826653Y-82657385D01*
X84826653Y-81871671D02*
X84826653Y-83371671D01*
X86183797Y-82871671D02*
X86183797Y-81871671D01*
X85826654Y-83443100D02*
X85469511Y-82371671D01*
X85469511Y-82371671D02*
X86398082Y-82371671D01*
D10*
X110410952Y-74202580D02*
X111077618Y-73202580D01*
X111077618Y-74202580D02*
X110410952Y-73202580D01*
X111410952Y-73250200D02*
X111553809Y-73202580D01*
X111553809Y-73202580D02*
X111791904Y-73202580D01*
X111791904Y-73202580D02*
X111887142Y-73250200D01*
X111887142Y-73250200D02*
X111934761Y-73297819D01*
X111934761Y-73297819D02*
X111982380Y-73393057D01*
X111982380Y-73393057D02*
X111982380Y-73488295D01*
X111982380Y-73488295D02*
X111934761Y-73583533D01*
X111934761Y-73583533D02*
X111887142Y-73631152D01*
X111887142Y-73631152D02*
X111791904Y-73678771D01*
X111791904Y-73678771D02*
X111601428Y-73726390D01*
X111601428Y-73726390D02*
X111506190Y-73774009D01*
X111506190Y-73774009D02*
X111458571Y-73821628D01*
X111458571Y-73821628D02*
X111410952Y-73916866D01*
X111410952Y-73916866D02*
X111410952Y-74012104D01*
X111410952Y-74012104D02*
X111458571Y-74107342D01*
X111458571Y-74107342D02*
X111506190Y-74154961D01*
X111506190Y-74154961D02*
X111601428Y-74202580D01*
X111601428Y-74202580D02*
X111839523Y-74202580D01*
X111839523Y-74202580D02*
X111982380Y-74154961D01*
X112268095Y-74202580D02*
X112839523Y-74202580D01*
X112553809Y-73202580D02*
X112553809Y-74202580D01*
X113125238Y-73488295D02*
X113601428Y-73488295D01*
X113030000Y-73202580D02*
X113363333Y-74202580D01*
X113363333Y-74202580D02*
X113696666Y-73202580D01*
X114601428Y-73297819D02*
X114553809Y-73250200D01*
X114553809Y-73250200D02*
X114410952Y-73202580D01*
X114410952Y-73202580D02*
X114315714Y-73202580D01*
X114315714Y-73202580D02*
X114172857Y-73250200D01*
X114172857Y-73250200D02*
X114077619Y-73345438D01*
X114077619Y-73345438D02*
X114030000Y-73440676D01*
X114030000Y-73440676D02*
X113982381Y-73631152D01*
X113982381Y-73631152D02*
X113982381Y-73774009D01*
X113982381Y-73774009D02*
X114030000Y-73964485D01*
X114030000Y-73964485D02*
X114077619Y-74059723D01*
X114077619Y-74059723D02*
X114172857Y-74154961D01*
X114172857Y-74154961D02*
X114315714Y-74202580D01*
X114315714Y-74202580D02*
X114410952Y-74202580D01*
X114410952Y-74202580D02*
X114553809Y-74154961D01*
X114553809Y-74154961D02*
X114601428Y-74107342D01*
X115030000Y-73202580D02*
X115030000Y-74202580D01*
X115601428Y-73202580D02*
X115172857Y-73774009D01*
X115601428Y-74202580D02*
X115030000Y-73631152D01*
X150630570Y-114583933D02*
X150535332Y-114631552D01*
X150535332Y-114631552D02*
X150392475Y-114631552D01*
X150392475Y-114631552D02*
X150249618Y-114583933D01*
X150249618Y-114583933D02*
X150154380Y-114488695D01*
X150154380Y-114488695D02*
X150106761Y-114393457D01*
X150106761Y-114393457D02*
X150059142Y-114202981D01*
X150059142Y-114202981D02*
X150059142Y-114060124D01*
X150059142Y-114060124D02*
X150106761Y-113869648D01*
X150106761Y-113869648D02*
X150154380Y-113774410D01*
X150154380Y-113774410D02*
X150249618Y-113679172D01*
X150249618Y-113679172D02*
X150392475Y-113631552D01*
X150392475Y-113631552D02*
X150487713Y-113631552D01*
X150487713Y-113631552D02*
X150630570Y-113679172D01*
X150630570Y-113679172D02*
X150678189Y-113726791D01*
X150678189Y-113726791D02*
X150678189Y-114060124D01*
X150678189Y-114060124D02*
X150487713Y-114060124D01*
X151106761Y-113631552D02*
X151106761Y-114298219D01*
X151106761Y-114107743D02*
X151154380Y-114202981D01*
X151154380Y-114202981D02*
X151201999Y-114250600D01*
X151201999Y-114250600D02*
X151297237Y-114298219D01*
X151297237Y-114298219D02*
X151392475Y-114298219D01*
X151868666Y-113631552D02*
X151773428Y-113679172D01*
X151773428Y-113679172D02*
X151725809Y-113726791D01*
X151725809Y-113726791D02*
X151678190Y-113822029D01*
X151678190Y-113822029D02*
X151678190Y-114107743D01*
X151678190Y-114107743D02*
X151725809Y-114202981D01*
X151725809Y-114202981D02*
X151773428Y-114250600D01*
X151773428Y-114250600D02*
X151868666Y-114298219D01*
X151868666Y-114298219D02*
X152011523Y-114298219D01*
X152011523Y-114298219D02*
X152106761Y-114250600D01*
X152106761Y-114250600D02*
X152154380Y-114202981D01*
X152154380Y-114202981D02*
X152201999Y-114107743D01*
X152201999Y-114107743D02*
X152201999Y-113822029D01*
X152201999Y-113822029D02*
X152154380Y-113726791D01*
X152154380Y-113726791D02*
X152106761Y-113679172D01*
X152106761Y-113679172D02*
X152011523Y-113631552D01*
X152011523Y-113631552D02*
X151868666Y-113631552D01*
X153059142Y-114298219D02*
X153059142Y-113631552D01*
X152630571Y-114298219D02*
X152630571Y-113774410D01*
X152630571Y-113774410D02*
X152678190Y-113679172D01*
X152678190Y-113679172D02*
X152773428Y-113631552D01*
X152773428Y-113631552D02*
X152916285Y-113631552D01*
X152916285Y-113631552D02*
X153011523Y-113679172D01*
X153011523Y-113679172D02*
X153059142Y-113726791D01*
X153535333Y-114298219D02*
X153535333Y-113631552D01*
X153535333Y-114202981D02*
X153582952Y-114250600D01*
X153582952Y-114250600D02*
X153678190Y-114298219D01*
X153678190Y-114298219D02*
X153821047Y-114298219D01*
X153821047Y-114298219D02*
X153916285Y-114250600D01*
X153916285Y-114250600D02*
X153963904Y-114155362D01*
X153963904Y-114155362D02*
X153963904Y-113631552D01*
X154868666Y-113631552D02*
X154868666Y-114631552D01*
X154868666Y-113679172D02*
X154773428Y-113631552D01*
X154773428Y-113631552D02*
X154582952Y-113631552D01*
X154582952Y-113631552D02*
X154487714Y-113679172D01*
X154487714Y-113679172D02*
X154440095Y-113726791D01*
X154440095Y-113726791D02*
X154392476Y-113822029D01*
X154392476Y-113822029D02*
X154392476Y-114107743D01*
X154392476Y-114107743D02*
X154440095Y-114202981D01*
X154440095Y-114202981D02*
X154487714Y-114250600D01*
X154487714Y-114250600D02*
X154582952Y-114298219D01*
X154582952Y-114298219D02*
X154773428Y-114298219D01*
X154773428Y-114298219D02*
X154868666Y-114250600D01*
X156059143Y-113679172D02*
X156202000Y-113631552D01*
X156202000Y-113631552D02*
X156440095Y-113631552D01*
X156440095Y-113631552D02*
X156535333Y-113679172D01*
X156535333Y-113679172D02*
X156582952Y-113726791D01*
X156582952Y-113726791D02*
X156630571Y-113822029D01*
X156630571Y-113822029D02*
X156630571Y-113917267D01*
X156630571Y-113917267D02*
X156582952Y-114012505D01*
X156582952Y-114012505D02*
X156535333Y-114060124D01*
X156535333Y-114060124D02*
X156440095Y-114107743D01*
X156440095Y-114107743D02*
X156249619Y-114155362D01*
X156249619Y-114155362D02*
X156154381Y-114202981D01*
X156154381Y-114202981D02*
X156106762Y-114250600D01*
X156106762Y-114250600D02*
X156059143Y-114345838D01*
X156059143Y-114345838D02*
X156059143Y-114441076D01*
X156059143Y-114441076D02*
X156106762Y-114536314D01*
X156106762Y-114536314D02*
X156154381Y-114583933D01*
X156154381Y-114583933D02*
X156249619Y-114631552D01*
X156249619Y-114631552D02*
X156487714Y-114631552D01*
X156487714Y-114631552D02*
X156630571Y-114583933D01*
X157059143Y-113631552D02*
X157059143Y-114631552D01*
X157487714Y-113631552D02*
X157487714Y-114155362D01*
X157487714Y-114155362D02*
X157440095Y-114250600D01*
X157440095Y-114250600D02*
X157344857Y-114298219D01*
X157344857Y-114298219D02*
X157202000Y-114298219D01*
X157202000Y-114298219D02*
X157106762Y-114250600D01*
X157106762Y-114250600D02*
X157059143Y-114202981D01*
X158392476Y-113631552D02*
X158392476Y-114155362D01*
X158392476Y-114155362D02*
X158344857Y-114250600D01*
X158344857Y-114250600D02*
X158249619Y-114298219D01*
X158249619Y-114298219D02*
X158059143Y-114298219D01*
X158059143Y-114298219D02*
X157963905Y-114250600D01*
X158392476Y-113679172D02*
X158297238Y-113631552D01*
X158297238Y-113631552D02*
X158059143Y-113631552D01*
X158059143Y-113631552D02*
X157963905Y-113679172D01*
X157963905Y-113679172D02*
X157916286Y-113774410D01*
X157916286Y-113774410D02*
X157916286Y-113869648D01*
X157916286Y-113869648D02*
X157963905Y-113964886D01*
X157963905Y-113964886D02*
X158059143Y-114012505D01*
X158059143Y-114012505D02*
X158297238Y-114012505D01*
X158297238Y-114012505D02*
X158392476Y-114060124D01*
X158868667Y-113631552D02*
X158868667Y-114298219D01*
X158868667Y-114107743D02*
X158916286Y-114202981D01*
X158916286Y-114202981D02*
X158963905Y-114250600D01*
X158963905Y-114250600D02*
X159059143Y-114298219D01*
X159059143Y-114298219D02*
X159154381Y-114298219D01*
X159487715Y-113631552D02*
X159487715Y-114298219D01*
X159487715Y-114631552D02*
X159440096Y-114583933D01*
X159440096Y-114583933D02*
X159487715Y-114536314D01*
X159487715Y-114536314D02*
X159535334Y-114583933D01*
X159535334Y-114583933D02*
X159487715Y-114631552D01*
X159487715Y-114631552D02*
X159487715Y-114536314D01*
X159963905Y-114298219D02*
X159963905Y-113631552D01*
X159963905Y-114202981D02*
X160011524Y-114250600D01*
X160011524Y-114250600D02*
X160106762Y-114298219D01*
X160106762Y-114298219D02*
X160249619Y-114298219D01*
X160249619Y-114298219D02*
X160344857Y-114250600D01*
X160344857Y-114250600D02*
X160392476Y-114155362D01*
X160392476Y-114155362D02*
X160392476Y-113631552D01*
X161297238Y-114298219D02*
X161297238Y-113488695D01*
X161297238Y-113488695D02*
X161249619Y-113393457D01*
X161249619Y-113393457D02*
X161202000Y-113345838D01*
X161202000Y-113345838D02*
X161106762Y-113298219D01*
X161106762Y-113298219D02*
X160963905Y-113298219D01*
X160963905Y-113298219D02*
X160868667Y-113345838D01*
X161297238Y-113679172D02*
X161202000Y-113631552D01*
X161202000Y-113631552D02*
X161011524Y-113631552D01*
X161011524Y-113631552D02*
X160916286Y-113679172D01*
X160916286Y-113679172D02*
X160868667Y-113726791D01*
X160868667Y-113726791D02*
X160821048Y-113822029D01*
X160821048Y-113822029D02*
X160821048Y-114107743D01*
X160821048Y-114107743D02*
X160868667Y-114202981D01*
X160868667Y-114202981D02*
X160916286Y-114250600D01*
X160916286Y-114250600D02*
X161011524Y-114298219D01*
X161011524Y-114298219D02*
X161202000Y-114298219D01*
X161202000Y-114298219D02*
X161297238Y-114250600D01*
X151511523Y-112545418D02*
X151178190Y-112545418D01*
X151178190Y-112021608D02*
X151178190Y-113021608D01*
X151178190Y-113021608D02*
X151654380Y-113021608D01*
X152178190Y-112021608D02*
X152082952Y-112069228D01*
X152082952Y-112069228D02*
X152035333Y-112116847D01*
X152035333Y-112116847D02*
X151987714Y-112212085D01*
X151987714Y-112212085D02*
X151987714Y-112497799D01*
X151987714Y-112497799D02*
X152035333Y-112593037D01*
X152035333Y-112593037D02*
X152082952Y-112640656D01*
X152082952Y-112640656D02*
X152178190Y-112688275D01*
X152178190Y-112688275D02*
X152321047Y-112688275D01*
X152321047Y-112688275D02*
X152416285Y-112640656D01*
X152416285Y-112640656D02*
X152463904Y-112593037D01*
X152463904Y-112593037D02*
X152511523Y-112497799D01*
X152511523Y-112497799D02*
X152511523Y-112212085D01*
X152511523Y-112212085D02*
X152463904Y-112116847D01*
X152463904Y-112116847D02*
X152416285Y-112069228D01*
X152416285Y-112069228D02*
X152321047Y-112021608D01*
X152321047Y-112021608D02*
X152178190Y-112021608D01*
X152940095Y-112021608D02*
X152940095Y-112688275D01*
X152940095Y-112497799D02*
X152987714Y-112593037D01*
X152987714Y-112593037D02*
X153035333Y-112640656D01*
X153035333Y-112640656D02*
X153130571Y-112688275D01*
X153130571Y-112688275D02*
X153225809Y-112688275D01*
X154273429Y-112069228D02*
X154416286Y-112021608D01*
X154416286Y-112021608D02*
X154654381Y-112021608D01*
X154654381Y-112021608D02*
X154749619Y-112069228D01*
X154749619Y-112069228D02*
X154797238Y-112116847D01*
X154797238Y-112116847D02*
X154844857Y-112212085D01*
X154844857Y-112212085D02*
X154844857Y-112307323D01*
X154844857Y-112307323D02*
X154797238Y-112402561D01*
X154797238Y-112402561D02*
X154749619Y-112450180D01*
X154749619Y-112450180D02*
X154654381Y-112497799D01*
X154654381Y-112497799D02*
X154463905Y-112545418D01*
X154463905Y-112545418D02*
X154368667Y-112593037D01*
X154368667Y-112593037D02*
X154321048Y-112640656D01*
X154321048Y-112640656D02*
X154273429Y-112735894D01*
X154273429Y-112735894D02*
X154273429Y-112831132D01*
X154273429Y-112831132D02*
X154321048Y-112926370D01*
X154321048Y-112926370D02*
X154368667Y-112973989D01*
X154368667Y-112973989D02*
X154463905Y-113021608D01*
X154463905Y-113021608D02*
X154702000Y-113021608D01*
X154702000Y-113021608D02*
X154844857Y-112973989D01*
X155130572Y-112688275D02*
X155511524Y-112688275D01*
X155273429Y-113021608D02*
X155273429Y-112164466D01*
X155273429Y-112164466D02*
X155321048Y-112069228D01*
X155321048Y-112069228D02*
X155416286Y-112021608D01*
X155416286Y-112021608D02*
X155511524Y-112021608D01*
X156273429Y-112021608D02*
X156273429Y-112545418D01*
X156273429Y-112545418D02*
X156225810Y-112640656D01*
X156225810Y-112640656D02*
X156130572Y-112688275D01*
X156130572Y-112688275D02*
X155940096Y-112688275D01*
X155940096Y-112688275D02*
X155844858Y-112640656D01*
X156273429Y-112069228D02*
X156178191Y-112021608D01*
X156178191Y-112021608D02*
X155940096Y-112021608D01*
X155940096Y-112021608D02*
X155844858Y-112069228D01*
X155844858Y-112069228D02*
X155797239Y-112164466D01*
X155797239Y-112164466D02*
X155797239Y-112259704D01*
X155797239Y-112259704D02*
X155844858Y-112354942D01*
X155844858Y-112354942D02*
X155940096Y-112402561D01*
X155940096Y-112402561D02*
X156178191Y-112402561D01*
X156178191Y-112402561D02*
X156273429Y-112450180D01*
X157178191Y-112069228D02*
X157082953Y-112021608D01*
X157082953Y-112021608D02*
X156892477Y-112021608D01*
X156892477Y-112021608D02*
X156797239Y-112069228D01*
X156797239Y-112069228D02*
X156749620Y-112116847D01*
X156749620Y-112116847D02*
X156702001Y-112212085D01*
X156702001Y-112212085D02*
X156702001Y-112497799D01*
X156702001Y-112497799D02*
X156749620Y-112593037D01*
X156749620Y-112593037D02*
X156797239Y-112640656D01*
X156797239Y-112640656D02*
X156892477Y-112688275D01*
X156892477Y-112688275D02*
X157082953Y-112688275D01*
X157082953Y-112688275D02*
X157178191Y-112640656D01*
X157606763Y-112021608D02*
X157606763Y-113021608D01*
X157702001Y-112402561D02*
X157987715Y-112021608D01*
X157987715Y-112688275D02*
X157606763Y-112307323D01*
X158416287Y-112021608D02*
X158416287Y-112688275D01*
X158416287Y-113021608D02*
X158368668Y-112973989D01*
X158368668Y-112973989D02*
X158416287Y-112926370D01*
X158416287Y-112926370D02*
X158463906Y-112973989D01*
X158463906Y-112973989D02*
X158416287Y-113021608D01*
X158416287Y-113021608D02*
X158416287Y-112926370D01*
X158892477Y-112688275D02*
X158892477Y-112021608D01*
X158892477Y-112593037D02*
X158940096Y-112640656D01*
X158940096Y-112640656D02*
X159035334Y-112688275D01*
X159035334Y-112688275D02*
X159178191Y-112688275D01*
X159178191Y-112688275D02*
X159273429Y-112640656D01*
X159273429Y-112640656D02*
X159321048Y-112545418D01*
X159321048Y-112545418D02*
X159321048Y-112021608D01*
X160225810Y-112688275D02*
X160225810Y-111878751D01*
X160225810Y-111878751D02*
X160178191Y-111783513D01*
X160178191Y-111783513D02*
X160130572Y-111735894D01*
X160130572Y-111735894D02*
X160035334Y-111688275D01*
X160035334Y-111688275D02*
X159892477Y-111688275D01*
X159892477Y-111688275D02*
X159797239Y-111735894D01*
X160225810Y-112069228D02*
X160130572Y-112021608D01*
X160130572Y-112021608D02*
X159940096Y-112021608D01*
X159940096Y-112021608D02*
X159844858Y-112069228D01*
X159844858Y-112069228D02*
X159797239Y-112116847D01*
X159797239Y-112116847D02*
X159749620Y-112212085D01*
X159749620Y-112212085D02*
X159749620Y-112497799D01*
X159749620Y-112497799D02*
X159797239Y-112593037D01*
X159797239Y-112593037D02*
X159844858Y-112640656D01*
X159844858Y-112640656D02*
X159940096Y-112688275D01*
X159940096Y-112688275D02*
X160130572Y-112688275D01*
X160130572Y-112688275D02*
X160225810Y-112640656D01*
D11*
X169713346Y-109954528D02*
X169641918Y-109883100D01*
X169641918Y-109883100D02*
X169427632Y-109811671D01*
X169427632Y-109811671D02*
X169284775Y-109811671D01*
X169284775Y-109811671D02*
X169070489Y-109883100D01*
X169070489Y-109883100D02*
X168927632Y-110025957D01*
X168927632Y-110025957D02*
X168856203Y-110168814D01*
X168856203Y-110168814D02*
X168784775Y-110454528D01*
X168784775Y-110454528D02*
X168784775Y-110668814D01*
X168784775Y-110668814D02*
X168856203Y-110954528D01*
X168856203Y-110954528D02*
X168927632Y-111097385D01*
X168927632Y-111097385D02*
X169070489Y-111240242D01*
X169070489Y-111240242D02*
X169284775Y-111311671D01*
X169284775Y-111311671D02*
X169427632Y-111311671D01*
X169427632Y-111311671D02*
X169641918Y-111240242D01*
X169641918Y-111240242D02*
X169713346Y-111168814D01*
X170356203Y-109811671D02*
X170356203Y-111311671D01*
X170356203Y-110597385D02*
X171213346Y-110597385D01*
X171213346Y-109811671D02*
X171213346Y-111311671D01*
X172713347Y-109811671D02*
X171856204Y-109811671D01*
X172284775Y-109811671D02*
X172284775Y-111311671D01*
X172284775Y-111311671D02*
X172141918Y-111097385D01*
X172141918Y-111097385D02*
X171999061Y-110954528D01*
X171999061Y-110954528D02*
X171856204Y-110883100D01*
X174070489Y-111311671D02*
X173356203Y-111311671D01*
X173356203Y-111311671D02*
X173284775Y-110597385D01*
X173284775Y-110597385D02*
X173356203Y-110668814D01*
X173356203Y-110668814D02*
X173499061Y-110740242D01*
X173499061Y-110740242D02*
X173856203Y-110740242D01*
X173856203Y-110740242D02*
X173999061Y-110668814D01*
X173999061Y-110668814D02*
X174070489Y-110597385D01*
X174070489Y-110597385D02*
X174141918Y-110454528D01*
X174141918Y-110454528D02*
X174141918Y-110097385D01*
X174141918Y-110097385D02*
X174070489Y-109954528D01*
X174070489Y-109954528D02*
X173999061Y-109883100D01*
X173999061Y-109883100D02*
X173856203Y-109811671D01*
X173856203Y-109811671D02*
X173499061Y-109811671D01*
X173499061Y-109811671D02*
X173356203Y-109883100D01*
X173356203Y-109883100D02*
X173284775Y-109954528D01*
X83326653Y-92174528D02*
X83255225Y-92103100D01*
X83255225Y-92103100D02*
X83040939Y-92031671D01*
X83040939Y-92031671D02*
X82898082Y-92031671D01*
X82898082Y-92031671D02*
X82683796Y-92103100D01*
X82683796Y-92103100D02*
X82540939Y-92245957D01*
X82540939Y-92245957D02*
X82469510Y-92388814D01*
X82469510Y-92388814D02*
X82398082Y-92674528D01*
X82398082Y-92674528D02*
X82398082Y-92888814D01*
X82398082Y-92888814D02*
X82469510Y-93174528D01*
X82469510Y-93174528D02*
X82540939Y-93317385D01*
X82540939Y-93317385D02*
X82683796Y-93460242D01*
X82683796Y-93460242D02*
X82898082Y-93531671D01*
X82898082Y-93531671D02*
X83040939Y-93531671D01*
X83040939Y-93531671D02*
X83255225Y-93460242D01*
X83255225Y-93460242D02*
X83326653Y-93388814D01*
X83969510Y-92031671D02*
X83969510Y-93531671D01*
X83969510Y-92817385D02*
X84826653Y-92817385D01*
X84826653Y-92031671D02*
X84826653Y-93531671D01*
X85398082Y-93531671D02*
X86398082Y-93531671D01*
X86398082Y-93531671D02*
X85755225Y-92031671D01*
X83255225Y-68060242D02*
X83112368Y-68131671D01*
X83112368Y-68131671D02*
X82898082Y-68131671D01*
X82898082Y-68131671D02*
X82683796Y-68060242D01*
X82683796Y-68060242D02*
X82540939Y-67917385D01*
X82540939Y-67917385D02*
X82469510Y-67774528D01*
X82469510Y-67774528D02*
X82398082Y-67488814D01*
X82398082Y-67488814D02*
X82398082Y-67274528D01*
X82398082Y-67274528D02*
X82469510Y-66988814D01*
X82469510Y-66988814D02*
X82540939Y-66845957D01*
X82540939Y-66845957D02*
X82683796Y-66703100D01*
X82683796Y-66703100D02*
X82898082Y-66631671D01*
X82898082Y-66631671D02*
X83040939Y-66631671D01*
X83040939Y-66631671D02*
X83255225Y-66703100D01*
X83255225Y-66703100D02*
X83326653Y-66774528D01*
X83326653Y-66774528D02*
X83326653Y-67274528D01*
X83326653Y-67274528D02*
X83040939Y-67274528D01*
X83969510Y-66631671D02*
X83969510Y-68131671D01*
X83969510Y-68131671D02*
X84826653Y-66631671D01*
X84826653Y-66631671D02*
X84826653Y-68131671D01*
X85540939Y-66631671D02*
X85540939Y-68131671D01*
X85540939Y-68131671D02*
X85898082Y-68131671D01*
X85898082Y-68131671D02*
X86112368Y-68060242D01*
X86112368Y-68060242D02*
X86255225Y-67917385D01*
X86255225Y-67917385D02*
X86326654Y-67774528D01*
X86326654Y-67774528D02*
X86398082Y-67488814D01*
X86398082Y-67488814D02*
X86398082Y-67274528D01*
X86398082Y-67274528D02*
X86326654Y-66988814D01*
X86326654Y-66988814D02*
X86255225Y-66845957D01*
X86255225Y-66845957D02*
X86112368Y-66703100D01*
X86112368Y-66703100D02*
X85898082Y-66631671D01*
X85898082Y-66631671D02*
X85540939Y-66631671D01*
X83326653Y-97254528D02*
X83255225Y-97183100D01*
X83255225Y-97183100D02*
X83040939Y-97111671D01*
X83040939Y-97111671D02*
X82898082Y-97111671D01*
X82898082Y-97111671D02*
X82683796Y-97183100D01*
X82683796Y-97183100D02*
X82540939Y-97325957D01*
X82540939Y-97325957D02*
X82469510Y-97468814D01*
X82469510Y-97468814D02*
X82398082Y-97754528D01*
X82398082Y-97754528D02*
X82398082Y-97968814D01*
X82398082Y-97968814D02*
X82469510Y-98254528D01*
X82469510Y-98254528D02*
X82540939Y-98397385D01*
X82540939Y-98397385D02*
X82683796Y-98540242D01*
X82683796Y-98540242D02*
X82898082Y-98611671D01*
X82898082Y-98611671D02*
X83040939Y-98611671D01*
X83040939Y-98611671D02*
X83255225Y-98540242D01*
X83255225Y-98540242D02*
X83326653Y-98468814D01*
X83969510Y-97111671D02*
X83969510Y-98611671D01*
X83969510Y-97897385D02*
X84826653Y-97897385D01*
X84826653Y-97111671D02*
X84826653Y-98611671D01*
X85612368Y-97111671D02*
X85898082Y-97111671D01*
X85898082Y-97111671D02*
X86040939Y-97183100D01*
X86040939Y-97183100D02*
X86112368Y-97254528D01*
X86112368Y-97254528D02*
X86255225Y-97468814D01*
X86255225Y-97468814D02*
X86326654Y-97754528D01*
X86326654Y-97754528D02*
X86326654Y-98325957D01*
X86326654Y-98325957D02*
X86255225Y-98468814D01*
X86255225Y-98468814D02*
X86183797Y-98540242D01*
X86183797Y-98540242D02*
X86040939Y-98611671D01*
X86040939Y-98611671D02*
X85755225Y-98611671D01*
X85755225Y-98611671D02*
X85612368Y-98540242D01*
X85612368Y-98540242D02*
X85540939Y-98468814D01*
X85540939Y-98468814D02*
X85469511Y-98325957D01*
X85469511Y-98325957D02*
X85469511Y-97968814D01*
X85469511Y-97968814D02*
X85540939Y-97825957D01*
X85540939Y-97825957D02*
X85612368Y-97754528D01*
X85612368Y-97754528D02*
X85755225Y-97683100D01*
X85755225Y-97683100D02*
X86040939Y-97683100D01*
X86040939Y-97683100D02*
X86183797Y-97754528D01*
X86183797Y-97754528D02*
X86255225Y-97825957D01*
X86255225Y-97825957D02*
X86326654Y-97968814D01*
D13*
G36*
X108828514Y-61845743D02*
G01*
X108879952Y-61764273D01*
X108933330Y-61712270D01*
X108989279Y-61683142D01*
X109049920Y-61673551D01*
X109119122Y-61686265D01*
X109177222Y-61724223D01*
X109227328Y-61792687D01*
X109268640Y-61903140D01*
X109286875Y-62007336D01*
X109293308Y-62127233D01*
X109287813Y-62244836D01*
X109203060Y-63236828D01*
X109864836Y-63351622D01*
X109886696Y-62296127D01*
X109886696Y-62219556D01*
X109876144Y-61994971D01*
X109847323Y-61814573D01*
X109803801Y-61671065D01*
X109748101Y-61558051D01*
X109681532Y-61470219D01*
X109596948Y-61396502D01*
X109493178Y-61336778D01*
X109366811Y-61291424D01*
X109213482Y-61262073D01*
X109028060Y-61251500D01*
X108860669Y-61264931D01*
X108714913Y-61303376D01*
X108587025Y-61365417D01*
X108474158Y-61451499D01*
X108374589Y-61563886D01*
X108828514Y-61845743D01*
G37*
G36*
X111889365Y-61427355D02*
G01*
X111178374Y-63362247D01*
X110694407Y-63411461D01*
X110232675Y-62083269D01*
X110746309Y-62083269D01*
X110910440Y-62564183D01*
X111047094Y-62031245D01*
X110746309Y-62083269D01*
X110232675Y-62083269D01*
X110021762Y-61476570D01*
X110489365Y-61318056D01*
X110653374Y-61796284D01*
X111126473Y-61717027D01*
X111230276Y-61312561D01*
X111889365Y-61427355D01*
G37*
G36*
X112833730Y-61312561D02*
G01*
X112349763Y-61364462D01*
X112256706Y-62394801D01*
X111562202Y-63274808D01*
X112303235Y-63411461D01*
X112636870Y-62815631D01*
X113041459Y-63405966D01*
X113509062Y-63250139D01*
X112885632Y-62411165D01*
X112833730Y-61312561D01*
G37*
G36*
X114184882Y-61720446D02*
G01*
X114276342Y-61732442D01*
X114343693Y-61765340D01*
X114393099Y-61818510D01*
X114413624Y-61861343D01*
X114420454Y-61908147D01*
X114405948Y-61961549D01*
X114351982Y-62032280D01*
X114234585Y-62128698D01*
X114127973Y-62199406D01*
X113950489Y-62325857D01*
X113834388Y-62422794D01*
X113764295Y-62496039D01*
X113697054Y-62595155D01*
X113659044Y-62692288D01*
X113646693Y-62789863D01*
X113658367Y-62898894D01*
X113692548Y-62996672D01*
X113749765Y-63085909D01*
X113832862Y-63168285D01*
X113946745Y-63244277D01*
X114098306Y-63313365D01*
X114261955Y-63355254D01*
X114440482Y-63369574D01*
X114589984Y-63358806D01*
X114719405Y-63328148D01*
X114831991Y-63279138D01*
X114930324Y-63212012D01*
X115016162Y-63125697D01*
X115059760Y-63068789D01*
X114657125Y-62880966D01*
X114634777Y-62942504D01*
X114594003Y-62988870D01*
X114531340Y-63022505D01*
X114460265Y-63033496D01*
X114377782Y-63020004D01*
X114311671Y-62980962D01*
X114257788Y-62913328D01*
X114233160Y-62851647D01*
X114225060Y-62787787D01*
X114235176Y-62724997D01*
X114266484Y-62664384D01*
X114323304Y-62603757D01*
X114413249Y-62542201D01*
X114565900Y-62465631D01*
X114732369Y-62378702D01*
X114842276Y-62307670D01*
X114909794Y-62249965D01*
X114981145Y-62156279D01*
X115023438Y-62051932D01*
X115037900Y-61933304D01*
X115027560Y-61825763D01*
X114997489Y-61729834D01*
X114947765Y-61643052D01*
X114876701Y-61563747D01*
X114780985Y-61491191D01*
X114655904Y-61425645D01*
X114491033Y-61369100D01*
X114308259Y-61334013D01*
X114104770Y-61321842D01*
X113951793Y-61332781D01*
X113823371Y-61363509D01*
X113715333Y-61411928D01*
X113624373Y-61477435D01*
X113548263Y-61560956D01*
X114001333Y-61845743D01*
X114048892Y-61774489D01*
X114108741Y-61734260D01*
X114184882Y-61720446D01*
G37*
G36*
X116306253Y-61364462D02*
G01*
X115822286Y-61312561D01*
X115682823Y-63042533D01*
X116123071Y-63118981D01*
X115187987Y-63080757D01*
X115149641Y-63381420D01*
X116913319Y-63452372D01*
X116951665Y-63151831D01*
X116344599Y-63127163D01*
X116306253Y-61364462D01*
G37*
G36*
X118123361Y-61263952D02*
G01*
X118274157Y-61299745D01*
X118408373Y-61357552D01*
X118528525Y-61437454D01*
X118636330Y-61540928D01*
X118724899Y-61659126D01*
X118794417Y-61790212D01*
X118845261Y-61935965D01*
X118876897Y-62098660D01*
X118887900Y-62280983D01*
X118887900Y-62327390D01*
X118864832Y-62545967D01*
X118813895Y-62744365D01*
X118736022Y-62925569D01*
X118630834Y-63091992D01*
X118530992Y-63208844D01*
X118424811Y-63301308D01*
X118311704Y-63371910D01*
X118190546Y-63422239D01*
X118059737Y-63452877D01*
X117917279Y-63463363D01*
X117766672Y-63450021D01*
X117631014Y-63411167D01*
X117507344Y-63347118D01*
X117393513Y-63256271D01*
X117288353Y-63135223D01*
X117209679Y-63008519D01*
X117147607Y-62869761D01*
X117102145Y-62717400D01*
X117073915Y-62549571D01*
X117064138Y-62364148D01*
X117066376Y-62327878D01*
X117575461Y-62327878D01*
X117584110Y-62490816D01*
X117609064Y-62638021D01*
X117649222Y-62771423D01*
X117704691Y-62890890D01*
X117765508Y-62974432D01*
X117831150Y-63029695D01*
X117902695Y-63061756D01*
X117982736Y-63072575D01*
X118044197Y-63065507D01*
X118099215Y-63044761D01*
X118149432Y-63009804D01*
X118213951Y-62932868D01*
X118264218Y-62826540D01*
X118298060Y-62682600D01*
X118310754Y-62490666D01*
X118299691Y-62297526D01*
X118267468Y-62119649D01*
X118215011Y-61955041D01*
X118145971Y-61816976D01*
X118076193Y-61732862D01*
X118005458Y-61687905D01*
X117930712Y-61673551D01*
X117855279Y-61684974D01*
X117785976Y-61719463D01*
X117720297Y-61780408D01*
X117661349Y-61874265D01*
X117616056Y-61992980D01*
X117586319Y-62142014D01*
X117575461Y-62327878D01*
X117066376Y-62327878D01*
X117077081Y-62154374D01*
X117114489Y-61965081D01*
X117174977Y-61793433D01*
X117258189Y-61637037D01*
X117348533Y-61516194D01*
X117447575Y-61420579D01*
X117555884Y-61347364D01*
X117674778Y-61294864D01*
X117806244Y-61262634D01*
X117952816Y-61251500D01*
X118123361Y-61263952D01*
G37*
G36*
X120060265Y-63348569D02*
G01*
X120546919Y-63296667D01*
X120689191Y-61427355D01*
X120027415Y-61312561D01*
X119565307Y-62561496D01*
X119540761Y-61476570D01*
X119073158Y-61318056D01*
X119100513Y-63425139D01*
X119584480Y-63375924D01*
X120041092Y-62143353D01*
X120060265Y-63348569D01*
G37*
G36*
X121462952Y-61312561D02*
G01*
X120978985Y-61364462D01*
X120836836Y-63233775D01*
X121495803Y-63348569D01*
X121462952Y-61312561D01*
G37*
G36*
X123513371Y-61427355D02*
G01*
X122802380Y-63362247D01*
X122318413Y-63411461D01*
X121856681Y-62083269D01*
X122370314Y-62083269D01*
X122534446Y-62564183D01*
X122671099Y-62031245D01*
X122370314Y-62083269D01*
X121856681Y-62083269D01*
X121645768Y-61476570D01*
X122113371Y-61318056D01*
X122277380Y-61796284D01*
X122750478Y-61717027D01*
X122854282Y-61312561D01*
X123513371Y-61427355D01*
G37*
G36*
X124628584Y-63348569D02*
G01*
X125115238Y-63296667D01*
X125257509Y-61427355D01*
X124595733Y-61312561D01*
X124133626Y-62561496D01*
X124109079Y-61476570D01*
X123641476Y-61318056D01*
X123668831Y-63425139D01*
X124152799Y-63375924D01*
X124609411Y-62143353D01*
X124628584Y-63348569D01*
G37*
G36*
X125864452Y-63539933D02*
G01*
X125722303Y-62900383D01*
X125522635Y-62946789D01*
X125451560Y-63591835D01*
X125864452Y-63539933D01*
G37*
G36*
X126637359Y-61720446D02*
G01*
X126728819Y-61732442D01*
X126796171Y-61765340D01*
X126845576Y-61818510D01*
X126866102Y-61861343D01*
X126872931Y-61908147D01*
X126858425Y-61961549D01*
X126804459Y-62032280D01*
X126687062Y-62128698D01*
X126580450Y-62199406D01*
X126402966Y-62325857D01*
X126286865Y-62422794D01*
X126216773Y-62496039D01*
X126149532Y-62595155D01*
X126111521Y-62692288D01*
X126099170Y-62789863D01*
X126110845Y-62898894D01*
X126145025Y-62996672D01*
X126202242Y-63085909D01*
X126285339Y-63168285D01*
X126399222Y-63244277D01*
X126550783Y-63313365D01*
X126714432Y-63355254D01*
X126892959Y-63369574D01*
X127042461Y-63358806D01*
X127171882Y-63328148D01*
X127284468Y-63279138D01*
X127382801Y-63212012D01*
X127468640Y-63125697D01*
X127512237Y-63068789D01*
X127109603Y-62880966D01*
X127087254Y-62942504D01*
X127046480Y-62988870D01*
X126983817Y-63022505D01*
X126912743Y-63033496D01*
X126830259Y-63020004D01*
X126764149Y-62980962D01*
X126710265Y-62913328D01*
X126685637Y-62851647D01*
X126677537Y-62787787D01*
X126687653Y-62724997D01*
X126718961Y-62664384D01*
X126775782Y-62603757D01*
X126865726Y-62542201D01*
X127018378Y-62465631D01*
X127184846Y-62378702D01*
X127294754Y-62307670D01*
X127362272Y-62249965D01*
X127433622Y-62156279D01*
X127475915Y-62051932D01*
X127490377Y-61933304D01*
X127480038Y-61825763D01*
X127449966Y-61729834D01*
X127400242Y-61643052D01*
X127329178Y-61563747D01*
X127233463Y-61491191D01*
X127108381Y-61425645D01*
X126943510Y-61369100D01*
X126760736Y-61334013D01*
X126557247Y-61321842D01*
X126404271Y-61332781D01*
X126275849Y-61363509D01*
X126167811Y-61411928D01*
X126076850Y-61477435D01*
X126000740Y-61560956D01*
X126453810Y-61845743D01*
X126501369Y-61774489D01*
X126561218Y-61734260D01*
X126637359Y-61720446D01*
G37*
G36*
X130325182Y-61573900D02*
G01*
X129587446Y-62115020D01*
X129740379Y-62174938D01*
X129871501Y-62240683D01*
X130006078Y-62331598D01*
X130100704Y-62421151D01*
X130163040Y-62509890D01*
X130198588Y-62599286D01*
X130210265Y-62691678D01*
X130200321Y-62777206D01*
X130170030Y-62860997D01*
X130117174Y-62944937D01*
X130037671Y-63030363D01*
X129925845Y-63118004D01*
X129776369Y-63202735D01*
X129598056Y-63278057D01*
X129386728Y-63342766D01*
X129137725Y-63395164D01*
X128845957Y-63433111D01*
X128505939Y-63454082D01*
X128470402Y-63150732D01*
X128697764Y-63141467D01*
X128896972Y-63115195D01*
X128497757Y-63044242D01*
X128554818Y-62336427D01*
X129140238Y-62336427D01*
X129153793Y-63049616D01*
X129281898Y-62995027D01*
X129405982Y-62919127D01*
X129482997Y-62844683D01*
X129524745Y-62770737D01*
X129538109Y-62694364D01*
X129524432Y-62620603D01*
X129482147Y-62543303D01*
X129409986Y-62470360D01*
X129299784Y-62401021D01*
X129140238Y-62336427D01*
X128554818Y-62336427D01*
X128637219Y-61314270D01*
X129123873Y-61366172D01*
X129123873Y-61822540D01*
X129672565Y-61314270D01*
X130325182Y-61573900D01*
G37*
G36*
X130405171Y-63151831D02*
G01*
X130440709Y-63452372D01*
X131895419Y-63381420D01*
X131859882Y-63080757D01*
X131091494Y-63118981D01*
X131077816Y-62433025D01*
X131520750Y-62471249D01*
X131501577Y-62173394D01*
X131064138Y-62132362D01*
X131064138Y-61640457D01*
X131848891Y-61681489D01*
X131832526Y-61383635D01*
X130571989Y-61312561D01*
X130432526Y-63042533D01*
X130919180Y-63127163D01*
X130405171Y-63151831D01*
G37*
G36*
X133168779Y-61364462D02*
G01*
X132684812Y-61312561D01*
X132545349Y-63042533D01*
X132985597Y-63118981D01*
X132050513Y-63080757D01*
X132012167Y-63381420D01*
X133775845Y-63452372D01*
X133814191Y-63151831D01*
X133207125Y-63127163D01*
X133168779Y-61364462D01*
G37*
G36*
X135807945Y-61573900D02*
G01*
X135070210Y-62115020D01*
X135223143Y-62174938D01*
X135354264Y-62240683D01*
X135488842Y-62331598D01*
X135583468Y-62421151D01*
X135645804Y-62509890D01*
X135681352Y-62599286D01*
X135693029Y-62691678D01*
X135683084Y-62777206D01*
X135652793Y-62860997D01*
X135599938Y-62944937D01*
X135520434Y-63030363D01*
X135408608Y-63118004D01*
X135259132Y-63202735D01*
X135080819Y-63278057D01*
X134869491Y-63342766D01*
X134620488Y-63395164D01*
X134328720Y-63433111D01*
X133988702Y-63454082D01*
X133953165Y-63150732D01*
X134180527Y-63141467D01*
X134379735Y-63115195D01*
X133980520Y-63044242D01*
X134037581Y-62336427D01*
X134623001Y-62336427D01*
X134636556Y-63049616D01*
X134764662Y-62995027D01*
X134888745Y-62919127D01*
X134965760Y-62844683D01*
X135007508Y-62770737D01*
X135020873Y-62694364D01*
X135007195Y-62620603D01*
X134964911Y-62543303D01*
X134892750Y-62470360D01*
X134782548Y-62401021D01*
X134623001Y-62336427D01*
X134037581Y-62336427D01*
X134119983Y-61314270D01*
X134606637Y-61366172D01*
X134606637Y-61822540D01*
X135155328Y-61314270D01*
X135807945Y-61573900D01*
G37*
G36*
X136926153Y-61263952D02*
G01*
X137076949Y-61299745D01*
X137211165Y-61357552D01*
X137331317Y-61437454D01*
X137439121Y-61540928D01*
X137527690Y-61659126D01*
X137597209Y-61790212D01*
X137648053Y-61935965D01*
X137679688Y-62098660D01*
X137690691Y-62280983D01*
X137690691Y-62327390D01*
X137667623Y-62545967D01*
X137616686Y-62744365D01*
X137538813Y-62925569D01*
X137433626Y-63091992D01*
X137333783Y-63208844D01*
X137227603Y-63301308D01*
X137114495Y-63371910D01*
X136993338Y-63422239D01*
X136862528Y-63452877D01*
X136720070Y-63463363D01*
X136569463Y-63450021D01*
X136433805Y-63411167D01*
X136310135Y-63347118D01*
X136196304Y-63256271D01*
X136091145Y-63135223D01*
X136012471Y-63008519D01*
X135950399Y-62869761D01*
X135904936Y-62717400D01*
X135876706Y-62549571D01*
X135866930Y-62364148D01*
X135869168Y-62327878D01*
X136378252Y-62327878D01*
X136386901Y-62490816D01*
X136411855Y-62638021D01*
X136452014Y-62771423D01*
X136507482Y-62890890D01*
X136568299Y-62974432D01*
X136633941Y-63029695D01*
X136705486Y-63061756D01*
X136785527Y-63072575D01*
X136846988Y-63065507D01*
X136902006Y-63044761D01*
X136952223Y-63009804D01*
X137016742Y-62932868D01*
X137067010Y-62826540D01*
X137100852Y-62682600D01*
X137113545Y-62490666D01*
X137102483Y-62297526D01*
X137070259Y-62119649D01*
X137017802Y-61955041D01*
X136948762Y-61816976D01*
X136878984Y-61732862D01*
X136808249Y-61687905D01*
X136733503Y-61673551D01*
X136658071Y-61684974D01*
X136588768Y-61719463D01*
X136523088Y-61780408D01*
X136464140Y-61874265D01*
X136418847Y-61992980D01*
X136389111Y-62142014D01*
X136378252Y-62327878D01*
X135869168Y-62327878D01*
X135879873Y-62154374D01*
X135917281Y-61965081D01*
X135977768Y-61793433D01*
X136060981Y-61637037D01*
X136151325Y-61516194D01*
X136250366Y-61420579D01*
X136358675Y-61347364D01*
X136477570Y-61294864D01*
X136609036Y-61262634D01*
X136755607Y-61251500D01*
X136926153Y-61263952D01*
G37*
G36*
X139468901Y-62363782D02*
G01*
X139728653Y-63314863D01*
X140196256Y-63314863D01*
X140483364Y-62322749D01*
X140702083Y-63407798D01*
X141363737Y-63290195D01*
X140764976Y-61360799D01*
X140278200Y-61308897D01*
X139971919Y-62434856D01*
X139682125Y-61308897D01*
X139198158Y-61360799D01*
X138599275Y-63290195D01*
X139261051Y-63407798D01*
X139468901Y-62363782D01*
G37*
G36*
X143017628Y-61427355D02*
G01*
X142306637Y-63362247D01*
X141822670Y-63411461D01*
X141360938Y-62083269D01*
X141874571Y-62083269D01*
X142038702Y-62564183D01*
X142175356Y-62031245D01*
X141874571Y-62083269D01*
X141360938Y-62083269D01*
X141150025Y-61476570D01*
X141617628Y-61318056D01*
X141781637Y-61796284D01*
X142254735Y-61717027D01*
X142358538Y-61312561D01*
X143017628Y-61427355D01*
G37*
G36*
X144948489Y-61573900D02*
G01*
X144210754Y-62115020D01*
X144363687Y-62174938D01*
X144494808Y-62240683D01*
X144629386Y-62331598D01*
X144724012Y-62421151D01*
X144786348Y-62509890D01*
X144821896Y-62599286D01*
X144833573Y-62691678D01*
X144823629Y-62777206D01*
X144793337Y-62860997D01*
X144740482Y-62944937D01*
X144660979Y-63030363D01*
X144549152Y-63118004D01*
X144399676Y-63202735D01*
X144221364Y-63278057D01*
X144010036Y-63342766D01*
X143761032Y-63395164D01*
X143469265Y-63433111D01*
X143129247Y-63454082D01*
X143093709Y-63150732D01*
X143321072Y-63141467D01*
X143520279Y-63115195D01*
X143121064Y-63044242D01*
X143178125Y-62336427D01*
X143763545Y-62336427D01*
X143777101Y-63049616D01*
X143905206Y-62995027D01*
X144029289Y-62919127D01*
X144106305Y-62844683D01*
X144148053Y-62770737D01*
X144161417Y-62694364D01*
X144147739Y-62620603D01*
X144105455Y-62543303D01*
X144033294Y-62470360D01*
X143923092Y-62401021D01*
X143763545Y-62336427D01*
X143178125Y-62336427D01*
X143260527Y-61314270D01*
X143747181Y-61366172D01*
X143747181Y-61822540D01*
X144295873Y-61314270D01*
X144948489Y-61573900D01*
G37*
G36*
X145028479Y-63151831D02*
G01*
X145064016Y-63452372D01*
X146518727Y-63381420D01*
X146483189Y-63080757D01*
X145714801Y-63118981D01*
X145701124Y-62433025D01*
X146144058Y-62471249D01*
X146124885Y-62173394D01*
X145687446Y-62132362D01*
X145687446Y-61640457D01*
X146472198Y-61681489D01*
X146455834Y-61383635D01*
X145195297Y-61312561D01*
X145055834Y-63042533D01*
X145542488Y-63127163D01*
X145028479Y-63151831D01*
G37*
G36*
X147255363Y-61720446D02*
G01*
X147346824Y-61732442D01*
X147414175Y-61765340D01*
X147463580Y-61818510D01*
X147484106Y-61861343D01*
X147490935Y-61908147D01*
X147476430Y-61961549D01*
X147422463Y-62032280D01*
X147305067Y-62128698D01*
X147198455Y-62199406D01*
X147020970Y-62325857D01*
X146904869Y-62422794D01*
X146834777Y-62496039D01*
X146767536Y-62595155D01*
X146729525Y-62692288D01*
X146717174Y-62789863D01*
X146728849Y-62898894D01*
X146763030Y-62996672D01*
X146820246Y-63085909D01*
X146903343Y-63168285D01*
X147017226Y-63244277D01*
X147168787Y-63313365D01*
X147332436Y-63355254D01*
X147510963Y-63369574D01*
X147660465Y-63358806D01*
X147789886Y-63328148D01*
X147902472Y-63279138D01*
X148000805Y-63212012D01*
X148086644Y-63125697D01*
X148130241Y-63068789D01*
X147727607Y-62880966D01*
X147705258Y-62942504D01*
X147664484Y-62988870D01*
X147601822Y-63022505D01*
X147530747Y-63033496D01*
X147448263Y-63020004D01*
X147382153Y-62980962D01*
X147328270Y-62913328D01*
X147303641Y-62851647D01*
X147295541Y-62787787D01*
X147305657Y-62724997D01*
X147336965Y-62664384D01*
X147393786Y-62603757D01*
X147483730Y-62542201D01*
X147636382Y-62465631D01*
X147802850Y-62378702D01*
X147912758Y-62307670D01*
X147980276Y-62249965D01*
X148051627Y-62156279D01*
X148093920Y-62051932D01*
X148108381Y-61933304D01*
X148098042Y-61825763D01*
X148067970Y-61729834D01*
X148018246Y-61643052D01*
X147947183Y-61563747D01*
X147851467Y-61491191D01*
X147726385Y-61425645D01*
X147561515Y-61369100D01*
X147378740Y-61334013D01*
X147175252Y-61321842D01*
X147022275Y-61332781D01*
X146893853Y-61363509D01*
X146785815Y-61411928D01*
X146694854Y-61477435D01*
X146618744Y-61560956D01*
X147071815Y-61845743D01*
X147119373Y-61774489D01*
X147179222Y-61734260D01*
X147255363Y-61720446D01*
G37*
D11*
X83326653Y-87094528D02*
X83255225Y-87023100D01*
X83255225Y-87023100D02*
X83040939Y-86951671D01*
X83040939Y-86951671D02*
X82898082Y-86951671D01*
X82898082Y-86951671D02*
X82683796Y-87023100D01*
X82683796Y-87023100D02*
X82540939Y-87165957D01*
X82540939Y-87165957D02*
X82469510Y-87308814D01*
X82469510Y-87308814D02*
X82398082Y-87594528D01*
X82398082Y-87594528D02*
X82398082Y-87808814D01*
X82398082Y-87808814D02*
X82469510Y-88094528D01*
X82469510Y-88094528D02*
X82540939Y-88237385D01*
X82540939Y-88237385D02*
X82683796Y-88380242D01*
X82683796Y-88380242D02*
X82898082Y-88451671D01*
X82898082Y-88451671D02*
X83040939Y-88451671D01*
X83040939Y-88451671D02*
X83255225Y-88380242D01*
X83255225Y-88380242D02*
X83326653Y-88308814D01*
X83969510Y-86951671D02*
X83969510Y-88451671D01*
X83969510Y-87737385D02*
X84826653Y-87737385D01*
X84826653Y-86951671D02*
X84826653Y-88451671D01*
X86183797Y-88451671D02*
X85898082Y-88451671D01*
X85898082Y-88451671D02*
X85755225Y-88380242D01*
X85755225Y-88380242D02*
X85683797Y-88308814D01*
X85683797Y-88308814D02*
X85540939Y-88094528D01*
X85540939Y-88094528D02*
X85469511Y-87808814D01*
X85469511Y-87808814D02*
X85469511Y-87237385D01*
X85469511Y-87237385D02*
X85540939Y-87094528D01*
X85540939Y-87094528D02*
X85612368Y-87023100D01*
X85612368Y-87023100D02*
X85755225Y-86951671D01*
X85755225Y-86951671D02*
X86040939Y-86951671D01*
X86040939Y-86951671D02*
X86183797Y-87023100D01*
X86183797Y-87023100D02*
X86255225Y-87094528D01*
X86255225Y-87094528D02*
X86326654Y-87237385D01*
X86326654Y-87237385D02*
X86326654Y-87594528D01*
X86326654Y-87594528D02*
X86255225Y-87737385D01*
X86255225Y-87737385D02*
X86183797Y-87808814D01*
X86183797Y-87808814D02*
X86040939Y-87880242D01*
X86040939Y-87880242D02*
X85755225Y-87880242D01*
X85755225Y-87880242D02*
X85612368Y-87808814D01*
X85612368Y-87808814D02*
X85540939Y-87737385D01*
X85540939Y-87737385D02*
X85469511Y-87594528D01*
D10*
X90821808Y-75769552D02*
X91012284Y-75769552D01*
X91012284Y-75769552D02*
X91107522Y-75721933D01*
X91107522Y-75721933D02*
X91202760Y-75626695D01*
X91202760Y-75626695D02*
X91250379Y-75436219D01*
X91250379Y-75436219D02*
X91250379Y-75102886D01*
X91250379Y-75102886D02*
X91202760Y-74912410D01*
X91202760Y-74912410D02*
X91107522Y-74817172D01*
X91107522Y-74817172D02*
X91012284Y-74769552D01*
X91012284Y-74769552D02*
X90821808Y-74769552D01*
X90821808Y-74769552D02*
X90726570Y-74817172D01*
X90726570Y-74817172D02*
X90631332Y-74912410D01*
X90631332Y-74912410D02*
X90583713Y-75102886D01*
X90583713Y-75102886D02*
X90583713Y-75436219D01*
X90583713Y-75436219D02*
X90631332Y-75626695D01*
X90631332Y-75626695D02*
X90726570Y-75721933D01*
X90726570Y-75721933D02*
X90821808Y-75769552D01*
X91678951Y-75436219D02*
X91678951Y-74436219D01*
X91678951Y-75388600D02*
X91774189Y-75436219D01*
X91774189Y-75436219D02*
X91964665Y-75436219D01*
X91964665Y-75436219D02*
X92059903Y-75388600D01*
X92059903Y-75388600D02*
X92107522Y-75340981D01*
X92107522Y-75340981D02*
X92155141Y-75245743D01*
X92155141Y-75245743D02*
X92155141Y-74960029D01*
X92155141Y-74960029D02*
X92107522Y-74864791D01*
X92107522Y-74864791D02*
X92059903Y-74817172D01*
X92059903Y-74817172D02*
X91964665Y-74769552D01*
X91964665Y-74769552D02*
X91774189Y-74769552D01*
X91774189Y-74769552D02*
X91678951Y-74817172D01*
X92440856Y-75436219D02*
X92821808Y-75436219D01*
X92583713Y-75769552D02*
X92583713Y-74912410D01*
X92583713Y-74912410D02*
X92631332Y-74817172D01*
X92631332Y-74817172D02*
X92726570Y-74769552D01*
X92726570Y-74769552D02*
X92821808Y-74769552D01*
X93155142Y-74769552D02*
X93155142Y-75436219D01*
X93155142Y-75769552D02*
X93107523Y-75721933D01*
X93107523Y-75721933D02*
X93155142Y-75674314D01*
X93155142Y-75674314D02*
X93202761Y-75721933D01*
X93202761Y-75721933D02*
X93155142Y-75769552D01*
X93155142Y-75769552D02*
X93155142Y-75674314D01*
X93774189Y-74769552D02*
X93678951Y-74817172D01*
X93678951Y-74817172D02*
X93631332Y-74864791D01*
X93631332Y-74864791D02*
X93583713Y-74960029D01*
X93583713Y-74960029D02*
X93583713Y-75245743D01*
X93583713Y-75245743D02*
X93631332Y-75340981D01*
X93631332Y-75340981D02*
X93678951Y-75388600D01*
X93678951Y-75388600D02*
X93774189Y-75436219D01*
X93774189Y-75436219D02*
X93917046Y-75436219D01*
X93917046Y-75436219D02*
X94012284Y-75388600D01*
X94012284Y-75388600D02*
X94059903Y-75340981D01*
X94059903Y-75340981D02*
X94107522Y-75245743D01*
X94107522Y-75245743D02*
X94107522Y-74960029D01*
X94107522Y-74960029D02*
X94059903Y-74864791D01*
X94059903Y-74864791D02*
X94012284Y-74817172D01*
X94012284Y-74817172D02*
X93917046Y-74769552D01*
X93917046Y-74769552D02*
X93774189Y-74769552D01*
X94536094Y-75436219D02*
X94536094Y-74769552D01*
X94536094Y-75340981D02*
X94583713Y-75388600D01*
X94583713Y-75388600D02*
X94678951Y-75436219D01*
X94678951Y-75436219D02*
X94821808Y-75436219D01*
X94821808Y-75436219D02*
X94917046Y-75388600D01*
X94917046Y-75388600D02*
X94964665Y-75293362D01*
X94964665Y-75293362D02*
X94964665Y-74769552D01*
X95869427Y-74769552D02*
X95869427Y-75293362D01*
X95869427Y-75293362D02*
X95821808Y-75388600D01*
X95821808Y-75388600D02*
X95726570Y-75436219D01*
X95726570Y-75436219D02*
X95536094Y-75436219D01*
X95536094Y-75436219D02*
X95440856Y-75388600D01*
X95869427Y-74817172D02*
X95774189Y-74769552D01*
X95774189Y-74769552D02*
X95536094Y-74769552D01*
X95536094Y-74769552D02*
X95440856Y-74817172D01*
X95440856Y-74817172D02*
X95393237Y-74912410D01*
X95393237Y-74912410D02*
X95393237Y-75007648D01*
X95393237Y-75007648D02*
X95440856Y-75102886D01*
X95440856Y-75102886D02*
X95536094Y-75150505D01*
X95536094Y-75150505D02*
X95774189Y-75150505D01*
X95774189Y-75150505D02*
X95869427Y-75198124D01*
X96488475Y-74769552D02*
X96393237Y-74817172D01*
X96393237Y-74817172D02*
X96345618Y-74912410D01*
X96345618Y-74912410D02*
X96345618Y-75769552D01*
X97583714Y-74817172D02*
X97726571Y-74769552D01*
X97726571Y-74769552D02*
X97964666Y-74769552D01*
X97964666Y-74769552D02*
X98059904Y-74817172D01*
X98059904Y-74817172D02*
X98107523Y-74864791D01*
X98107523Y-74864791D02*
X98155142Y-74960029D01*
X98155142Y-74960029D02*
X98155142Y-75055267D01*
X98155142Y-75055267D02*
X98107523Y-75150505D01*
X98107523Y-75150505D02*
X98059904Y-75198124D01*
X98059904Y-75198124D02*
X97964666Y-75245743D01*
X97964666Y-75245743D02*
X97774190Y-75293362D01*
X97774190Y-75293362D02*
X97678952Y-75340981D01*
X97678952Y-75340981D02*
X97631333Y-75388600D01*
X97631333Y-75388600D02*
X97583714Y-75483838D01*
X97583714Y-75483838D02*
X97583714Y-75579076D01*
X97583714Y-75579076D02*
X97631333Y-75674314D01*
X97631333Y-75674314D02*
X97678952Y-75721933D01*
X97678952Y-75721933D02*
X97774190Y-75769552D01*
X97774190Y-75769552D02*
X98012285Y-75769552D01*
X98012285Y-75769552D02*
X98155142Y-75721933D01*
X98583714Y-74769552D02*
X98583714Y-75769552D01*
X99012285Y-74769552D02*
X99012285Y-75293362D01*
X99012285Y-75293362D02*
X98964666Y-75388600D01*
X98964666Y-75388600D02*
X98869428Y-75436219D01*
X98869428Y-75436219D02*
X98726571Y-75436219D01*
X98726571Y-75436219D02*
X98631333Y-75388600D01*
X98631333Y-75388600D02*
X98583714Y-75340981D01*
X99917047Y-74769552D02*
X99917047Y-75293362D01*
X99917047Y-75293362D02*
X99869428Y-75388600D01*
X99869428Y-75388600D02*
X99774190Y-75436219D01*
X99774190Y-75436219D02*
X99583714Y-75436219D01*
X99583714Y-75436219D02*
X99488476Y-75388600D01*
X99917047Y-74817172D02*
X99821809Y-74769552D01*
X99821809Y-74769552D02*
X99583714Y-74769552D01*
X99583714Y-74769552D02*
X99488476Y-74817172D01*
X99488476Y-74817172D02*
X99440857Y-74912410D01*
X99440857Y-74912410D02*
X99440857Y-75007648D01*
X99440857Y-75007648D02*
X99488476Y-75102886D01*
X99488476Y-75102886D02*
X99583714Y-75150505D01*
X99583714Y-75150505D02*
X99821809Y-75150505D01*
X99821809Y-75150505D02*
X99917047Y-75198124D01*
X100393238Y-74769552D02*
X100393238Y-75436219D01*
X100393238Y-75245743D02*
X100440857Y-75340981D01*
X100440857Y-75340981D02*
X100488476Y-75388600D01*
X100488476Y-75388600D02*
X100583714Y-75436219D01*
X100583714Y-75436219D02*
X100678952Y-75436219D01*
X101393238Y-74817172D02*
X101298000Y-74769552D01*
X101298000Y-74769552D02*
X101107524Y-74769552D01*
X101107524Y-74769552D02*
X101012286Y-74817172D01*
X101012286Y-74817172D02*
X100964667Y-74912410D01*
X100964667Y-74912410D02*
X100964667Y-75293362D01*
X100964667Y-75293362D02*
X101012286Y-75388600D01*
X101012286Y-75388600D02*
X101107524Y-75436219D01*
X101107524Y-75436219D02*
X101298000Y-75436219D01*
X101298000Y-75436219D02*
X101393238Y-75388600D01*
X101393238Y-75388600D02*
X101440857Y-75293362D01*
X101440857Y-75293362D02*
X101440857Y-75198124D01*
X101440857Y-75198124D02*
X100964667Y-75102886D01*
X102298000Y-74769552D02*
X102298000Y-75769552D01*
X102298000Y-74817172D02*
X102202762Y-74769552D01*
X102202762Y-74769552D02*
X102012286Y-74769552D01*
X102012286Y-74769552D02*
X101917048Y-74817172D01*
X101917048Y-74817172D02*
X101869429Y-74864791D01*
X101869429Y-74864791D02*
X101821810Y-74960029D01*
X101821810Y-74960029D02*
X101821810Y-75245743D01*
X101821810Y-75245743D02*
X101869429Y-75340981D01*
X101869429Y-75340981D02*
X101917048Y-75388600D01*
X101917048Y-75388600D02*
X102012286Y-75436219D01*
X102012286Y-75436219D02*
X102202762Y-75436219D01*
X102202762Y-75436219D02*
X102298000Y-75388600D01*
X103393239Y-75769552D02*
X103726572Y-74769552D01*
X103726572Y-74769552D02*
X104059905Y-75769552D01*
X104393239Y-74769552D02*
X104393239Y-75436219D01*
X104393239Y-75245743D02*
X104440858Y-75340981D01*
X104440858Y-75340981D02*
X104488477Y-75388600D01*
X104488477Y-75388600D02*
X104583715Y-75436219D01*
X104583715Y-75436219D02*
X104678953Y-75436219D01*
X105393239Y-74817172D02*
X105298001Y-74769552D01*
X105298001Y-74769552D02*
X105107525Y-74769552D01*
X105107525Y-74769552D02*
X105012287Y-74817172D01*
X105012287Y-74817172D02*
X104964668Y-74912410D01*
X104964668Y-74912410D02*
X104964668Y-75293362D01*
X104964668Y-75293362D02*
X105012287Y-75388600D01*
X105012287Y-75388600D02*
X105107525Y-75436219D01*
X105107525Y-75436219D02*
X105298001Y-75436219D01*
X105298001Y-75436219D02*
X105393239Y-75388600D01*
X105393239Y-75388600D02*
X105440858Y-75293362D01*
X105440858Y-75293362D02*
X105440858Y-75198124D01*
X105440858Y-75198124D02*
X104964668Y-75102886D01*
X105726573Y-75436219D02*
X106107525Y-75436219D01*
X105869430Y-74769552D02*
X105869430Y-75626695D01*
X105869430Y-75626695D02*
X105917049Y-75721933D01*
X105917049Y-75721933D02*
X106012287Y-75769552D01*
X106012287Y-75769552D02*
X106107525Y-75769552D01*
X91988474Y-74159608D02*
X92178950Y-74159608D01*
X92178950Y-74159608D02*
X92274188Y-74111989D01*
X92274188Y-74111989D02*
X92369426Y-74016751D01*
X92369426Y-74016751D02*
X92417045Y-73826275D01*
X92417045Y-73826275D02*
X92417045Y-73492942D01*
X92417045Y-73492942D02*
X92369426Y-73302466D01*
X92369426Y-73302466D02*
X92274188Y-73207228D01*
X92274188Y-73207228D02*
X92178950Y-73159608D01*
X92178950Y-73159608D02*
X91988474Y-73159608D01*
X91988474Y-73159608D02*
X91893236Y-73207228D01*
X91893236Y-73207228D02*
X91797998Y-73302466D01*
X91797998Y-73302466D02*
X91750379Y-73492942D01*
X91750379Y-73492942D02*
X91750379Y-73826275D01*
X91750379Y-73826275D02*
X91797998Y-74016751D01*
X91797998Y-74016751D02*
X91893236Y-74111989D01*
X91893236Y-74111989D02*
X91988474Y-74159608D01*
X92845617Y-73159608D02*
X92845617Y-73826275D01*
X92845617Y-73635799D02*
X92893236Y-73731037D01*
X92893236Y-73731037D02*
X92940855Y-73778656D01*
X92940855Y-73778656D02*
X93036093Y-73826275D01*
X93036093Y-73826275D02*
X93131331Y-73826275D01*
X94083713Y-74159608D02*
X94417046Y-73159608D01*
X94417046Y-73159608D02*
X94750379Y-74159608D01*
X95083713Y-73159608D02*
X95083713Y-73826275D01*
X95083713Y-73635799D02*
X95131332Y-73731037D01*
X95131332Y-73731037D02*
X95178951Y-73778656D01*
X95178951Y-73778656D02*
X95274189Y-73826275D01*
X95274189Y-73826275D02*
X95369427Y-73826275D01*
X96083713Y-73207228D02*
X95988475Y-73159608D01*
X95988475Y-73159608D02*
X95797999Y-73159608D01*
X95797999Y-73159608D02*
X95702761Y-73207228D01*
X95702761Y-73207228D02*
X95655142Y-73302466D01*
X95655142Y-73302466D02*
X95655142Y-73683418D01*
X95655142Y-73683418D02*
X95702761Y-73778656D01*
X95702761Y-73778656D02*
X95797999Y-73826275D01*
X95797999Y-73826275D02*
X95988475Y-73826275D01*
X95988475Y-73826275D02*
X96083713Y-73778656D01*
X96083713Y-73778656D02*
X96131332Y-73683418D01*
X96131332Y-73683418D02*
X96131332Y-73588180D01*
X96131332Y-73588180D02*
X95655142Y-73492942D01*
X96417047Y-73826275D02*
X96797999Y-73826275D01*
X96559904Y-73159608D02*
X96559904Y-74016751D01*
X96559904Y-74016751D02*
X96607523Y-74111989D01*
X96607523Y-74111989D02*
X96702761Y-74159608D01*
X96702761Y-74159608D02*
X96797999Y-74159608D01*
X97893238Y-73826275D02*
X97893238Y-72826275D01*
X97893238Y-73778656D02*
X97988476Y-73826275D01*
X97988476Y-73826275D02*
X98178952Y-73826275D01*
X98178952Y-73826275D02*
X98274190Y-73778656D01*
X98274190Y-73778656D02*
X98321809Y-73731037D01*
X98321809Y-73731037D02*
X98369428Y-73635799D01*
X98369428Y-73635799D02*
X98369428Y-73350085D01*
X98369428Y-73350085D02*
X98321809Y-73254847D01*
X98321809Y-73254847D02*
X98274190Y-73207228D01*
X98274190Y-73207228D02*
X98178952Y-73159608D01*
X98178952Y-73159608D02*
X97988476Y-73159608D01*
X97988476Y-73159608D02*
X97893238Y-73207228D01*
X99178952Y-73207228D02*
X99083714Y-73159608D01*
X99083714Y-73159608D02*
X98893238Y-73159608D01*
X98893238Y-73159608D02*
X98798000Y-73207228D01*
X98798000Y-73207228D02*
X98750381Y-73302466D01*
X98750381Y-73302466D02*
X98750381Y-73683418D01*
X98750381Y-73683418D02*
X98798000Y-73778656D01*
X98798000Y-73778656D02*
X98893238Y-73826275D01*
X98893238Y-73826275D02*
X99083714Y-73826275D01*
X99083714Y-73826275D02*
X99178952Y-73778656D01*
X99178952Y-73778656D02*
X99226571Y-73683418D01*
X99226571Y-73683418D02*
X99226571Y-73588180D01*
X99226571Y-73588180D02*
X98750381Y-73492942D01*
X99655143Y-73159608D02*
X99655143Y-73826275D01*
X99655143Y-73635799D02*
X99702762Y-73731037D01*
X99702762Y-73731037D02*
X99750381Y-73778656D01*
X99750381Y-73778656D02*
X99845619Y-73826275D01*
X99845619Y-73826275D02*
X99940857Y-73826275D01*
X101036096Y-73159608D02*
X101036096Y-74159608D01*
X101036096Y-73778656D02*
X101131334Y-73826275D01*
X101131334Y-73826275D02*
X101321810Y-73826275D01*
X101321810Y-73826275D02*
X101417048Y-73778656D01*
X101417048Y-73778656D02*
X101464667Y-73731037D01*
X101464667Y-73731037D02*
X101512286Y-73635799D01*
X101512286Y-73635799D02*
X101512286Y-73350085D01*
X101512286Y-73350085D02*
X101464667Y-73254847D01*
X101464667Y-73254847D02*
X101417048Y-73207228D01*
X101417048Y-73207228D02*
X101321810Y-73159608D01*
X101321810Y-73159608D02*
X101131334Y-73159608D01*
X101131334Y-73159608D02*
X101036096Y-73207228D01*
X102083715Y-73159608D02*
X101988477Y-73207228D01*
X101988477Y-73207228D02*
X101940858Y-73254847D01*
X101940858Y-73254847D02*
X101893239Y-73350085D01*
X101893239Y-73350085D02*
X101893239Y-73635799D01*
X101893239Y-73635799D02*
X101940858Y-73731037D01*
X101940858Y-73731037D02*
X101988477Y-73778656D01*
X101988477Y-73778656D02*
X102083715Y-73826275D01*
X102083715Y-73826275D02*
X102226572Y-73826275D01*
X102226572Y-73826275D02*
X102321810Y-73778656D01*
X102321810Y-73778656D02*
X102369429Y-73731037D01*
X102369429Y-73731037D02*
X102417048Y-73635799D01*
X102417048Y-73635799D02*
X102417048Y-73350085D01*
X102417048Y-73350085D02*
X102369429Y-73254847D01*
X102369429Y-73254847D02*
X102321810Y-73207228D01*
X102321810Y-73207228D02*
X102226572Y-73159608D01*
X102226572Y-73159608D02*
X102083715Y-73159608D01*
X103274191Y-73159608D02*
X103274191Y-73683418D01*
X103274191Y-73683418D02*
X103226572Y-73778656D01*
X103226572Y-73778656D02*
X103131334Y-73826275D01*
X103131334Y-73826275D02*
X102940858Y-73826275D01*
X102940858Y-73826275D02*
X102845620Y-73778656D01*
X103274191Y-73207228D02*
X103178953Y-73159608D01*
X103178953Y-73159608D02*
X102940858Y-73159608D01*
X102940858Y-73159608D02*
X102845620Y-73207228D01*
X102845620Y-73207228D02*
X102798001Y-73302466D01*
X102798001Y-73302466D02*
X102798001Y-73397704D01*
X102798001Y-73397704D02*
X102845620Y-73492942D01*
X102845620Y-73492942D02*
X102940858Y-73540561D01*
X102940858Y-73540561D02*
X103178953Y-73540561D01*
X103178953Y-73540561D02*
X103274191Y-73588180D01*
X103750382Y-73159608D02*
X103750382Y-73826275D01*
X103750382Y-73635799D02*
X103798001Y-73731037D01*
X103798001Y-73731037D02*
X103845620Y-73778656D01*
X103845620Y-73778656D02*
X103940858Y-73826275D01*
X103940858Y-73826275D02*
X104036096Y-73826275D01*
X104798001Y-73159608D02*
X104798001Y-74159608D01*
X104798001Y-73207228D02*
X104702763Y-73159608D01*
X104702763Y-73159608D02*
X104512287Y-73159608D01*
X104512287Y-73159608D02*
X104417049Y-73207228D01*
X104417049Y-73207228D02*
X104369430Y-73254847D01*
X104369430Y-73254847D02*
X104321811Y-73350085D01*
X104321811Y-73350085D02*
X104321811Y-73635799D01*
X104321811Y-73635799D02*
X104369430Y-73731037D01*
X104369430Y-73731037D02*
X104417049Y-73778656D01*
X104417049Y-73778656D02*
X104512287Y-73826275D01*
X104512287Y-73826275D02*
X104702763Y-73826275D01*
X104702763Y-73826275D02*
X104798001Y-73778656D01*
D11*
X83326653Y-79474528D02*
X83255225Y-79403100D01*
X83255225Y-79403100D02*
X83040939Y-79331671D01*
X83040939Y-79331671D02*
X82898082Y-79331671D01*
X82898082Y-79331671D02*
X82683796Y-79403100D01*
X82683796Y-79403100D02*
X82540939Y-79545957D01*
X82540939Y-79545957D02*
X82469510Y-79688814D01*
X82469510Y-79688814D02*
X82398082Y-79974528D01*
X82398082Y-79974528D02*
X82398082Y-80188814D01*
X82398082Y-80188814D02*
X82469510Y-80474528D01*
X82469510Y-80474528D02*
X82540939Y-80617385D01*
X82540939Y-80617385D02*
X82683796Y-80760242D01*
X82683796Y-80760242D02*
X82898082Y-80831671D01*
X82898082Y-80831671D02*
X83040939Y-80831671D01*
X83040939Y-80831671D02*
X83255225Y-80760242D01*
X83255225Y-80760242D02*
X83326653Y-80688814D01*
X83969510Y-79331671D02*
X83969510Y-80831671D01*
X83969510Y-80117385D02*
X84826653Y-80117385D01*
X84826653Y-79331671D02*
X84826653Y-80831671D01*
X85398082Y-80831671D02*
X86326654Y-80831671D01*
X86326654Y-80831671D02*
X85826654Y-80260242D01*
X85826654Y-80260242D02*
X86040939Y-80260242D01*
X86040939Y-80260242D02*
X86183797Y-80188814D01*
X86183797Y-80188814D02*
X86255225Y-80117385D01*
X86255225Y-80117385D02*
X86326654Y-79974528D01*
X86326654Y-79974528D02*
X86326654Y-79617385D01*
X86326654Y-79617385D02*
X86255225Y-79474528D01*
X86255225Y-79474528D02*
X86183797Y-79403100D01*
X86183797Y-79403100D02*
X86040939Y-79331671D01*
X86040939Y-79331671D02*
X85612368Y-79331671D01*
X85612368Y-79331671D02*
X85469511Y-79403100D01*
X85469511Y-79403100D02*
X85398082Y-79474528D01*
X83326653Y-99794528D02*
X83255225Y-99723100D01*
X83255225Y-99723100D02*
X83040939Y-99651671D01*
X83040939Y-99651671D02*
X82898082Y-99651671D01*
X82898082Y-99651671D02*
X82683796Y-99723100D01*
X82683796Y-99723100D02*
X82540939Y-99865957D01*
X82540939Y-99865957D02*
X82469510Y-100008814D01*
X82469510Y-100008814D02*
X82398082Y-100294528D01*
X82398082Y-100294528D02*
X82398082Y-100508814D01*
X82398082Y-100508814D02*
X82469510Y-100794528D01*
X82469510Y-100794528D02*
X82540939Y-100937385D01*
X82540939Y-100937385D02*
X82683796Y-101080242D01*
X82683796Y-101080242D02*
X82898082Y-101151671D01*
X82898082Y-101151671D02*
X83040939Y-101151671D01*
X83040939Y-101151671D02*
X83255225Y-101080242D01*
X83255225Y-101080242D02*
X83326653Y-101008814D01*
X83969510Y-99651671D02*
X83969510Y-101151671D01*
X83969510Y-100437385D02*
X84826653Y-100437385D01*
X84826653Y-99651671D02*
X84826653Y-101151671D01*
X86326654Y-99651671D02*
X85469511Y-99651671D01*
X85898082Y-99651671D02*
X85898082Y-101151671D01*
X85898082Y-101151671D02*
X85755225Y-100937385D01*
X85755225Y-100937385D02*
X85612368Y-100794528D01*
X85612368Y-100794528D02*
X85469511Y-100723100D01*
X87255225Y-101151671D02*
X87398082Y-101151671D01*
X87398082Y-101151671D02*
X87540939Y-101080242D01*
X87540939Y-101080242D02*
X87612368Y-101008814D01*
X87612368Y-101008814D02*
X87683796Y-100865957D01*
X87683796Y-100865957D02*
X87755225Y-100580242D01*
X87755225Y-100580242D02*
X87755225Y-100223100D01*
X87755225Y-100223100D02*
X87683796Y-99937385D01*
X87683796Y-99937385D02*
X87612368Y-99794528D01*
X87612368Y-99794528D02*
X87540939Y-99723100D01*
X87540939Y-99723100D02*
X87398082Y-99651671D01*
X87398082Y-99651671D02*
X87255225Y-99651671D01*
X87255225Y-99651671D02*
X87112368Y-99723100D01*
X87112368Y-99723100D02*
X87040939Y-99794528D01*
X87040939Y-99794528D02*
X86969510Y-99937385D01*
X86969510Y-99937385D02*
X86898082Y-100223100D01*
X86898082Y-100223100D02*
X86898082Y-100580242D01*
X86898082Y-100580242D02*
X86969510Y-100865957D01*
X86969510Y-100865957D02*
X87040939Y-101008814D01*
X87040939Y-101008814D02*
X87112368Y-101080242D01*
X87112368Y-101080242D02*
X87255225Y-101151671D01*
X169713346Y-94714528D02*
X169641918Y-94643100D01*
X169641918Y-94643100D02*
X169427632Y-94571671D01*
X169427632Y-94571671D02*
X169284775Y-94571671D01*
X169284775Y-94571671D02*
X169070489Y-94643100D01*
X169070489Y-94643100D02*
X168927632Y-94785957D01*
X168927632Y-94785957D02*
X168856203Y-94928814D01*
X168856203Y-94928814D02*
X168784775Y-95214528D01*
X168784775Y-95214528D02*
X168784775Y-95428814D01*
X168784775Y-95428814D02*
X168856203Y-95714528D01*
X168856203Y-95714528D02*
X168927632Y-95857385D01*
X168927632Y-95857385D02*
X169070489Y-96000242D01*
X169070489Y-96000242D02*
X169284775Y-96071671D01*
X169284775Y-96071671D02*
X169427632Y-96071671D01*
X169427632Y-96071671D02*
X169641918Y-96000242D01*
X169641918Y-96000242D02*
X169713346Y-95928814D01*
X170356203Y-94571671D02*
X170356203Y-96071671D01*
X170356203Y-95357385D02*
X171213346Y-95357385D01*
X171213346Y-94571671D02*
X171213346Y-96071671D01*
X171856204Y-95928814D02*
X171927632Y-96000242D01*
X171927632Y-96000242D02*
X172070490Y-96071671D01*
X172070490Y-96071671D02*
X172427632Y-96071671D01*
X172427632Y-96071671D02*
X172570490Y-96000242D01*
X172570490Y-96000242D02*
X172641918Y-95928814D01*
X172641918Y-95928814D02*
X172713347Y-95785957D01*
X172713347Y-95785957D02*
X172713347Y-95643100D01*
X172713347Y-95643100D02*
X172641918Y-95428814D01*
X172641918Y-95428814D02*
X171784775Y-94571671D01*
X171784775Y-94571671D02*
X172713347Y-94571671D01*
X174141918Y-94571671D02*
X173284775Y-94571671D01*
X173713346Y-94571671D02*
X173713346Y-96071671D01*
X173713346Y-96071671D02*
X173570489Y-95857385D01*
X173570489Y-95857385D02*
X173427632Y-95714528D01*
X173427632Y-95714528D02*
X173284775Y-95643100D01*
X169713346Y-107414528D02*
X169641918Y-107343100D01*
X169641918Y-107343100D02*
X169427632Y-107271671D01*
X169427632Y-107271671D02*
X169284775Y-107271671D01*
X169284775Y-107271671D02*
X169070489Y-107343100D01*
X169070489Y-107343100D02*
X168927632Y-107485957D01*
X168927632Y-107485957D02*
X168856203Y-107628814D01*
X168856203Y-107628814D02*
X168784775Y-107914528D01*
X168784775Y-107914528D02*
X168784775Y-108128814D01*
X168784775Y-108128814D02*
X168856203Y-108414528D01*
X168856203Y-108414528D02*
X168927632Y-108557385D01*
X168927632Y-108557385D02*
X169070489Y-108700242D01*
X169070489Y-108700242D02*
X169284775Y-108771671D01*
X169284775Y-108771671D02*
X169427632Y-108771671D01*
X169427632Y-108771671D02*
X169641918Y-108700242D01*
X169641918Y-108700242D02*
X169713346Y-108628814D01*
X170356203Y-107271671D02*
X170356203Y-108771671D01*
X170356203Y-108057385D02*
X171213346Y-108057385D01*
X171213346Y-107271671D02*
X171213346Y-108771671D01*
X172713347Y-107271671D02*
X171856204Y-107271671D01*
X172284775Y-107271671D02*
X172284775Y-108771671D01*
X172284775Y-108771671D02*
X172141918Y-108557385D01*
X172141918Y-108557385D02*
X171999061Y-108414528D01*
X171999061Y-108414528D02*
X171856204Y-108343100D01*
X173999061Y-108771671D02*
X173713346Y-108771671D01*
X173713346Y-108771671D02*
X173570489Y-108700242D01*
X173570489Y-108700242D02*
X173499061Y-108628814D01*
X173499061Y-108628814D02*
X173356203Y-108414528D01*
X173356203Y-108414528D02*
X173284775Y-108128814D01*
X173284775Y-108128814D02*
X173284775Y-107557385D01*
X173284775Y-107557385D02*
X173356203Y-107414528D01*
X173356203Y-107414528D02*
X173427632Y-107343100D01*
X173427632Y-107343100D02*
X173570489Y-107271671D01*
X173570489Y-107271671D02*
X173856203Y-107271671D01*
X173856203Y-107271671D02*
X173999061Y-107343100D01*
X173999061Y-107343100D02*
X174070489Y-107414528D01*
X174070489Y-107414528D02*
X174141918Y-107557385D01*
X174141918Y-107557385D02*
X174141918Y-107914528D01*
X174141918Y-107914528D02*
X174070489Y-108057385D01*
X174070489Y-108057385D02*
X173999061Y-108128814D01*
X173999061Y-108128814D02*
X173856203Y-108200242D01*
X173856203Y-108200242D02*
X173570489Y-108200242D01*
X173570489Y-108200242D02*
X173427632Y-108128814D01*
X173427632Y-108128814D02*
X173356203Y-108057385D01*
X173356203Y-108057385D02*
X173284775Y-107914528D01*
X83326653Y-109954528D02*
X83255225Y-109883100D01*
X83255225Y-109883100D02*
X83040939Y-109811671D01*
X83040939Y-109811671D02*
X82898082Y-109811671D01*
X82898082Y-109811671D02*
X82683796Y-109883100D01*
X82683796Y-109883100D02*
X82540939Y-110025957D01*
X82540939Y-110025957D02*
X82469510Y-110168814D01*
X82469510Y-110168814D02*
X82398082Y-110454528D01*
X82398082Y-110454528D02*
X82398082Y-110668814D01*
X82398082Y-110668814D02*
X82469510Y-110954528D01*
X82469510Y-110954528D02*
X82540939Y-111097385D01*
X82540939Y-111097385D02*
X82683796Y-111240242D01*
X82683796Y-111240242D02*
X82898082Y-111311671D01*
X82898082Y-111311671D02*
X83040939Y-111311671D01*
X83040939Y-111311671D02*
X83255225Y-111240242D01*
X83255225Y-111240242D02*
X83326653Y-111168814D01*
X83969510Y-109811671D02*
X83969510Y-111311671D01*
X83969510Y-110597385D02*
X84826653Y-110597385D01*
X84826653Y-109811671D02*
X84826653Y-111311671D01*
X86326654Y-109811671D02*
X85469511Y-109811671D01*
X85898082Y-109811671D02*
X85898082Y-111311671D01*
X85898082Y-111311671D02*
X85755225Y-111097385D01*
X85755225Y-111097385D02*
X85612368Y-110954528D01*
X85612368Y-110954528D02*
X85469511Y-110883100D01*
X87612368Y-110811671D02*
X87612368Y-109811671D01*
X87255225Y-111383100D02*
X86898082Y-110311671D01*
X86898082Y-110311671D02*
X87826653Y-110311671D01*
X83326653Y-94714528D02*
X83255225Y-94643100D01*
X83255225Y-94643100D02*
X83040939Y-94571671D01*
X83040939Y-94571671D02*
X82898082Y-94571671D01*
X82898082Y-94571671D02*
X82683796Y-94643100D01*
X82683796Y-94643100D02*
X82540939Y-94785957D01*
X82540939Y-94785957D02*
X82469510Y-94928814D01*
X82469510Y-94928814D02*
X82398082Y-95214528D01*
X82398082Y-95214528D02*
X82398082Y-95428814D01*
X82398082Y-95428814D02*
X82469510Y-95714528D01*
X82469510Y-95714528D02*
X82540939Y-95857385D01*
X82540939Y-95857385D02*
X82683796Y-96000242D01*
X82683796Y-96000242D02*
X82898082Y-96071671D01*
X82898082Y-96071671D02*
X83040939Y-96071671D01*
X83040939Y-96071671D02*
X83255225Y-96000242D01*
X83255225Y-96000242D02*
X83326653Y-95928814D01*
X83969510Y-94571671D02*
X83969510Y-96071671D01*
X83969510Y-95357385D02*
X84826653Y-95357385D01*
X84826653Y-94571671D02*
X84826653Y-96071671D01*
X85755225Y-95428814D02*
X85612368Y-95500242D01*
X85612368Y-95500242D02*
X85540939Y-95571671D01*
X85540939Y-95571671D02*
X85469511Y-95714528D01*
X85469511Y-95714528D02*
X85469511Y-95785957D01*
X85469511Y-95785957D02*
X85540939Y-95928814D01*
X85540939Y-95928814D02*
X85612368Y-96000242D01*
X85612368Y-96000242D02*
X85755225Y-96071671D01*
X85755225Y-96071671D02*
X86040939Y-96071671D01*
X86040939Y-96071671D02*
X86183797Y-96000242D01*
X86183797Y-96000242D02*
X86255225Y-95928814D01*
X86255225Y-95928814D02*
X86326654Y-95785957D01*
X86326654Y-95785957D02*
X86326654Y-95714528D01*
X86326654Y-95714528D02*
X86255225Y-95571671D01*
X86255225Y-95571671D02*
X86183797Y-95500242D01*
X86183797Y-95500242D02*
X86040939Y-95428814D01*
X86040939Y-95428814D02*
X85755225Y-95428814D01*
X85755225Y-95428814D02*
X85612368Y-95357385D01*
X85612368Y-95357385D02*
X85540939Y-95285957D01*
X85540939Y-95285957D02*
X85469511Y-95143100D01*
X85469511Y-95143100D02*
X85469511Y-94857385D01*
X85469511Y-94857385D02*
X85540939Y-94714528D01*
X85540939Y-94714528D02*
X85612368Y-94643100D01*
X85612368Y-94643100D02*
X85755225Y-94571671D01*
X85755225Y-94571671D02*
X86040939Y-94571671D01*
X86040939Y-94571671D02*
X86183797Y-94643100D01*
X86183797Y-94643100D02*
X86255225Y-94714528D01*
X86255225Y-94714528D02*
X86326654Y-94857385D01*
X86326654Y-94857385D02*
X86326654Y-95143100D01*
X86326654Y-95143100D02*
X86255225Y-95285957D01*
X86255225Y-95285957D02*
X86183797Y-95357385D01*
X86183797Y-95357385D02*
X86040939Y-95428814D01*
X82255225Y-70671671D02*
X82755225Y-69171671D01*
X82755225Y-69171671D02*
X83255225Y-70671671D01*
X83755224Y-69171671D02*
X83755224Y-70171671D01*
X83755224Y-69885957D02*
X83826653Y-70028814D01*
X83826653Y-70028814D02*
X83898082Y-70100242D01*
X83898082Y-70100242D02*
X84040939Y-70171671D01*
X84040939Y-70171671D02*
X84183796Y-70171671D01*
X85255224Y-69243100D02*
X85112367Y-69171671D01*
X85112367Y-69171671D02*
X84826653Y-69171671D01*
X84826653Y-69171671D02*
X84683795Y-69243100D01*
X84683795Y-69243100D02*
X84612367Y-69385957D01*
X84612367Y-69385957D02*
X84612367Y-69957385D01*
X84612367Y-69957385D02*
X84683795Y-70100242D01*
X84683795Y-70100242D02*
X84826653Y-70171671D01*
X84826653Y-70171671D02*
X85112367Y-70171671D01*
X85112367Y-70171671D02*
X85255224Y-70100242D01*
X85255224Y-70100242D02*
X85326653Y-69957385D01*
X85326653Y-69957385D02*
X85326653Y-69814528D01*
X85326653Y-69814528D02*
X84612367Y-69671671D01*
X85755224Y-70171671D02*
X86326652Y-70171671D01*
X85969509Y-69171671D02*
X85969509Y-70457385D01*
X85969509Y-70457385D02*
X86040938Y-70600242D01*
X86040938Y-70600242D02*
X86183795Y-70671671D01*
X86183795Y-70671671D02*
X86326652Y-70671671D01*
X83326653Y-74394528D02*
X83255225Y-74323100D01*
X83255225Y-74323100D02*
X83040939Y-74251671D01*
X83040939Y-74251671D02*
X82898082Y-74251671D01*
X82898082Y-74251671D02*
X82683796Y-74323100D01*
X82683796Y-74323100D02*
X82540939Y-74465957D01*
X82540939Y-74465957D02*
X82469510Y-74608814D01*
X82469510Y-74608814D02*
X82398082Y-74894528D01*
X82398082Y-74894528D02*
X82398082Y-75108814D01*
X82398082Y-75108814D02*
X82469510Y-75394528D01*
X82469510Y-75394528D02*
X82540939Y-75537385D01*
X82540939Y-75537385D02*
X82683796Y-75680242D01*
X82683796Y-75680242D02*
X82898082Y-75751671D01*
X82898082Y-75751671D02*
X83040939Y-75751671D01*
X83040939Y-75751671D02*
X83255225Y-75680242D01*
X83255225Y-75680242D02*
X83326653Y-75608814D01*
X83969510Y-74251671D02*
X83969510Y-75751671D01*
X83969510Y-75037385D02*
X84826653Y-75037385D01*
X84826653Y-74251671D02*
X84826653Y-75751671D01*
X86326654Y-74251671D02*
X85469511Y-74251671D01*
X85898082Y-74251671D02*
X85898082Y-75751671D01*
X85898082Y-75751671D02*
X85755225Y-75537385D01*
X85755225Y-75537385D02*
X85612368Y-75394528D01*
X85612368Y-75394528D02*
X85469511Y-75323100D01*
M02*
